BasicallyASansSerif-Thick.ufo
<glyph name="exclamation" format="2">
  <advance width="483.4285714285714"/>
  <unicode hex="0021"/>
  <outline>
    <contour>
      <point x="113.14286" y="351.28571" type="line"/>
      <point x="370.28571" y="351.28571" type="line"/>
      <point x="370.28571" y="1089.64286" type="line"/>
      <point x="113.14286" y="1089.64286" type="line"/>
    </contour>
    <contour>
      <point x="401.14286" y="140.42857" type="curve" smooth="yes"/>
      <point x="401.14286" y="228.41959"/>
      <point x="329.70531" y="299.85714"/>
      <point x="241.71429" y="299.85714" type="curve" smooth="yes"/>
      <point x="153.72326" y="299.85714"/>
      <point x="82.28571" y="228.41959"/>
      <point x="82.28571" y="140.42857" type="curve" smooth="yes"/>
      <point x="82.28571" y="52.43755"/>
      <point x="153.72326" y="-19.0"/>
      <point x="241.71429" y="-19.0" type="curve" smooth="yes"/>
      <point x="329.70531" y="-19.0"/>
      <point x="401.14286" y="52.43755"/>
    </contour>
  </outline>
</glyph>
<glyph name="quote_dbl" format="2">
  <advance width="690.8181818181818"/>
  <unicode hex="0022"/>
  <outline>
    <contour>
      <point x="384.0" y="620.79545" type="line"/>
      <point x="624.54545" y="620.79545" type="line"/>
      <point x="624.54545" y="1092.27273" type="line"/>
      <point x="384.0" y="1092.27273" type="line"/>
    </contour>
    <contour>
      <point x="66.27273" y="620.79545" type="line"/>
      <point x="306.81818" y="620.79545" type="line"/>
      <point x="306.81818" y="1092.27273" type="line"/>
      <point x="66.27273" y="1092.27273" type="line"/>
    </contour>
  </outline>
</glyph>
<glyph name="quotedbl" format="2">
  <advance width="786.8571428571429"/>
  <unicode hex="0022"/>
  <outline>
    <contour>
      <point x="444.85714" y="745.71429" type="line"/>
      <point x="702.0" y="745.71429" type="line"/>
      <point x="702.0" y="1080.0" type="line"/>
      <point x="444.85714" y="1080.0" type="line"/>
    </contour>
    <contour>
      <point x="84.85714" y="745.71429" type="line"/>
      <point x="342.0" y="745.71429" type="line"/>
      <point x="342.0" y="1080.0" type="line"/>
      <point x="84.85714" y="1080.0" type="line"/>
    </contour>
  </outline>
</glyph>
<glyph name="numbersign" format="2">
  <advance width="976.352366358526"/>
  <unicode hex="0023"/>
  <outline>
    <contour>
      <point x="77.37580871582031" y="0" type="line"/>
      <point x="339.33152770996094" y="0" type="line"/>
      <point x="375.98609924316406" y="188.57142639160156" type="line"/>
      <point x="463.7446746826172" y="188.57142639160156" type="line"/>
      <point x="427.09010314941406" y="0" type="line"/>
      <point x="689.0458221435547" y="0" type="line"/>
      <point x="725.7003936767578" y="188.57142639160156" type="line"/>
      <point x="882" y="188.57142639160156" type="line"/>
      <point x="882" y="445.7142868041992" type="line"/>
      <point x="775.6838989257812" y="445.7142868041992" type="line"/>
      <point x="812.3384704589844" y="634.2857131958008" type="line"/>
      <point x="968.6380767822266" y="634.2857131958008" type="line"/>
      <point x="968.6380767822266" y="891.4285736083984" type="line"/>
      <point x="862.3219757080078" y="891.4285736083984" type="line"/>
      <point x="898.9765472412109" y="1080" type="line"/>
      <point x="637.0208282470703" y="1080" type="line"/>
      <point x="600.3662567138672" y="891.4285736083984" type="line"/>
      <point x="512.6076965332031" y="891.4285736083984" type="line"/>
      <point x="549.2622680664062" y="1080" type="line"/>
      <point x="287.3065490722656" y="1080" type="line"/>
      <point x="250.6519775390625" y="891.4285736083984" type="line"/>
      <point x="94.35237121582031" y="891.4285736083984" type="line"/>
      <point x="94.35237121582031" y="634.2857131958008" type="line"/>
      <point x="200.66846466064453" y="634.2857131958008" type="line"/>
      <point x="164.0138931274414" y="445.7142868041992" type="line"/>
      <point x="7.714286804199219" y="445.7142868041992" type="line"/>
      <point x="7.714286804199219" y="188.57142639160156" type="line"/>
      <point x="114.03038024902344" y="188.57142639160156" type="line"/>
    </contour>
    <contour>
      <point x="425.96961212158203" y="445.7142868041992" type="line"/>
      <point x="462.62418365478516" y="634.2857131958008" type="line"/>
      <point x="550.3827514648438" y="634.2857131958008" type="line"/>
      <point x="513.7281799316406" y="445.7142868041992" type="line"/>
    </contour>
  </outline>
</glyph>
<glyph name="dollar" format="2">
  <advance width="886.7454545454545"/>
  <unicode hex="0024"/>
  <outline>
    <contour>
      <point x="314.18182" y="770.03689" type="curve"/>
      <point x="314.18182" y="795.6104297055741"/>
      <point x="331.1760419254713" y="817.1032310032316"/>
      <point x="354.95999908447266" y="831.4946899414062" type="curve"/>
      <point x="354.95999908447266" y="708.3590087890625" type="line"/>
      <point x="329.03737731953163" y="723.4883802864296"/>
      <point x="314.18182" y="746.1224039273005"/>
    </contour>
    <contour>
      <point x="25.36363983154297" y="332.74492263793945" type="line"/>
      <point x="25.36363983154298" y="142.42575495537997"/>
      <point x="167.1436439001085" y="26.094709838047628"/>
      <point x="326.6999969482422" y="-8.601119995117188" type="curve"/>
      <point x="326.6999969482422" y="-128.18182373046875" type="line"/>
      <point x="549.2454528808594" y="-128.18182373046875" type="line"/>
      <point x="549.2454528808594" y="-9.398880004882812" type="line"/>
      <point x="729.096815099499" y="27.086293657027078"/>
      <point x="861.38182" y="152.41057171965994"/>
      <point x="861.38182" y="329.10856" type="curve"/>
      <point x="861.38182" y="467.9544799582448"/>
      <point x="775.0070317728365" y="618.5526069825067"/>
      <point x="540.3730109339019" y="664.8995853634234" type="curve"/>
      <point x="520.9854507446289" y="668.7291870117188" type="line"/>
      <point x="520.9854507446289" y="831.4951400756836" type="line"/>
      <point x="561.6391367598042" y="806.8952392302643"/>
      <point x="561.7636393945437" y="775.5109415413108"/>
      <point x="561.7636404021989" y="766.4005288928222" type="curve"/>
      <point x="561.7636413574219" y="757.7641677856445" type="line"/>
      <point x="838.3090896606445" y="757.7641677856445" type="line"/>
      <point x="838.3090896606445" y="766.4005279541016" type="line"/>
      <point x="838.3090896606445" y="951.3296354751513"/>
      <point x="702.030948962424" y="1065.3364383599123"/>
      <point x="549.2454528808594" y="1100.2778701782227" type="curve"/>
      <point x="549.2454528808594" y="1220.4545516967773" type="line"/>
      <point x="326.6999969482422" y="1220.4545516967773" type="line"/>
      <point x="326.6999969482422" y="1101.138572692871" type="line"/>
      <point x="153.72266604357858" y="1064.3165141233712"/>
      <point x="26.836360000000006" y="941.3611988484402"/>
      <point x="26.83636000000007" y="770.03689" type="curve"/>
      <point x="26.836360000000024" y="646.1890874062537"/>
      <point x="102.9100188631266" y="487.73827382716394"/>
      <point x="337.79434915120277" y="441.1635521572716" type="curve"/>
      <point x="354.95999908447266" y="437.7598114013672" type="line"/>
      <point x="354.95999908447266" y="257.9759292602539" type="line"/>
      <point x="302.032265205461" y="284.92684387517386"/>
      <point x="301.90909082453516" y="323.68334638080506"/>
      <point x="301.909089447338" y="332.74492331054694" type="curve"/>
      <point x="301.9090881347656" y="341.38128662109375" type="line"/>
      <point x="25.36363983154297" y="341.38128662109375" type="line"/>
    </contour>
    <contour>
      <point x="574.0363658471679" y="329.1085593273926" type="curve"/>
      <point x="574.0363597866759" y="299.1522737655257"/>
      <point x="552.1326883048449" y="273.8367871207721"/>
      <point x="520.9854507446289" y="257.99352264404297" type="curve"/>
      <point x="520.9854507446289" y="400.2305603027344" type="line"/>
      <point x="554.3380235857886" y="384.0726924324673"/>
      <point x="574.0363627038571" y="357.53895129528263"/>
    </contour>
  </outline>
</glyph>
<glyph name="percent" format="2">
  <advance width="1271.1428571428567"/>
  <unicode hex="0025"/>
  <outline>
    <contour>
      <point x="624.85714" y="799.28571" type="curve" smooth="yes"/>
      <point x="624.85714" y="962.49487"/>
      <point x="492.35201" y="1095.0"/>
      <point x="329.14286" y="1095.0" type="curve" smooth="yes"/>
      <point x="165.9337" y="1095.0"/>
      <point x="33.42857" y="962.49487"/>
      <point x="33.42857" y="799.28571" type="curve" smooth="yes"/>
      <point x="33.42857" y="636.07656"/>
      <point x="165.9337" y="503.57143"/>
      <point x="329.14286" y="503.57143" type="curve" smooth="yes"/>
      <point x="492.35201" y="503.57143"/>
      <point x="624.85714" y="636.07656"/>
    </contour>
    <contour>
      <point x="99.86115" y="0.0" type="line"/>
      <point x="357.44334" y="0.0" type="line"/>
      <point x="1171.28171" y="1080.0" type="line"/>
      <point x="913.69952" y="1080.0" type="line"/>
    </contour>
    <contour>
      <point x="367.71429" y="799.28571" type="curve" smooth="yes"/>
      <point x="367.71429" y="777.99756"/>
      <point x="350.43101" y="760.71429"/>
      <point x="329.14286" y="760.71429" type="curve" smooth="yes"/>
      <point x="307.85471" y="760.71429"/>
      <point x="290.57143" y="777.99756"/>
      <point x="290.57143" y="799.28571" type="curve" smooth="yes"/>
      <point x="290.57143" y="820.57387"/>
      <point x="307.85471" y="837.85714"/>
      <point x="329.14286" y="837.85714" type="curve" smooth="yes"/>
      <point x="350.43101" y="837.85714"/>
      <point x="367.71429" y="820.57387"/>
    </contour>
    <contour>
      <point x="1237.71429" y="280.71429" type="curve" smooth="yes"/>
      <point x="1237.71429" y="443.92344"/>
      <point x="1105.20916" y="576.42857"/>
      <point x="942.0" y="576.42857" type="curve" smooth="yes"/>
      <point x="778.79084" y="576.42857"/>
      <point x="646.28571" y="443.92344"/>
      <point x="646.28571" y="280.71429" type="curve" smooth="yes"/>
      <point x="646.28571" y="117.50513"/>
      <point x="778.79084" y="-15.0"/>
      <point x="942.0" y="-15.0" type="curve" smooth="yes"/>
      <point x="1105.20916" y="-15.0"/>
      <point x="1237.71429" y="117.50513"/>
    </contour>
    <contour>
      <point x="980.57143" y="280.71429" type="curve" smooth="yes"/>
      <point x="980.57143" y="259.42613"/>
      <point x="963.28815" y="242.14286"/>
      <point x="942.0" y="242.14286" type="curve" smooth="yes"/>
      <point x="920.71185" y="242.14286"/>
      <point x="903.42857" y="259.42613"/>
      <point x="903.42857" y="280.71429" type="curve" smooth="yes"/>
      <point x="903.42857" y="302.00244"/>
      <point x="920.71185" y="319.28571"/>
      <point x="942.0" y="319.28571" type="curve" smooth="yes"/>
      <point x="963.28815" y="319.28571"/>
      <point x="980.57143" y="302.00244"/>
    </contour>
  </outline>
</glyph>
<glyph name="ampersand" format="2">
  <advance width="1054.6087247494866"/>
  <unicode hex="0026"/>
  <outline>
    <contour>
      <point x="439.71428999999995" y="242.14286000000007" type="curve"/>
      <point x="362.1149304494219" y="242.14286"/>
      <point x="303.42857" y="288.02567601332515"/>
      <point x="303.42857" y="340.71429" type="curve"/>
      <point x="303.42857" y="357.5418505830418"/>
      <point x="309.7674574867441" y="392.9562409758785"/>
      <point x="376.97029876708984" y="431.1288375854492" type="curve"/>
      <point x="516.1166000366211" y="257.19715118408203" type="line"/>
      <point x="488.0188772050126" y="245.81202894997523"/>
      <point x="461.830494387983" y="242.14286000000004"/>
    </contour>
    <contour>
      <point x="434.0380498904657" y="771.4223349448696" type="line"/>
      <point x="429.72485257016035" y="776.8137946968551"/>
      <point x="422.57143" y="785.8699788440344"/>
      <point x="422.57143" y="799.28571" type="curve"/>
      <point x="422.57143" y="820.57387"/>
      <point x="439.85471" y="837.85714"/>
      <point x="461.14286" y="837.85714" type="curve" smooth="yes"/>
      <point x="482.43102000000005" y="837.85714"/>
      <point x="499.71429" y="820.57386"/>
      <point x="499.71429" y="799.28571" type="curve"/>
      <point x="499.71429" y="769.2260873241756"/>
      <point x="470.78291362442826" y="756.2298607451528"/>
      <point x="463.132449489929" y="752.8236561520847" type="curve"/>
      <point x="452.6505813598633" y="748.1568298339844" type="line"/>
    </contour>
    <contour>
      <point x="46.285709999999995" y="340.7142900000001" type="curve"/>
      <point x="46.28571000000001" y="144.4952299999999"/>
      <point x="222.45909999999992" y="-14.999999999999973"/>
      <point x="439.71429" y="-15.0" type="curve"/>
      <point x="526.15403310426" y="-15.0"/>
      <point x="607.6945166700368" y="9.629093293164829"/>
      <point x="679.3456420898438" y="53.162254333496094" type="curve"/>
      <point x="721.8757400512695" y="0" type="line"/>
      <point x="1051.1801528930664" y="0" type="line"/>
      <point x="861.2738723754883" y="237.3812255859375" type="line"/>
      <point x="920.972675337295" y="334.7573154893371"/>
      <point x="956.0892899999999" y="453.7109660579201"/>
      <point x="956.0892899999999" y="582.1428600000002" type="curve"/>
      <point x="698.9464263916016" y="582.1428604125977" type="line"/>
      <point x="698.94643" y="539.5874386277201"/>
      <point x="692.979138501929" y="498.8700272388767"/>
      <point x="682.0880432128906" y="461.3619689941406" type="curve"/>
      <point x="616.2851409912109" y="543.6150360107422" type="line"/>
      <point x="703.1286773414117" y="599.6522702749437"/>
      <point x="756.8571399999998" y="695.33679425415"/>
      <point x="756.8571399999998" y="799.2857100000001" type="curve"/>
      <point x="756.85714" y="962.49487"/>
      <point x="624.35201" y="1095.0"/>
      <point x="461.14286" y="1095.0" type="curve" smooth="yes"/>
      <point x="297.93369999999993" y="1095.0"/>
      <point x="165.42857" y="962.4948700000001"/>
      <point x="165.42857" y="799.28571" type="curve"/>
      <point x="165.42857" y="739.8175384325024"/>
      <point x="183.35290071512043" y="681.9175151857929"/>
      <point x="216.59056854248047" y="633.0478210449219" type="curve"/>
      <point x="109.26507260178083" y="558.7779174111253"/>
      <point x="46.28571" y="453.0583424294401"/>
    </contour>
  </outline>
</glyph>
<glyph name="quote" format="2">
  <advance width="363.85714285714283"/>
  <unicode hex="0027"/>
  <outline>
    <contour>
      <point x="82.28571" y="725.625" type="line"/>
      <point x="281.57143" y="725.625" type="line"/>
      <point x="281.57143" y="1089.64286" type="line"/>
      <point x="82.28571" y="1089.64286" type="line"/>
    </contour>
  </outline>
</glyph>
<glyph name="parenleft" format="2">
  <advance width="587.8449970592152"/>
  <unicode hex="0028"/>
  <outline>
    <contour>
      <point x="94.90909" y="546.13636" type="curve" smooth="yes"/>
      <point x="94.90909" y="308.54064"/>
      <point x="148.2391" y="74.75407"/>
      <point x="250.04461" y="-138.27273" type="curve"/>
      <point x="578.8450012207031" y="-138.2727279663086" type="line"/>
      <point x="461.92693" y="70.49946"/>
      <point x="400.25455" y="306.11541"/>
      <point x="400.25454474487304" y="546.1363600842285" type="curve"/>
      <point x="400.25455" y="786.15654"/>
      <point x="461.92652" y="1021.77172"/>
      <point x="578.84392" y="1230.54545" type="curve"/>
      <point x="250.0438003540039" y="1230.5454483032227" type="line"/>
      <point x="148.23883" y="1017.51749"/>
      <point x="94.90909" y="783.73149"/>
    </contour>
  </outline>
</glyph>
<glyph name="parenright" format="2">
  <advance width="600.4306930713868"/>
  <unicode hex="0029"/>
  <outline>
    <contour>
      <point x="24.85715" y="-128.57143" type="curve"/>
      <point x="320.56332" y="-128.57143" type="line"/>
      <point x="540.57704" y="307.7749"/>
      <point x="540.57696" y="823.6538"/>
      <point x="320.56308" y="1260.0" type="curve"/>
      <point x="24.85714" y="1260.0" type="line"/>
      <point x="296.28854" y="836.93646"/>
      <point x="296.28854" y="294.49212"/>
    </contour>
  </outline>
</glyph>
<glyph name="asterisk" format="2">
  <advance width="859.1693170214685"/>
  <unicode hex="002A"/>
  <outline>
    <contour>
      <point x="705.4176483154297" y="420.4840316772461" type="line"/>
      <point x="817.4420394897461" y="614.5159683227539" type="line"/>
      <point x="640.1054840087891" y="709.0909118652344" type="line"/>
      <point x="817.4420394897461" y="803.6658477783203" type="line"/>
      <point x="705.4176483154297" y="997.6977920532227" type="line"/>
      <point x="534.8450698852539" y="891.4072952270508" type="line"/>
      <point x="541.6090469360352" y="1092.2727279663086" type="line"/>
      <point x="317.5602569580078" y="1092.2727279663086" type="line"/>
      <point x="324.3242416381836" y="891.4073028564453" type="line"/>
      <point x="153.75167083740234" y="997.6977920532227" type="line"/>
      <point x="41.727272033691406" y="803.6658477783203" type="line"/>
      <point x="219.06382751464844" y="709.0909118652344" type="line"/>
      <point x="41.727272033691406" y="614.5159683227539" type="line"/>
      <point x="153.75167083740234" y="420.4840316772461" type="line"/>
      <point x="324.3242416381836" y="526.7745208740234" type="line"/>
      <point x="317.5602569580078" y="325.9090881347656" type="line"/>
      <point x="541.6090469360352" y="325.9090881347656" type="line"/>
      <point x="534.8450698852539" y="526.7745208740234" type="line"/>
    </contour>
  </outline>
</glyph>
<glyph name="plus" format="2">
  <advance width="992.5714285714286"/>
  <unicode hex="002B"/>
  <outline>
    <contour>
      <point x="367.7142868041992" y="85.71428680419922" type="line"/>
      <point x="624.8571395874023" y="85.71428680419922" type="line"/>
      <point x="624.8571395874023" y="368.57142639160156" type="line"/>
      <point x="907.7142868041992" y="368.57142639160156" type="line"/>
      <point x="907.7142868041992" y="625.7142868041992" type="line"/>
      <point x="624.8571395874023" y="625.7142868041992" type="line"/>
      <point x="624.8571395874023" y="908.5714263916016" type="line"/>
      <point x="367.7142868041992" y="908.5714263916016" type="line"/>
      <point x="367.7142868041992" y="625.7142868041992" type="line"/>
      <point x="84.85713958740234" y="625.7142868041992" type="line"/>
      <point x="84.85713958740234" y="368.57142639160156" type="line"/>
      <point x="367.7142868041992" y="368.57142639160156" type="line"/>
    </contour>
  </outline>
</glyph>
<glyph name="comma" format="2">
  <advance width="463.9533851603735"/>
  <unicode hex="002C"/>
  <outline>
    <contour>
      <point x="277.5493927001953" y="-263.57142639160156" type="line"/>
      <point x="361.108918703149" y="-118.8420862620776"/>
      <point x="361.95338947293857" y="4.6666117280115245"/>
      <point x="361.95339045084637" y="91.42857" type="curve"/>
      <point x="361.9533920288086" y="231.42857360839844" type="line"/>
      <point x="104.81053161621094" y="231.42857360839844" type="line"/>
      <point x="104.81053161621094" y="91.42857360839844" type="line"/>
      <point x="104.81053161621094" y="21.21867592174687"/>
      <point x="104.80069414116547" y="-48.49522561845549"/>
      <point x="54.85714" y="-135.0" type="curve"/>
    </contour>
  </outline>
</glyph>
<glyph name="hyphen" format="2">
  <advance width="875.0454545454545"/>
  <unicode hex="002D"/>
  <outline>
    <contour>
      <point x="66.27273" y="351.81818" type="line"/>
      <point x="808.77273" y="351.81818" type="line"/>
      <point x="808.77273" y="646.36364" type="line"/>
      <point x="66.27273" y="646.36364" type="line"/>
    </contour>
  </outline>
</glyph>
<glyph name="period" format="2">
  <advance width="499.6363636363637"/>
  <unicode hex="002E"/>
  <outline>
    <contour>
      <point x="445.63636" y="175.48485" type="curve" smooth="yes"/>
      <point x="445.63636" y="283.55984"/>
      <point x="357.89318" y="371.30303"/>
      <point x="249.81818" y="371.30303" type="curve" smooth="yes"/>
      <point x="141.74319" y="371.30303"/>
      <point x="54.0" y="283.55984"/>
      <point x="54.0" y="175.48485" type="curve" smooth="yes"/>
      <point x="54.0" y="67.40985"/>
      <point x="141.74319" y="-20.33333"/>
      <point x="249.81818" y="-20.33333" type="curve" smooth="yes"/>
      <point x="357.89318" y="-20.33333"/>
      <point x="445.63636" y="67.40985"/>
    </contour>
  </outline>
</glyph>
<glyph name="slash" format="2">
  <advance width="930.7822762122713"/>
  <unicode hex="002F"/>
  <outline>
    <contour>
      <point x="82.28571" y="-51.42857" type="line"/>
      <point x="355.93143" y="-51.42857" type="line"/>
      <point x="887.06799" y="1407.85714" type="line"/>
      <point x="613.42228" y="1407.85714" type="line"/>
    </contour>
  </outline>
</glyph>
<glyph name="zero" format="2">
  <advance width="963.9818181818183"/>
  <unicode hex="0030"/>
  <outline>
    <contour>
      <point x="610.0363616089219" y="400.57868924417994" type="line"/>
      <point x="610.0363621597833" y="295.3188708027338"/>
      <point x="541.5272707269052" y="256.21212"/>
      <point x="481.99091" y="256.21212" type="curve"/>
      <point x="422.4545146199828" y="256.21212"/>
      <point x="353.9454500469471" y="295.3189192366986"/>
      <point x="353.94544999138475" y="400.57868071887737" type="curve"/>
      <point x="353.9454498377168" y="691.6940513467445" type="line"/>
      <point x="353.9454497821544" y="796.9538697881906"/>
      <point x="422.4545492730948" y="836.06061"/>
      <point x="481.99091" y="836.06061" type="curve"/>
      <point x="541.5273053800172" y="836.06061"/>
      <point x="610.036359534553" y="796.953807918677"/>
      <point x="610.036360085414" y="691.6940464364982" type="curve"/>
    </contour>
    <contour>
      <point x="54.0" y="404.25758361816406" type="line"/>
      <point x="54.00000000000002" y="87.47224823159411"/>
      <point x="278.3493548634907" y="-20.333329999999975"/>
      <point x="481.99091" y="-20.33333" type="curve"/>
      <point x="685.6324651365093" y="-20.33333"/>
      <point x="909.9818207765904" y="87.472246422512"/>
      <point x="909.9818199476665" y="404.25758" type="curve"/>
      <point x="909.9818192051655" y="688.0151519775391" type="line"/>
      <point x="909.9818183762417" y="1004.800487364109"/>
      <point x="685.6324651365093" y="1112.60606"/>
      <point x="481.99091" y="1112.60606" type="curve"/>
      <point x="278.3493548634907" y="1112.60606"/>
      <point x="54.00000000000002" y="1004.800483577488"/>
      <point x="54.0" y="688.01515" type="curve"/>
    </contour>
  </outline>
</glyph>
<glyph name="one" format="2">
  <advance width="774.8181818181819"/>
  <unicode hex="0031"/>
  <outline>
    <contour>
      <point x="307.63636016845703" y="0" type="line"/>
      <point x="602.1818237304688" y="0" type="line"/>
      <point x="602.1818237304688" y="1092.2727279663086" type="line"/>
      <point x="307.63636016845703" y="1092.2727279663086" type="line"/>
      <point x="94.90908813476562" y="1000.2174224853516" type="line"/>
      <point x="94.90908813476562" y="698.8890991210938" type="line"/>
      <point x="307.63636016845703" y="790.9444122314453" type="line"/>
    </contour>
  </outline>
</glyph>
<glyph name="two" format="2">
  <advance width="915.4285714285713"/>
  <unicode hex="0032"/>
  <outline>
    <contour>
      <point x="106.28571319580078" y="0" type="line"/>
      <point x="839.1428604125977" y="0" type="line"/>
      <point x="839.1428604125977" y="257.14286041259766" type="line"/>
      <point x="504.7601089477539" y="257.14286041259766" type="line"/>
      <point x="674.0606393805817" y="400.15999601668665" type="line"/>
      <point x="741.6928683546345" y="457.2925261845506"/>
      <point x="839.14286" y="546.9668269220191"/>
      <point x="839.14286" y="715.71429" type="curve"/>
      <point x="839.14286" y="925.0477700000001"/>
      <point x="669.1906300000002" y="1095.0"/>
      <point x="459.85714" y="1095.0" type="curve" smooth="yes"/>
      <point x="250.52366" y="1095.0"/>
      <point x="80.57143" y="925.04777"/>
      <point x="80.57143" y="715.71429" type="curve"/>
      <point x="337.7142868041992" y="715.7142868041992" type="line"/>
      <point x="337.71429" y="783.12676"/>
      <point x="392.44467" y="837.85714"/>
      <point x="459.85714" y="837.85714" type="curve" smooth="yes"/>
      <point x="527.26962" y="837.85714"/>
      <point x="582.0" y="783.12676"/>
      <point x="582.0" y="715.71429" type="curve"/>
      <point x="582.0" y="662.9567738487435"/>
      <point x="550.6189569962501" y="632.4946868054255"/>
      <point x="515.3009878157791" y="602.6597275235381" type="curve"/>
      <point x="106.28571319580078" y="257.14286041259766" type="line"/>
    </contour>
  </outline>
</glyph>
<glyph name="three" format="2">
  <advance width="923.9999999999999"/>
  <unicode hex="0033"/>
  <outline>
    <contour>
      <point x="72" y="333.9525833129883" type="line"/>
      <point x="72.0" y="140.08254"/>
      <point x="243.58132" y="-15.0"/>
      <point x="464.14286" y="-15.0" type="curve" smooth="yes"/>
      <point x="684.70439" y="-15.0"/>
      <point x="856.28571" y="140.08254"/>
      <point x="856.28571" y="333.95258" type="curve"/>
      <point x="856.28571" y="420.07236594856"/>
      <point x="822.4282411013396" y="498.5383666546076"/>
      <point x="765.4599533081055" y="559.1507263183594" type="curve"/>
      <point x="811.9811041940242" y="615.0196315801707"/>
      <point x="839.14286" y="684.63067952586"/>
      <point x="839.14286" y="760.3811499999999" type="curve"/>
      <point x="839.14286" y="946.15289"/>
      <point x="675.78258" y="1095.0"/>
      <point x="464.14286" y="1095.0" type="curve" smooth="yes"/>
      <point x="252.50313" y="1095.0"/>
      <point x="89.14286" y="946.15289"/>
      <point x="89.14286" y="760.38115" type="curve"/>
      <point x="346.2857131958008" y="760.3811492919922" type="line"/>
      <point x="346.28571" y="803.04697"/>
      <point x="398.9521" y="837.85714"/>
      <point x="464.14286" y="837.85714" type="curve" smooth="yes"/>
      <point x="529.33362" y="837.85714"/>
      <point x="582.0" y="803.04697"/>
      <point x="582.0" y="760.38115" type="curve"/>
      <point x="582.0" y="714.5812228064126"/>
      <point x="528.332557133855" y="682.9051605009596"/>
      <point x="444.14286" y="682.9051598439128" type="curve"/>
      <point x="335.57142639160156" y="682.905158996582" type="line"/>
      <point x="335.57142639160156" y="425.7622985839844" type="line"/>
      <point x="444.14286041259766" y="425.7622985839844" type="line"/>
      <point x="562.7209045825208" y="425.7622985839844"/>
      <point x="599.14286" y="373.66944429287616"/>
      <point x="599.14286" y="333.95258" type="curve"/>
      <point x="599.14286" y="283.38432"/>
      <point x="538.80284" y="242.14286"/>
      <point x="464.14286" y="242.14286" type="curve" smooth="yes"/>
      <point x="389.48287" y="242.14286"/>
      <point x="329.14286" y="283.38432"/>
      <point x="329.14286" y="333.95258" type="curve"/>
    </contour>
  </outline>
</glyph>
<glyph name="four" format="2">
  <advance width="1003.0909090909092"/>
  <unicode hex="0034"/>
  <outline>
    <contour>
      <point x="49.909088134765625" y="177.80844116210938" type="line"/>
      <point x="537.3116912841797" y="177.80844116210938" type="line"/>
      <point x="537.3116912841797" y="0" type="line"/>
      <point x="810.2571411132812" y="0" type="line"/>
      <point x="810.2571411132812" y="177.80844116210938" type="line"/>
      <point x="977.7272720336914" y="177.80844116210938" type="line"/>
      <point x="977.7272720336914" y="434.0738983154297" type="line"/>
      <point x="810.2571411132812" y="434.0738983154297" type="line"/>
      <point x="810.2571411132812" y="1092.2727279663086" type="line"/>
      <point x="510.3386535644531" y="1092.2727279663086" type="line"/>
      <point x="49.909088134765625" y="425.73390197753906" type="line"/>
    </contour>
    <contour>
      <point x="358.90161895751953" y="434.0738983154297" type="line"/>
      <point x="537.3116912841797" y="703.1877212524414" type="line"/>
      <point x="537.3116912841797" y="434.0738983154297" type="line"/>
    </contour>
  </outline>
</glyph>
<glyph name="five" format="2">
  <advance width="889.7635672433036"/>
  <unicode hex="0035"/>
  <outline>
    <contour>
      <point x="826.335" y="364.28571" type="curve" smooth="yes"/>
      <point x="826.335" y="573.6192"/>
      <point x="656.38276" y="743.57143"/>
      <point x="447.04928" y="743.57143" type="curve" smooth="yes"/>
      <point x="424.7435849528" y="743.57143"/>
      <point x="402.88502986653003" y="741.6417690271893"/>
      <point x="381.6453323364258" y="737.9348754882812" type="curve"/>
      <point x="392.8255615234375" y="822.8571395874023" type="line"/>
      <point x="756.8404312133789" y="822.8571395874023" type="line"/>
      <point x="756.8404312133789" y="1080" type="line"/>
      <point x="167.31732177734375" y="1080" type="line"/>
      <point x="85.70483796882591" y="460.091531564165" type="line"/>
      <point x="82.67802684064193" y="437.10061445006977"/>
      <point x="81.63447753336987" y="431.37084650727763"/>
      <point x="80.57102000000002" y="421.09634" type="curve"/>
      <point x="339.93274688720703" y="421.0963363647461" type="line"/>
      <point x="340.2458953857422" y="423.4749221801758" type="line"/>
      <point x="359.3912" y="459.94014"/>
      <point x="400.1513" y="486.42857"/>
      <point x="447.04928" y="486.42857" type="curve" smooth="yes"/>
      <point x="514.46176" y="486.42857"/>
      <point x="569.19214" y="431.69819"/>
      <point x="569.19214" y="364.28571" type="curve" smooth="yes"/>
      <point x="569.19214" y="296.87324"/>
      <point x="514.46176" y="242.14286"/>
      <point x="447.04928" y="242.14286" type="curve" smooth="yes"/>
      <point x="400.15777" y="242.14286"/>
      <point x="359.40245" y="268.62398"/>
      <point x="338.93507" y="307.47508" type="curve"/>
      <point x="72" y="307.47508239746094" type="line"/>
      <point x="99.45489" y="125.04235"/>
      <point x="257.02681" y="-15.0"/>
      <point x="447.04928" y="-15.0" type="curve" smooth="yes"/>
      <point x="656.38276" y="-15.0"/>
      <point x="826.335" y="154.95223"/>
    </contour>
  </outline>
</glyph>
<glyph name="six" format="2">
  <advance width="894.0"/>
  <unicode hex="0036"/>
  <outline>
    <contour>
      <point x="839.14286" y="377.14286" type="curve" smooth="yes"/>
      <point x="839.14286" y="568.30142878861"/>
      <point x="702.0675561674232" y="727.6969727875753"/>
      <point x="520.932861328125" y="762.3043518066406" type="curve"/>
      <point x="711.8236694335938" y="1080" type="line"/>
      <point x="411.8322219848633" y="1080" type="line"/>
      <point x="110.86797332763672" y="579.1113586425781" type="line"/>
      <point x="110.8779296875" y="579.1053771972656" type="line"/>
      <point x="75.31887205911636" y="520.1133327403154"/>
      <point x="54.85713999999999" y="450.99878782391"/>
      <point x="54.85713999999999" y="377.1428599999999" type="curve" smooth="yes"/>
      <point x="54.85714" y="160.71332"/>
      <point x="230.57047" y="-15.0"/>
      <point x="447.0" y="-15.0" type="curve" smooth="yes"/>
      <point x="663.42953" y="-15.0"/>
      <point x="839.14286" y="160.71332"/>
    </contour>
    <contour>
      <point x="582.0" y="377.14286" type="curve" smooth="yes"/>
      <point x="582.0" y="302.63433"/>
      <point x="521.50853" y="242.14286"/>
      <point x="447.0" y="242.14286" type="curve" smooth="yes"/>
      <point x="372.49147" y="242.14286"/>
      <point x="312.0" y="302.63433"/>
      <point x="312.0" y="377.14286" type="curve" smooth="yes"/>
      <point x="312.0" y="451.65138"/>
      <point x="372.49147" y="512.14286"/>
      <point x="447.0" y="512.14286" type="curve" smooth="yes"/>
      <point x="521.50853" y="512.14286"/>
      <point x="582.0" y="451.65138"/>
    </contour>
  </outline>
</glyph>
<glyph name="seven" format="2">
  <advance width="863.1428571428571"/>
  <unicode hex="0037"/>
  <outline>
    <contour>
      <point x="84.42857360839844" y="0" type="line"/>
      <point x="374.18617248535156" y="0" type="line"/>
      <point x="806.5714263916016" y="832.5" type="line"/>
      <point x="806.5714263916016" y="1089.6428604125977" type="line"/>
      <point x="60.857139587402344" y="1089.6428604125977" type="line"/>
      <point x="60.857139587402344" y="832.5" type="line"/>
      <point x="516.8138275146484" y="832.5" type="line"/>
    </contour>
  </outline>
</glyph>
<glyph name="eight" format="2">
  <advance width="927.4285714285713"/>
  <unicode hex="0038"/>
  <outline>
    <contour>
      <point x="862.28571" y="338.07768" type="curve" smooth="yes"/>
      <point x="862.28571" y="428.64671750400004"/>
      <point x="825.7305683318546" y="510.9703344556908"/>
      <point x="764.7351608276367" y="573.6797409057617" type="curve"/>
      <point x="810.0860793992407" y="629.3319668634332"/>
      <point x="836.57143" y="698.33532017932"/>
      <point x="836.57143" y="773.3276799999999" type="curve" smooth="yes"/>
      <point x="836.57143" y="959.42587"/>
      <point x="673.47067" y="1108.64286"/>
      <point x="463.71429" y="1108.64286" type="curve" smooth="yes"/>
      <point x="253.9579" y="1108.64286"/>
      <point x="90.85714" y="959.42587"/>
      <point x="90.85714" y="773.32768" type="curve" smooth="yes"/>
      <point x="90.85714" y="698.33587847389"/>
      <point x="117.34209625199047" y="629.3329942803597"/>
      <point x="162.69246673583984" y="573.6836013793945" type="curve"/>
      <point x="101.69768151521461" y="510.9696134569606"/>
      <point x="65.14285999999993" y="428.6463208976"/>
      <point x="65.14285999999993" y="338.07768" type="curve" smooth="yes"/>
      <point x="65.14286" y="139.77448"/>
      <point x="240.38898" y="-19.0"/>
      <point x="463.71429" y="-19.0" type="curve" smooth="yes"/>
      <point x="687.03959" y="-19.0"/>
      <point x="862.28571" y="139.77448"/>
    </contour>
    <contour>
      <point x="579.42857" y="773.32768" type="curve" smooth="yes"/>
      <point x="579.42857" y="730.27232"/>
      <point x="527.71077" y="695.15536"/>
      <point x="463.71429" y="695.15536" type="curve" smooth="yes"/>
      <point x="399.7178" y="695.15536"/>
      <point x="348.0" y="730.27232"/>
      <point x="348.0" y="773.32768" type="curve" smooth="yes"/>
      <point x="348.0" y="816.38304"/>
      <point x="399.7178" y="851.5"/>
      <point x="463.71429" y="851.5" type="curve" smooth="yes"/>
      <point x="527.71077" y="851.5"/>
      <point x="579.42857" y="816.38304"/>
    </contour>
    <contour>
      <point x="605.14286" y="338.07768" type="curve" smooth="yes"/>
      <point x="605.14286" y="283.02319"/>
      <point x="541.91029" y="238.14286"/>
      <point x="463.71429" y="238.14286" type="curve" smooth="yes"/>
      <point x="385.51828" y="238.14286"/>
      <point x="322.28571" y="283.02319"/>
      <point x="322.28571" y="338.07768" type="curve" smooth="yes"/>
      <point x="322.28571" y="393.13216"/>
      <point x="385.51828" y="438.0125"/>
      <point x="463.71429" y="438.0125" type="curve" smooth="yes"/>
      <point x="541.91029" y="438.0125"/>
      <point x="605.14286" y="393.13216"/>
    </contour>
  </outline>
</glyph>
<glyph name="nine" format="2">
  <advance width="894.0"/>
  <unicode hex="0039"/>
  <outline>
    <contour>
      <point x="839.14286" y="702.85714" type="curve" smooth="yes"/>
      <point x="839.14286" y="919.2866800000002"/>
      <point x="663.4295300000001" y="1095.0"/>
      <point x="447.0" y="1095.0" type="curve" smooth="yes"/>
      <point x="230.57047" y="1095.0"/>
      <point x="54.85714" y="919.28668"/>
      <point x="54.85714" y="702.85714" type="curve" smooth="yes"/>
      <point x="54.85714" y="511.69857121139"/>
      <point x="191.9324438325769" y="352.3030272124246"/>
      <point x="373.067138671875" y="317.6956481933594" type="curve"/>
      <point x="182.17633056640625" y="0" type="line"/>
      <point x="482.1677780151367" y="0" type="line"/>
      <point x="772.8264576330038" y="483.7481835370728" type="line"/>
      <point x="803.6535387032241" y="535.0542188189879"/>
      <point x="839.14286" y="604.5538811778227"/>
    </contour>
    <contour>
      <point x="582.0" y="702.85714" type="curve" smooth="yes"/>
      <point x="582.0" y="628.34862"/>
      <point x="521.50853" y="567.85714"/>
      <point x="447.0" y="567.85714" type="curve" smooth="yes"/>
      <point x="372.49147" y="567.85714"/>
      <point x="312.0" y="628.34862"/>
      <point x="312.0" y="702.85714" type="curve" smooth="yes"/>
      <point x="312.0" y="777.36567"/>
      <point x="372.49147" y="837.85714"/>
      <point x="447.0" y="837.85714" type="curve" smooth="yes"/>
      <point x="521.50853" y="837.85714"/>
      <point x="582.0" y="777.36567"/>
    </contour>
  </outline>
</glyph>
<glyph name="colon" format="2">
  <advance width="499.6363636363637"/>
  <unicode hex="003A"/>
  <outline>
    <contour>
      <point x="445.63636" y="674.40152" type="curve" smooth="yes"/>
      <point x="445.63636" y="782.47651"/>
      <point x="357.89318" y="870.2197"/>
      <point x="249.81818" y="870.2197" type="curve" smooth="yes"/>
      <point x="141.74319" y="870.2197"/>
      <point x="54.0" y="782.47651"/>
      <point x="54.0" y="674.40152" type="curve" smooth="yes"/>
      <point x="54.0" y="566.32652"/>
      <point x="141.74319" y="478.58333"/>
      <point x="249.81818" y="478.58333" type="curve" smooth="yes"/>
      <point x="357.89318" y="478.58333"/>
      <point x="445.63636" y="566.32652"/>
    </contour>
    <contour>
      <point x="445.63636" y="175.48485" type="curve" smooth="yes"/>
      <point x="445.63636" y="283.55984"/>
      <point x="357.89318" y="371.30303"/>
      <point x="249.81818" y="371.30303" type="curve" smooth="yes"/>
      <point x="141.74319" y="371.30303"/>
      <point x="54.0" y="283.55984"/>
      <point x="54.0" y="175.48485" type="curve" smooth="yes"/>
      <point x="54.0" y="67.40985"/>
      <point x="141.74319" y="-20.33333"/>
      <point x="249.81818" y="-20.33333" type="curve" smooth="yes"/>
      <point x="357.89318" y="-20.33333"/>
      <point x="445.63636" y="67.40985"/>
    </contour>
  </outline>
</glyph>
<glyph name="semicolon" format="2">
  <advance width="464.8105280175164"/>
  <unicode hex="003B"/>
  <outline>
    <contour>
      <point x="392.81053" y="678.42857" type="curve" smooth="yes"/>
      <point x="392.81053" y="766.41959"/>
      <point x="321.37298" y="837.85714"/>
      <point x="233.38196" y="837.85714" type="curve" smooth="yes"/>
      <point x="145.39093" y="837.85714"/>
      <point x="73.95339" y="766.41959"/>
      <point x="73.95339" y="678.42857" type="curve" smooth="yes"/>
      <point x="73.95339" y="590.43755"/>
      <point x="145.39093" y="519.0"/>
      <point x="233.38196" y="519.0" type="curve" smooth="yes"/>
      <point x="321.37298" y="519.0"/>
      <point x="392.81053" y="590.43755"/>
    </contour>
    <contour>
      <point x="277.5493927001953" y="-263.57142639160156" type="line"/>
      <point x="346.9761781630623" y="-143.32071018960227"/>
      <point x="361.95338911324126" y="-27.246463548133946"/>
      <point x="361.95339022542316" y="71.42857" type="curve"/>
      <point x="361.9533920288086" y="231.42857360839844" type="line"/>
      <point x="104.81053161621094" y="231.42857360839844" type="line"/>
      <point x="104.81053161621094" y="71.42857360839844" type="line"/>
      <point x="104.81053161621094" y="3.5985467174257337"/>
      <point x="96.19143761330642" y="-63.40689552945689"/>
      <point x="54.85714" y="-135.0" type="curve"/>
    </contour>
  </outline>
</glyph>
<glyph name="less" format="2">
  <advance width="1005.9107142857142"/>
  <unicode hex="003C"/>
  <outline>
    <contour>
      <point x="82.28571319580078" y="636.358039855957" type="line"/>
      <point x="82.28571319580078" y="357.9276809692383" type="line"/>
      <point x="923.625" y="8.571426391601562" type="line"/>
      <point x="923.625" y="287.00179290771484" type="line"/>
      <point x="417.551513671875" y="497.14286041259766" type="line"/>
      <point x="923.625" y="707.2839202880859" type="line"/>
      <point x="923.625" y="985.7142868041992" type="line"/>
    </contour>
  </outline>
</glyph>
<glyph name="equal" format="2">
  <advance width="1016.1818181818182"/>
  <unicode hex="003D"/>
  <outline>
    <contour>
      <point x="66.27273" y="560.45455" type="line"/>
      <point x="949.90909" y="560.45455" type="line"/>
      <point x="949.90909" y="844.2" type="line"/>
      <point x="66.27273" y="844.2" type="line"/>
    </contour>
    <contour>
      <point x="66.27273" y="153.98182" type="line"/>
      <point x="949.90909" y="153.98182" type="line"/>
      <point x="949.90909" y="437.72727" type="line"/>
      <point x="66.27273" y="437.72727" type="line"/>
    </contour>
  </outline>
</glyph>
<glyph name="greater" format="2">
  <advance width="876.1960227272729"/>
  <unicode hex="003E"/>
  <outline>
    <contour>
      <point x="66.2727279663086" y="-16.36363983154297" type="line"/>
      <point x="809.9233016967773" y="357.21817779541016" type="line"/>
      <point x="809.9233016967773" y="640.9636383056641" type="line"/>
      <point x="66.2727279663086" y="1014.5454483032227" type="line"/>
      <point x="66.2727279663086" y="699.6324768066406" type="line"/>
      <point x="476.9058837890625" y="499.0909118652344" type="line"/>
      <point x="66.2727279663086" y="298.5493392944336" type="line"/>
    </contour>
  </outline>
</glyph>
<glyph name="question" format="2">
  <advance width="833.1428571428571"/>
  <unicode hex="003F"/>
  <outline>
    <contour>
      <point x="271.2857131958008" y="351.2857131958008" type="line"/>
      <point x="528.4285736083984" y="351.2857131958008" type="line"/>
      <point x="528.4285736083984" y="406.39036560058594" type="line"/>
      <point x="672.4273370412725" y="453.481202212545"/>
      <point x="776.57143" y="588.995919065"/>
      <point x="776.5714300000001" y="748.6428599999999" type="curve"/>
      <point x="776.57143" y="947.33226"/>
      <point x="615.26084" y="1108.64286"/>
      <point x="416.57143" y="1108.64286" type="curve" smooth="yes"/>
      <point x="217.88202" y="1108.64286"/>
      <point x="56.57143" y="947.33226"/>
      <point x="56.57143" y="748.64286" type="curve"/>
      <point x="313.7142868041992" y="748.6428604125977" type="line"/>
      <point x="313.71429" y="805.41126"/>
      <point x="359.80303" y="851.5"/>
      <point x="416.57143" y="851.5" type="curve" smooth="yes"/>
      <point x="473.3398300000001" y="851.5"/>
      <point x="519.42857" y="805.4112600000001"/>
      <point x="519.42857" y="748.64286" type="curve"/>
      <point x="519.42857" y="703.6718205743006"/>
      <point x="489.6056671529185" y="645.7857083934906"/>
      <point x="403.460915214176" y="645.7857102883876" type="curve"/>
      <point x="271.2857131958008" y="645.7857131958008" type="line"/>
    </contour>
    <contour>
      <point x="559.28571" y="140.42857" type="curve" smooth="yes"/>
      <point x="559.28571" y="228.41959"/>
      <point x="487.84817" y="299.85714"/>
      <point x="399.85714" y="299.85714" type="curve" smooth="yes"/>
      <point x="311.86612" y="299.85714"/>
      <point x="240.42857" y="228.41959"/>
      <point x="240.42857" y="140.42857" type="curve" smooth="yes"/>
      <point x="240.42857" y="52.43755"/>
      <point x="311.86612" y="-19.0"/>
      <point x="399.85714" y="-19.0" type="curve" smooth="yes"/>
      <point x="487.84817" y="-19.0"/>
      <point x="559.28571" y="52.43755"/>
    </contour>
  </outline>
</glyph>
<glyph name="at" format="2">
  <advance width="1389.818181818182"/>
  <unicode hex="0040"/>
  <outline>
    <contour>
      <point x="694.90909" y="319.23268" type="curve" smooth="yes"/>
      <point x="623.05441" y="319.23268"/>
      <point x="564.71753" y="377.56957"/>
      <point x="564.71753" y="449.42424" type="curve"/>
      <point x="564.71753" y="521.27892"/>
      <point x="623.05441" y="579.6158"/>
      <point x="694.90909" y="579.6158" type="curve" smooth="yes"/>
      <point x="766.76377" y="579.6158"/>
      <point x="825.10065" y="521.27892"/>
      <point x="825.10065" y="449.42424" type="curve"/>
      <point x="825.10065" y="377.56957"/>
      <point x="766.76377" y="319.23268"/>
    </contour>
    <contour>
      <point x="228.27273" y="459.42424" type="curve"/>
      <point x="228.27273" y="716.96786"/>
      <point x="437.36547" y="926.06061"/>
      <point x="694.90909" y="926.06061" type="curve" smooth="yes"/>
      <point x="829.1781685689" y="926.06061"/>
      <point x="950.2782684460028" y="869.2290732072879"/>
      <point x="1035.4462203979492" y="778.3279190063477" type="curve"/>
      <point x="825.1006469726562" y="778.3279190063477" type="line"/>
      <point x="825.1006469726562" y="747.9416122436523" type="line"/>
      <point x="781.561942137883" y="780.1232971898139"/>
      <point x="726.6139034436" y="798.6612600000001"/>
      <point x="660.2727299999999" y="798.66126" type="curve" smooth="yes"/>
      <point x="465.59813999999994" y="798.66126"/>
      <point x="307.54708" y="644.0988300000001"/>
      <point x="307.54708" y="449.42424" type="curve"/>
      <point x="307.54708" y="245.1914899999999"/>
      <point x="473.3581599999999" y="100.18723000000003"/>
      <point x="677.59091" y="100.18723" type="curve" smooth="yes"/>
      <point x="779.0118504961501" y="100.18723"/>
      <point x="866.3214315804124" y="143.51346744645707"/>
      <point x="926.2897796630859" y="212.6659393310547" type="curve"/>
      <point x="959.0850266387447" y="151.431126028938"/>
      <point x="1012.56869843905" y="112.45996000000001"/>
      <point x="1086.0727899999997" y="112.45995999999997" type="curve"/>
      <point x="1230.4695" y="112.45996"/>
      <point x="1348.09091" y="267.6769299999999"/>
      <point x="1348.09091" y="459.42424" type="curve"/>
      <point x="1348.09091" y="819.9251000000002"/>
      <point x="1055.4099500000002" y="1112.60606"/>
      <point x="694.90909" y="1112.60606" type="curve" smooth="yes"/>
      <point x="334.40823" y="1112.60606"/>
      <point x="41.72727" y="819.9251"/>
      <point x="41.72727" y="459.42424" type="curve"/>
      <point x="41.72727" y="98.92339"/>
      <point x="334.40823" y="-193.75758"/>
      <point x="694.90909" y="-193.75758" type="curve"/>
      <point x="920.00042" y="-193.75758"/>
      <point x="1118.65171" y="-79.65396"/>
      <point x="1236.12726" y="93.8236" type="curve"/>
      <point x="998.9922714233398" y="93.82360076904297" type="line"/>
      <point x="915.48695" y="30.582679999999982"/>
      <point x="809.82825" y="-7.21212"/>
      <point x="694.90909" y="-7.21212" type="curve"/>
      <point x="437.3654699999999" y="-7.212119999999968"/>
      <point x="228.27273000000002" y="201.88061999999985"/>
    </contour>
    <contour>
      <point x="1161.5454499999998" y="459.42424" type="curve"/>
      <point x="1161.54545" y="385.2810381663446"/>
      <point x="1136.0435069667362" y="299.24291"/>
      <point x="1086.07279" y="299.24291" type="curve"/>
      <point x="1045.7921237159464" y="299.24291"/>
      <point x="1051.7710997331258" y="355.14825002304985"/>
      <point x="1051.7711001567227" y="409.20509" type="curve"/>
      <point x="1051.7711029052734" y="759.9582214355469" type="line"/>
      <point x="1120.25497132671" y="678.751412770998"/>
      <point x="1161.5454499999998" y="573.8717313992202"/>
    </contour>
  </outline>
</glyph>
<glyph name="A" format="2">
  <advance width="1133.9999999999736"/>
  <unicode hex="0041"/>
  <anchor x="566.9999999999999" y="1182.857142857143" name="above" identifier="above"/>
  <anchor x="566.9999999999999" y="-102.85714285714285" name="below" identifier="below"/>
  <anchor x="1126.2857142857142" y="0" name="ogonek" identifier="ogonek"/>
  <outline>
    <contour>
      <point x="7.714286804199219" y="0" type="line"/>
      <point x="283.72776794433594" y="0" type="line"/>
      <point x="343.9104766845703" y="154.28571319580078" type="line"/>
      <point x="790.0895233154297" y="154.28571319580078" type="line"/>
      <point x="850.2722320556641" y="0" type="line"/>
      <point x="1126.2857131958008" y="0" type="line"/>
      <point x="705.0067367553711" y="1080" type="line"/>
      <point x="428.9932632446289" y="1080" type="line"/>
    </contour>
    <contour>
      <point x="444.2149963378906" y="411.42857360839844" type="line"/>
      <point x="567" y="726.2029037475586" type="line"/>
      <point x="689.7850036621094" y="411.42857360839844" type="line"/>
    </contour>
  </outline>
</glyph>
<glyph name="B" format="2">
  <advance width="979.7142857142858"/>
  <unicode hex="0042"/>
  <outline>
    <contour>
      <point x="84.85713958740234" y="0" type="line"/>
      <point x="559.1428604125977" y="0.0" type="line"/>
      <point x="848.0822886593154" y="0.0"/>
      <point x="933.42857" y="198.8120649181185"/>
      <point x="933.42857" y="334.28571" type="curve" smooth="yes"/>
      <point x="933.42857" y="423.46119330733006"/>
      <point x="898.4349334048608" y="504.52796758158445"/>
      <point x="841.4422302246094" y="564.4836120605469" type="curve"/>
      <point x="875.2331487131505" y="616.7021046638235"/>
      <point x="894.8571400000001" y="678.93456615895"/>
      <point x="894.8571400000001" y="745.71429" type="curve" smooth="yes"/>
      <point x="894.85714" y="881.1879350818815"/>
      <point x="809.5108582467177" y="1080.0"/>
      <point x="520.57143" y="1080.0" type="curve"/>
      <point x="84.85713958740234" y="1080" type="line"/>
    </contour>
    <contour>
      <point x="540.9056482254159" y="822.8571395874023" type="line"/>
      <point x="621.3811066413692" y="822.8571395874023"/>
      <point x="637.71429" y="776.9297754004963"/>
      <point x="637.71429" y="745.71429" type="curve" smooth="yes"/>
      <point x="637.71429" y="714.4988045995037"/>
      <point x="621.3811102497676" y="668.5714310039077"/>
      <point x="540.9056514279916" y="668.5714296753374" type="curve"/>
      <point x="342" y="668.5714263916016" type="line"/>
      <point x="342" y="822.8571395874023" type="line"/>
    </contour>
    <contour>
      <point x="579.4770760409532" y="411.42857360839844" type="line"/>
      <point x="659.9525406623653" y="411.42857360839844"/>
      <point x="676.28571" y="365.5011954004963"/>
      <point x="676.28571" y="334.28571" type="curve" smooth="yes"/>
      <point x="676.28571" y="303.0701768664252"/>
      <point x="659.9525366214809" y="257.14285990242803"/>
      <point x="579.4770849766393" y="257.1428600315546" type="curve"/>
      <point x="342" y="257.14286041259766" type="line"/>
      <point x="342" y="411.42857360839844" type="line"/>
    </contour>
  </outline>
</glyph>
<glyph name="D" format="2">
  <advance width="1095.642857142857"/>
  <unicode hex="0044"/>
  <anchor x="524.8214285714284" y="1192.5" name="above" identifier="above"/>
  <anchor x="524.8214285714284" y="-102.85714285714285" name="below" identifier="below"/>
  <anchor x="82.28571428571428" y="544.8214285714286" name="stroke" identifier="stroke"/>
  <outline>
    <contour>
      <point x="82.28571319580078" y="0" type="line"/>
      <point x="478.5357131958008" y="0.0" type="line"/>
      <point x="838.0146130686978" y="0.0"/>
      <point x="1043.35714" y="275.9146328552761"/>
      <point x="1043.35714" y="544.82143" type="curve" smooth="yes"/>
      <point x="1043.35714" y="813.7282271447239"/>
      <point x="838.0146114707975" y="1089.6428596634996"/>
      <point x="478.53571" y="1089.6428600198244" type="curve"/>
      <point x="82.28571319580078" y="1089.6428604125977" type="line"/>
    </contour>
    <contour>
      <point x="478.5357131958008" y="832.5" type="line"/>
      <point x="688.2523508010345" y="832.5"/>
      <point x="786.21429" y="680.4436176602153"/>
      <point x="786.21429" y="544.82143" type="curve" smooth="yes"/>
      <point x="786.21429" y="409.1992373397846"/>
      <point x="688.2523492031341" y="257.14285950802554"/>
      <point x="478.53571" y="257.1428600518641" type="curve"/>
      <point x="339.42857360839844" y="257.14286041259766" type="line"/>
      <point x="339.42857360839844" y="832.5" type="line"/>
    </contour>
  </outline>
</glyph>
<glyph name="E" format="2">
  <advance width="929.5714285714286"/>
  <unicode hex="0045"/>
  <anchor x="471.21428571428567" y="1192.5" name="above" identifier="above"/>
  <anchor x="471.21428571428567" y="-102.85714285714285" name="below" identifier="below"/>
  <anchor x="471.21428571428567" y="0" name="cedilla" identifier="cedilla"/>
  <anchor x="860.1428571428571" y="0" name="ogonek" identifier="ogonek"/>
  <outline>
    <contour>
      <point x="82.28571319580078" y="0" type="line"/>
      <point x="860.1428604125977" y="0" type="line"/>
      <point x="860.1428604125977" y="257.14286041259766" type="line"/>
      <point x="339.42857360839844" y="257.14286041259766" type="line"/>
      <point x="339.42857360839844" y="416.25" type="line"/>
      <point x="828" y="416.25" type="line"/>
      <point x="828" y="673.3928604125977" type="line"/>
      <point x="339.42857360839844" y="673.3928604125977" type="line"/>
      <point x="339.42857360839844" y="832.5" type="line"/>
      <point x="855.8571395874023" y="832.5" type="line"/>
      <point x="855.8571395874023" y="1089.6428604125977" type="line"/>
      <point x="82.28571319580078" y="1089.6428604125977" type="line"/>
    </contour>
  </outline>
</glyph>
<glyph name="F" format="2">
  <advance width="930.2727272727273"/>
  <unicode hex="0046"/>
  <anchor x="477.409090909091" y="1190.4545454545455" name="above" identifier="above"/>
  <anchor x="66.27272727272728" y="0" name="hookleft" identifier="hookleft"/>
  <outline>
    <contour>
      <point x="66.2727279663086" y="0" type="line"/>
      <point x="360.81817626953125" y="0" type="line"/>
      <point x="360.81817626953125" y="363.2727279663086" type="line"/>
      <point x="814.9090881347656" y="363.2727279663086" type="line"/>
      <point x="814.9090881347656" y="630.8181762695312" type="line"/>
      <point x="360.81817626953125" y="630.8181762695312" type="line"/>
      <point x="360.81817626953125" y="815.7272720336914" type="line"/>
      <point x="888.5454483032227" y="815.7272720336914" type="line"/>
      <point x="888.5454483032227" y="1092.2727279663086" type="line"/>
      <point x="66.2727279663086" y="1092.2727279663086" type="line"/>
    </contour>
  </outline>
</glyph>
<glyph name="H" format="2">
  <advance width="1077.5454545454547"/>
  <unicode hex="0048"/>
  <anchor x="538.7727272727274" y="1190.4545454545455" name="above" identifier="above"/>
  <anchor x="538.7727272727274" y="-98.18181818181819" name="below" identifier="below"/>
  <anchor x="213.54545454545456" y="0" name="cedilla" identifier="cedilla"/>
  <anchor x="538.7727272727274" y="879.3409090909091" name="stroke" identifier="stroke"/>
  <outline>
    <contour>
      <point x="66.2727279663086" y="0" type="line"/>
      <point x="360.81817626953125" y="0" type="line"/>
      <point x="360.81817626953125" y="398.86363983154297" type="line"/>
      <point x="716.7272720336914" y="398.86363983154297" type="line"/>
      <point x="716.7272720336914" y="0" type="line"/>
      <point x="1011.2727279663086" y="0" type="line"/>
      <point x="1011.2727279663086" y="1092.2727279663086" type="line"/>
      <point x="716.7272720336914" y="1092.2727279663086" type="line"/>
      <point x="716.7272720336914" y="666.4090881347656" type="line"/>
      <point x="360.81817626953125" y="666.4090881347656" type="line"/>
      <point x="360.81817626953125" y="1092.2727279663086" type="line"/>
      <point x="66.2727279663086" y="1092.2727279663086" type="line"/>
    </contour>
  </outline>
</glyph>
<glyph name="I" format="2">
  <advance width="421.71428571428567"/>
  <unicode hex="0049"/>
  <anchor x="210.85714285714283" y="1192.5" name="above" identifier="above"/>
  <anchor x="210.85714285714283" y="-102.85714285714285" name="below" identifier="below"/>
  <anchor x="339.4285714285714" y="0" name="ogonek" identifier="ogonek"/>
  <anchor x="210.85714285714283" y="544.8214285714286" name="stroke" identifier="stroke"/>
  <outline>
    <contour>
      <point x="82.28571" y="0.0" type="line"/>
      <point x="339.42857" y="0.0" type="line"/>
      <point x="339.42857" y="1089.64286" type="line"/>
      <point x="82.28571" y="1089.64286" type="line"/>
    </contour>
  </outline>
</glyph>
<glyph name="J" format="2">
  <advance width="889.7142857142857"/>
  <unicode hex="004A"/>
  <anchor x="689.1428571428571" y="1182.857142857143" name="above" identifier="above"/>
  <outline>
    <contour>
      <point x="46.28571319580078" y="370.7142868041992" type="line"/>
      <point x="46.28571000000001" y="157.83277999999996"/>
      <point x="219.11848999999992" y="-14.999999999999973"/>
      <point x="432.0" y="-15.0" type="curve" smooth="yes"/>
      <point x="618.696632716118" y="-15.0"/>
      <point x="817.7142911112729" y="124.07501390920515"/>
      <point x="817.7142899098868" y="390.71429" type="curve"/>
      <point x="817.7142868041992" y="1080" type="line"/>
      <point x="560.5714263916016" y="1080" type="line"/>
      <point x="560.5714263916016" y="387.10243165359884" type="line"/>
      <point x="560.5714263916016" y="280.9869826642484"/>
      <point x="491.36097042099743" y="242.14286"/>
      <point x="432.0" y="242.14286" type="curve" smooth="yes"/>
      <point x="361.0395" y="242.14286"/>
      <point x="303.42857" y="299.75378"/>
      <point x="303.42857" y="370.71429" type="curve"/>
    </contour>
  </outline>
</glyph>
<glyph name="K" format="2">
  <advance width="1018.2857142856633"/>
  <unicode hex="004B"/>
  <anchor x="515.5714285714286" y="1182.857142857143" name="above" identifier="above"/>
  <anchor x="515.5714285714286" y="-102.85714285714285" name="below" identifier="below"/>
  <outline>
    <contour>
      <point x="84.85713958740234" y="0" type="line"/>
      <point x="342" y="0" type="line"/>
      <point x="342" y="413.14286041259766" type="line"/>
      <point x="697.1798782348633" y="0" type="line"/>
      <point x="1036.2857131958008" y="0" type="line"/>
      <point x="570.5726737976074" y="541.7142868041992" type="line"/>
      <point x="1033.3381576538086" y="1080" type="line"/>
      <point x="694.2323303222656" y="1080" type="line"/>
      <point x="342" y="670.2857131958008" type="line"/>
      <point x="342" y="1080" type="line"/>
      <point x="84.85713958740234" y="1080" type="line"/>
    </contour>
  </outline>
</glyph>
<glyph name="L" format="2">
  <advance width="889.7142857142857"/>
  <unicode hex="004C"/>
  <anchor x="213.4285714285714" y="1182.857142857143" name="above" identifier="above"/>
  <anchor x="470.5714285714285" y="-102.85714285714285" name="below" identifier="below"/>
  <anchor x="444.85714285714283" y="1080.0" name="caron" identifier="caron"/>
  <anchor x="84.85714285714285" y="540.0" name="stroke" identifier="stroke"/>
  <anchor x="470.5714285714285" y="540.0" name="dotmiddle" identifier="dotmiddle"/>
  <outline>
    <contour>
      <point x="84.85713958740234" y="0" type="line"/>
      <point x="856.2857131958008" y="0" type="line"/>
      <point x="856.2857131958008" y="257.14286041259766" type="line"/>
      <point x="342" y="257.14286041259766" type="line"/>
      <point x="342" y="1080" type="line"/>
      <point x="84.85713958740234" y="1080" type="line"/>
    </contour>
  </outline>
</glyph>
<glyph name="M" format="2">
  <advance width="1219.7142857142858"/>
  <unicode hex="004D"/>
  <anchor x="609.8571428571429" y="1182.857142857143" name="above" identifier="above"/>
  <anchor x="609.8571428571429" y="-102.85714285714285" name="below" identifier="below"/>
  <outline>
    <contour>
      <point x="84.85713958740234" y="0" type="line"/>
      <point x="342" y="0" type="line"/>
      <point x="342" y="546.8661193847656" type="line"/>
      <point x="494.14286041259766" y="231.42857360839844" type="line"/>
      <point x="725.5714263916016" y="231.42857360839844" type="line"/>
      <point x="877.7142868041992" y="546.8661270141602" type="line"/>
      <point x="877.7142868041992" y="0" type="line"/>
      <point x="1134.8571395874023" y="0" type="line"/>
      <point x="1134.8571395874023" y="1080" type="line"/>
      <point x="849.3665237426758" y="1080" type="line"/>
      <point x="609.8571395874023" y="583.4255676269531" type="line"/>
      <point x="370.34776306152344" y="1080" type="line"/>
      <point x="84.85713958740234" y="1080" type="line"/>
    </contour>
  </outline>
</glyph>
<glyph name="N" format="2">
  <advance width="1095.4285714285713"/>
  <unicode hex="004E"/>
  <outline>
    <contour>
      <point x="84.85713958740234" y="0" type="line"/>
      <point x="342" y="0" type="line"/>
      <point x="342" y="616.6732864379883" type="line"/>
      <point x="753.4285736083984" y="0" type="line"/>
      <point x="1010.5714263916016" y="0" type="line"/>
      <point x="1010.5714263916016" y="1080" type="line"/>
      <point x="753.4285736083984" y="1080" type="line"/>
      <point x="753.4285736083984" y="463.3267135620117" type="line"/>
      <point x="342" y="1080" type="line"/>
      <point x="84.85713958740234" y="1080" type="line"/>
    </contour>
  </outline>
</glyph>
<glyph name="O" format="2">
  <advance width="1232.2142857142856"/>
  <unicode hex="004F"/>
  <anchor x="616.1071428571429" y="1192.5" name="above" identifier="above"/>
  <anchor x="616.1071428571429" y="-102.85714285714285" name="below" identifier="below"/>
  <anchor x="616.1071428571429" y="0" name="ogonek" identifier="ogonek"/>
  <anchor x="616.1071428571429" y="544.8214285714286" name="stroke" identifier="stroke"/>
  <anchor x="616.1071428571429" y="1108.6428571428569" name="horn" identifier="horn"/>
  <outline>
    <contour>
      <point x="1179.92857" y="544.82143" type="curve" smooth="yes"/>
      <point x="1179.92857" y="856.00294"/>
      <point x="927.28866" y="1108.64286"/>
      <point x="616.10714" y="1108.64286" type="curve" smooth="yes"/>
      <point x="304.92563" y="1108.64286"/>
      <point x="52.28571" y="856.00294"/>
      <point x="52.28571" y="544.82143" type="curve" smooth="yes"/>
      <point x="52.28571" y="233.63991"/>
      <point x="304.92563" y="-19.0"/>
      <point x="616.10714" y="-19.0" type="curve" smooth="yes"/>
      <point x="927.28866" y="-19.0"/>
      <point x="1179.92857" y="233.63991"/>
    </contour>
    <contour>
      <point x="922.78571" y="544.82143" type="curve" smooth="yes"/>
      <point x="922.78571" y="375.56092"/>
      <point x="785.36765" y="238.14286"/>
      <point x="616.10714" y="238.14286" type="curve" smooth="yes"/>
      <point x="446.84663" y="238.14286"/>
      <point x="309.42857" y="375.56092"/>
      <point x="309.42857" y="544.82143" type="curve" smooth="yes"/>
      <point x="309.42857" y="714.08194"/>
      <point x="446.84663" y="851.5"/>
      <point x="616.10714" y="851.5" type="curve" smooth="yes"/>
      <point x="785.36765" y="851.5"/>
      <point x="922.78571" y="714.08194"/>
    </contour>
  </outline>
</glyph>
<glyph name="P" format="2">
  <advance width="979.7142857142857"/>
  <unicode hex="0050"/>
  <outline>
    <contour>
      <point x="84.85713958740234" y="0" type="line"/>
      <point x="342" y="0" type="line"/>
      <point x="342" y="330.61224365234375" type="line"/>
      <point x="505.87754821777344" y="330.61224365234375" type="line"/>
      <point x="819.563197056474" y="330.61224365234375"/>
      <point x="920.57143" y="550.1915791873978"/>
      <point x="920.57143" y="705.30612" type="curve" smooth="yes"/>
      <point x="920.57143" y="860.4206608126021"/>
      <point x="819.5631988387007" y="1080.0"/>
      <point x="505.87755000000004" y="1080.0" type="curve"/>
      <point x="84.85713958740234" y="1080" type="line"/>
    </contour>
    <contour>
      <point x="515.9106513734857" y="822.8571395874023" type="line"/>
      <point x="641.6476352265465" y="822.8571395874023"/>
      <point x="663.42857" y="752.7189193793913"/>
      <point x="663.42857" y="705.30612" type="curve" smooth="yes"/>
      <point x="663.42857" y="660.7421721794383"/>
      <point x="644.1792259557694" y="587.755101718638"/>
      <point x="515.9106628189222" y="587.7550994760797" type="curve"/>
      <point x="342" y="587.7550964355469" type="line"/>
      <point x="342" y="822.8571395874023" type="line"/>
    </contour>
  </outline>
</glyph>
<glyph name="Q" format="2">
  <advance width="1246.2127312111768"/>
  <unicode hex="0051"/>
  <anchor x="616.1071428571429" y="1192.5" name="above" identifier="above"/>
  <anchor x="616.1071428571429" y="-102.85714285714285" name="below" identifier="below"/>
  <anchor x="616.1071428571429" y="0" name="ogonek" identifier="ogonek"/>
  <anchor x="616.1071428571429" y="544.8214285714286" name="stroke" identifier="stroke"/>
  <anchor x="616.1071428571429" y="1108.6428571428569" name="horn" identifier="horn"/>
  <outline>
    <contour>
      <point x="1258.2127304077148" y="0" type="line"/>
      <point x="1069.4190139770508" y="209.6766586303711" type="line"/>
      <point x="1138.8501158714237" y="303.3827958056103"/>
      <point x="1179.9285699999998" y="419.34277214584"/>
      <point x="1179.92857" y="544.82143" type="curve" smooth="yes"/>
      <point x="1179.92857" y="856.00294"/>
      <point x="927.28866" y="1108.64286"/>
      <point x="616.10714" y="1108.64286" type="curve" smooth="yes"/>
      <point x="304.92563" y="1108.64286"/>
      <point x="52.28571" y="856.00294"/>
      <point x="52.28571" y="544.82143" type="curve" smooth="yes"/>
      <point x="52.28571" y="233.63991"/>
      <point x="304.92563" y="-19.0"/>
      <point x="616.10714" y="-19.0" type="curve" smooth="yes"/>
      <point x="708.76983948104" y="-19.0"/>
      <point x="796.2415875647262" y="3.401869266011804"/>
      <point x="873.3977127075195" y="43.086402893066406" type="curve"/>
      <point x="912.1928863525391" y="0" type="line"/>
    </contour>
    <contour>
      <point x="922.78571" y="544.82143" type="curve" smooth="yes"/>
      <point x="922.78571" y="495.73063502418995"/>
      <point x="911.2263802452225" y="449.31836265123155"/>
      <point x="890.6834335327148" y="408.18263244628906" type="curve"/>
      <point x="859.1736068725586" y="443.17784118652344" type="line"/>
      <point x="513.1537628173828" y="443.17784118652344" type="line"/>
      <point x="689.7373352050781" y="247.06192016601562" type="line"/>
      <point x="666.1471258294844" y="241.2320460710051"/>
      <point x="641.4850453063401" y="238.14286000000004"/>
      <point x="616.1071400000001" y="238.14286000000004" type="curve" smooth="yes"/>
      <point x="446.84663" y="238.14286"/>
      <point x="309.42857" y="375.56092"/>
      <point x="309.42857" y="544.82143" type="curve" smooth="yes"/>
      <point x="309.42857" y="714.08194"/>
      <point x="446.84663" y="851.5"/>
      <point x="616.10714" y="851.5" type="curve" smooth="yes"/>
      <point x="785.36765" y="851.5"/>
      <point x="922.78571" y="714.08194"/>
    </contour>
  </outline>
</glyph>
<glyph name="S" format="2">
  <advance width="975.4285714285713"/>
  <unicode hex="0053"/>
  <outline>
    <contour>
      <point x="42" y="329.35713958740234" type="line"/>
      <point x="42.0" y="139.56174"/>
      <point x="241.38075" y="-15.0"/>
      <point x="487.71429" y="-15.0" type="curve" smooth="yes"/>
      <point x="734.04782" y="-15.0"/>
      <point x="933.42857" y="139.56174"/>
      <point x="933.42857" y="329.35714" type="curve"/>
      <point x="933.42857" y="489.40633"/>
      <point x="780.41391" y="629.22972"/>
      <point x="562.19211" y="667.70811" type="curve"/>
      <point x="460.89759826660156" y="685.5690689086914" type="line"/>
      <point x="381.18499" y="699.62455"/>
      <point x="330.85714" y="728.93128"/>
      <point x="330.85714" y="760.92857" type="curve"/>
      <point x="330.85714" y="803.23136"/>
      <point x="400.8255" y="837.85714"/>
      <point x="487.71429" y="837.85714" type="curve" smooth="yes"/>
      <point x="574.60307" y="837.85714"/>
      <point x="644.57143" y="803.23136"/>
      <point x="644.57143" y="760.92857" type="curve"/>
      <point x="907.7142868041992" y="760.9285736083984" type="line"/>
      <point x="907.71429" y="945.08337"/>
      <point x="719.82346" y="1095.0"/>
      <point x="487.71429" y="1095.0" type="curve" smooth="yes"/>
      <point x="255.60511" y="1095.0"/>
      <point x="67.71429" y="945.08337"/>
      <point x="67.71429" y="760.92857" type="curve"/>
      <point x="67.71429" y="604.58253"/>
      <point x="211.85484" y="468.37233"/>
      <point x="416.24521" y="432.33279" type="curve"/>
      <point x="517.5397186279297" y="414.47183990478516" type="line"/>
      <point x="611.61954" y="397.88302"/>
      <point x="670.28571" y="365.03452"/>
      <point x="670.28571" y="329.35714" type="curve"/>
      <point x="670.28571" y="281.40441"/>
      <point x="588.86001" y="242.14286"/>
      <point x="487.71429" y="242.14286" type="curve" smooth="yes"/>
      <point x="386.56856" y="242.14286"/>
      <point x="305.14286" y="281.40441"/>
      <point x="305.14286" y="329.35714" type="curve"/>
    </contour>
  </outline>
</glyph>
<glyph name="T" format="2">
  <advance width="930.2727272727274"/>
  <unicode hex="0054"/>
  <anchor x="465.1363636363636" y="1190.4545454545455" name="above" identifier="above"/>
  <anchor x="465.1363636363636" y="-98.18181818181819" name="below" identifier="below"/>
  <anchor x="465.1363636363636" y="0" name="cedilla" identifier="cedilla"/>
  <anchor x="465.1363636363636" y="546.1363636363636" name="stroke" identifier="stroke"/>
  <outline>
    <contour>
      <point x="317.86363983154297" y="0" type="line"/>
      <point x="612.4090881347656" y="0" type="line"/>
      <point x="612.4090881347656" y="817.5272674560547" type="line"/>
      <point x="900.8181762695312" y="817.5272674560547" type="line"/>
      <point x="900.8181762695312" y="1092.2727279663086" type="line"/>
      <point x="29.454551696777344" y="1092.2727279663086" type="line"/>
      <point x="29.454551696777344" y="817.5272674560547" type="line"/>
      <point x="317.86363983154297" y="817.5272674560547" type="line"/>
    </contour>
  </outline>
</glyph>
<glyph name="U" format="2">
  <advance width="1030.2857142857142"/>
  <unicode hex="0055"/>
  <anchor x="515.1428571428571" y="1192.5" name="above" identifier="above"/>
  <anchor x="515.1428571428571" y="-102.85714285714285" name="below" identifier="below"/>
  <anchor x="515.1428571428571" y="0" name="ogonek" identifier="ogonek"/>
  <anchor x="960.8571428571428" y="1089.642857142857" name="horn" identifier="horn"/>
  <outline>
    <contour>
      <point x="69.42857360839844" y="446.7142868041992" type="line"/>
      <point x="69.42857360839845" y="145.11741858296625"/>
      <point x="297.3650467842649" y="-18.99999999999997"/>
      <point x="515.14286" y="-19.0" type="curve" smooth="yes"/>
      <point x="732.9206682157352" y="-19.0"/>
      <point x="960.857140175262" y="145.11742018086665"/>
      <point x="960.8571399875523" y="446.71429" type="curve"/>
      <point x="960.8571395874023" y="1089.6428604125977" type="line"/>
      <point x="703.7142868041992" y="1089.6428604125977" type="line"/>
      <point x="703.7142868041992" y="446.7142868041992" type="line"/>
      <point x="703.7142868041992" y="288.63127659296276"/>
      <point x="591.428202778885" y="238.14286"/>
      <point x="515.14286" y="238.14286" type="curve" smooth="yes"/>
      <point x="438.85751222111503" y="238.14286"/>
      <point x="326.5714307516021" y="288.6312781908632"/>
      <point x="326.57142989113765" y="446.71429" type="curve"/>
      <point x="326.57142639160156" y="1089.6428604125977" type="line"/>
      <point x="69.42857360839844" y="1089.6428604125977" type="line"/>
    </contour>
  </outline>
</glyph>
<glyph name="V" format="2">
  <advance width="1098.0"/>
  <unicode hex="0056"/>
  <anchor x="549.0" y="1190.4545454545455" name="above" identifier="above"/>
  <anchor x="549.0" y="-98.18181818181819" name="below" identifier="below"/>
  <outline>
    <contour>
      <point x="-3.2727279663085938" y="1092.2727279663086" type="line"/>
      <point x="392.36390686035156" y="0" type="line"/>
      <point x="705.6360931396484" y="0" type="line"/>
      <point x="1101.2727279663086" y="1092.2727279663086" type="line"/>
      <point x="788.0005264282227" y="1092.2727279663086" type="line"/>
      <point x="549" y="413.9231491088867" type="line"/>
      <point x="309.99947357177734" y="1092.2727279663086" type="line"/>
    </contour>
  </outline>
</glyph>
<glyph name="W" format="2">
  <advance width="1498.2857142857238"/>
  <unicode hex="0057"/>
  <anchor x="749.1428571428571" y="1182.857142857143" name="above" identifier="above"/>
  <anchor x="749.1428571428571" y="-102.85714285714285" name="below" identifier="below"/>
  <outline>
    <contour>
      <point x="315.99906158447266" y="0" type="line"/>
      <point x="582.8599700927734" y="0" type="line"/>
      <point x="749.1428604125977" y="599.1909408569336" type="line"/>
      <point x="915.4257507324219" y="0" type="line"/>
      <point x="1182.2866592407227" y="0" type="line"/>
      <point x="1482" y="1080" type="line"/>
      <point x="1215.1390914916992" y="1080" type="line"/>
      <point x="1048.856201171875" y="480.8090591430664" type="line"/>
      <point x="882.5733108520508" y="1080" type="line"/>
      <point x="615.71240234375" y="1080" type="line"/>
      <point x="449.4295120239258" y="480.8090591430664" type="line"/>
      <point x="283.14662170410156" y="1080" type="line"/>
      <point x="16.28571319580078" y="1080" type="line"/>
    </contour>
  </outline>
</glyph>
<glyph name="X" format="2">
  <advance width="1036.7142857142924"/>
  <unicode hex="0058"/>
  <anchor x="518.3571428571429" y="1192.5" name="above" identifier="above"/>
  <outline>
    <contour>
      <point x="-5.5714263916015625" y="0" type="line"/>
      <point x="304.91554260253906" y="0" type="line"/>
      <point x="518.3571395874023" y="315.41161346435547" type="line"/>
      <point x="731.7987365722656" y="0" type="line"/>
      <point x="1042.2857131958008" y="0" type="line"/>
      <point x="673.6006317138672" y="544.8214340209961" type="line"/>
      <point x="1042.2857131958008" y="1089.6428604125977" type="line"/>
      <point x="731.7987365722656" y="1089.6428604125977" type="line"/>
      <point x="518.3571395874023" y="774.2312469482422" type="line"/>
      <point x="304.91554260253906" y="1089.6428604125977" type="line"/>
      <point x="-5.5714263916015625" y="1089.6428604125977" type="line"/>
      <point x="363.11365509033203" y="544.8214263916016" type="line"/>
    </contour>
  </outline>
</glyph>
<glyph name="Y" format="2">
  <advance width="1025.9999999999998"/>
  <unicode hex="0059"/>
  <anchor x="513.0" y="1192.5" name="above" identifier="above"/>
  <anchor x="513.0" y="-102.85714285714285" name="below" identifier="below"/>
  <outline>
    <contour>
      <point x="384.42857360839844" y="0" type="line"/>
      <point x="641.5714263916016" y="0" type="line"/>
      <point x="641.5714263916016" y="395.8163299560547" type="line"/>
      <point x="1033.7142868041992" y="1089.6428604125977" type="line"/>
      <point x="738.3425064086914" y="1089.6428604125977" type="line"/>
      <point x="513" y="690.9396514892578" type="line"/>
      <point x="287.6574935913086" y="1089.6428604125977" type="line"/>
      <point x="-7.714286804199219" y="1089.6428604125977" type="line"/>
      <point x="384.42857360839844" y="395.8163299560547" type="line"/>
    </contour>
  </outline>
</glyph>
<glyph name="Z" format="2">
  <advance width="916.7142857143256"/>
  <unicode hex="005A"/>
  <anchor x="458.35714285714283" y="1192.5" name="above" identifier="above"/>
  <anchor x="458.35714285714283" y="-102.85714285714285" name="below" identifier="below"/>
  <anchor x="458.35714285714283" y="554.3214285714286" name="stroke" identifier="stroke"/>
  <outline>
    <contour>
      <point x="56.57142639160156" y="0" type="line"/>
      <point x="860.1428604125977" y="0" type="line"/>
      <point x="860.1428604125977" y="257.14286041259766" type="line"/>
      <point x="388.94373321533203" y="257.14286041259766" type="line"/>
      <point x="860.1428604125977" y="832.5" type="line"/>
      <point x="860.1428604125977" y="1089.6428604125977" type="line"/>
      <point x="56.57142639160156" y="1089.6428604125977" type="line"/>
      <point x="56.57142639160156" y="832.5" type="line"/>
      <point x="527.7705535888672" y="832.5" type="line"/>
      <point x="56.57142639160156" y="257.14286041259766" type="line"/>
    </contour>
  </outline>
</glyph>
<glyph name="bracketleft" format="2">
  <advance width="623.4545454545454"/>
  <unicode hex="005B"/>
  <outline>
    <contour>
      <point x="115.36363983154297" y="-129.2727279663086" type="line"/>
      <point x="606.2727279663086" y="-129.2727279663086" type="line"/>
      <point x="606.2727279663086" y="129.2727279663086" type="line"/>
      <point x="409.9090881347656" y="129.2727279663086" type="line"/>
      <point x="409.9090881347656" y="963" type="line"/>
      <point x="606.2727279663086" y="963" type="line"/>
      <point x="606.2727279663086" y="1221.5454483032227" type="line"/>
      <point x="115.36363983154297" y="1221.5454483032227" type="line"/>
    </contour>
  </outline>
</glyph>
<glyph name="backslash" format="2">
  <advance width="909.7487183246121"/>
  <unicode hex="005C"/>
  <outline>
    <contour>
      <point x="843.47599" y="-109.09091" type="line"/>
      <point x="335.24119" y="1287.27273" type="line"/>
      <point x="29.45455" y="1287.27273" type="line"/>
      <point x="537.68935" y="-109.09091" type="line"/>
    </contour>
  </outline>
</glyph>
<glyph name="bracketright" format="2">
  <advance width="575.9999999999999"/>
  <unicode hex="005D"/>
  <outline>
    <contour>
      <point x="442.2857131958008" y="-128.57142639160156" type="line"/>
      <point x="442.2857131958008" y="1279.2857131958008" type="line"/>
      <point x="30.857139587402344" y="1279.2857131958008" type="line"/>
      <point x="30.857139587402344" y="1022.1428604125977" type="line"/>
      <point x="185.14286041259766" y="1022.1428604125977" type="line"/>
      <point x="185.14286041259766" y="128.57142639160156" type="line"/>
      <point x="30.857139587402344" y="128.57142639160156" type="line"/>
      <point x="30.857139587402344" y="-128.57142639160156" type="line"/>
    </contour>
  </outline>
</glyph>
<glyph name="asciicircum" format="2">
  <advance width="842.9010989011502"/>
  <unicode hex="005E"/>
  <outline>
    <contour>
      <point x="50.57142639160156" y="514.2857131958008" type="line"/>
      <point x="328.4845199584961" y="514.2857131958008" type="line"/>
      <point x="421.45054626464844" y="741.0519485473633" type="line"/>
      <point x="514.4165725708008" y="514.2857131958008" type="line"/>
      <point x="792.3296737670898" y="514.2857131958008" type="line"/>
      <point x="560.407096862793" y="1080" type="line"/>
      <point x="282.49400329589844" y="1080" type="line"/>
    </contour>
  </outline>
</glyph>
<glyph name="power" format="2">
  <advance width="900.4675324675325"/>
  <unicode hex="005E"/>
  <outline>
    <contour>
      <point x="33.545448303222656" y="493.7412567138672" type="line"/>
      <point x="317.97959899902344" y="493.7412567138672" type="line"/>
      <point x="450.23377227783203" y="791.5907592773438" type="line"/>
      <point x="582.4879302978516" y="493.7412567138672" type="line"/>
      <point x="866.9220809936523" y="493.7412567138672" type="line"/>
      <point x="571.6064910888672" y="1092.2727279663086" type="line"/>
      <point x="328.8610382080078" y="1092.2727279663086" type="line"/>
    </contour>
  </outline>
</glyph>
<glyph name="underscore" format="2">
  <advance width="834.5454545454546"/>
  <unicode hex="005F"/>
  <outline>
    <contour>
      <point x="0.0" y="-186.54545" type="line"/>
      <point x="834.54545" y="-186.54545" type="line"/>
      <point x="834.54545" y="49.09091" type="line"/>
      <point x="0.0" y="49.09091" type="line"/>
    </contour>
  </outline>
</glyph>
<glyph name="grave" format="2">
  <advance width="610.4338796703126"/>
  <unicode hex="0060"/>
  <outline>
    <contour>
      <point x="544.16115" y="1190.45455" type="line"/>
      <point x="355.95197" y="1517.72727" type="line"/>
      <point x="66.27273" y="1517.72727" type="line"/>
      <point x="303.13033" y="1190.45455" type="line"/>
    </contour>
  </outline>
</glyph>
<glyph name="a" format="2">
  <advance width="1070.2439393939396"/>
  <unicode hex="0061"/>
  <anchor x="551.5671212121213" y="948.0681818181819" name="above" identifier="above"/>
  <anchor x="551.5671212121213" y="-98.18181818181819" name="below" identifier="below"/>
  <anchor x="1008.8803030303033" y="0" name="ogonek" identifier="ogonek"/>
  <outline>
    <contour>
      <point x="529.36379" y="225.57212" type="curve" smooth="yes"/>
      <point x="419.3279" y="225.57212"/>
      <point x="329.99273" y="314.9073"/>
      <point x="329.99273" y="424.94318" type="curve"/>
      <point x="329.99273" y="534.97906"/>
      <point x="419.3279" y="624.31424"/>
      <point x="529.36379" y="624.31424" type="curve" smooth="yes"/>
      <point x="639.39967" y="624.31424"/>
      <point x="728.73485" y="534.97906"/>
      <point x="728.73485" y="424.94318" type="curve"/>
      <point x="728.73485" y="314.9073"/>
      <point x="639.39967" y="225.57212"/>
    </contour>
    <contour>
      <point x="754.4148483276367" y="0" type="line"/>
      <point x="1008.8803024291992" y="0" type="line"/>
      <point x="1008.8803024291992" y="849.886360168457" type="line"/>
      <point x="754.4148483276367" y="849.886360168457" type="line"/>
      <point x="754.4148483276367" y="751.7164611816406" type="line"/>
      <point x="687.6871537996426" y="825.2541535760331"/>
      <point x="593.5291346944001" y="870.2197000000001"/>
      <point x="476.8624500000001" y="870.2197000000001" type="curve" smooth="yes"/>
      <point x="231.10766" y="870.2197"/>
      <point x="32.72727" y="670.69798"/>
      <point x="32.72727" y="424.94318" type="curve"/>
      <point x="32.72727" y="179.18839"/>
      <point x="231.10766" y="-20.33333"/>
      <point x="476.86245" y="-20.33333" type="curve" smooth="yes"/>
      <point x="593.5291346944" y="-20.33333"/>
      <point x="687.6871537996425" y="24.632216423966934"/>
      <point x="754.4148483276367" y="98.17587280273438" type="curve"/>
    </contour>
  </outline>
</glyph>
<glyph name="b" format="2">
  <advance width="1070.2439393939392"/>
  <unicode hex="0062"/>
  <anchor x="593.3814848484848" y="948.0681818181819" name="above" identifier="above"/>
  <anchor x="501.55681818181824" y="-98.18181818181819" name="below" identifier="below"/>
  <outline>
    <contour>
      <point x="61.36363983154297" y="0" type="line"/>
      <point x="315.82908630371094" y="0" type="line"/>
      <point x="315.82908630371094" y="98.16991424560547" type="line"/>
      <point x="382.55678344125073" y="24.632216423966966"/>
      <point x="476.71480005288" y="-20.333329999999975"/>
      <point x="593.38148" y="-20.33332999999999" type="curve" smooth="yes"/>
      <point x="839.13628" y="-20.33333"/>
      <point x="1037.51667" y="179.18839"/>
      <point x="1037.51667" y="424.94318" type="curve"/>
      <point x="1037.51667" y="670.69798"/>
      <point x="839.13628" y="870.2197"/>
      <point x="593.38148" y="870.2197" type="curve" smooth="yes"/>
      <point x="490.97029815640997" y="870.2197"/>
      <point x="405.9031769536698" y="835.5714780108897"/>
      <point x="341.5090866088867" y="777.3593826293945" type="curve"/>
      <point x="341.5090866088867" y="1178.1818237304688" type="line"/>
      <point x="61.36363983154297" y="1178.1818237304688" type="line"/>
    </contour>
    <contour>
      <point x="540.88015" y="624.31424" type="curve" smooth="yes"/>
      <point x="650.91603" y="624.31424"/>
      <point x="740.25121" y="534.97906"/>
      <point x="740.25121" y="424.94318" type="curve"/>
      <point x="740.25121" y="314.9073"/>
      <point x="650.91603" y="225.57212"/>
      <point x="540.88015" y="225.57212" type="curve" smooth="yes"/>
      <point x="430.84427" y="225.57212"/>
      <point x="341.50909" y="314.9073"/>
      <point x="341.50909" y="424.94318" type="curve"/>
      <point x="341.50909" y="534.97906"/>
      <point x="430.84427" y="624.31424"/>
    </contour>
  </outline>
</glyph>
<glyph name="c" format="2">
  <advance width="958.5574297223772"/>
  <unicode hex="0063"/>
  <anchor x="479.49107142857133" y="944.1964285714286" name="above" identifier="above"/>
  <anchor x="479.49107142857133" y="-102.85714285714285" name="below" identifier="below"/>
  <anchor x="484.24107142857133" y="0" name="cedilla" identifier="cedilla"/>
  <outline>
    <contour>
      <point x="484.24107" y="229.14286" type="curve" smooth="yes"/>
      <point x="378.53456" y="229.14286"/>
      <point x="292.71429" y="314.96313"/>
      <point x="292.71429" y="420.66964" type="curve" smooth="yes"/>
      <point x="292.71429" y="526.37615"/>
      <point x="378.53456" y="612.19643"/>
      <point x="484.24107" y="612.19643" type="curve" smooth="yes"/>
      <point x="564.05963" y="612.19643"/>
      <point x="632.53966" y="563.26428"/>
      <point x="661.29435" y="493.78116" type="curve"/>
      <point x="917.84221" y="493.78116" type="line"/>
      <point x="882.96793" y="701.71384"/>
      <point x="701.98281" y="860.33929"/>
      <point x="484.24107" y="860.33929" type="curve" smooth="yes"/>
      <point x="241.58079" y="860.33929"/>
      <point x="44.57143" y="663.32992"/>
      <point x="44.57143" y="420.66964" type="curve" smooth="yes"/>
      <point x="44.57143" y="178.00936"/>
      <point x="241.58079" y="-19.0"/>
      <point x="484.24107" y="-19.0" type="curve" smooth="yes"/>
      <point x="701.98475" y="-19.0"/>
      <point x="882.97116" y="139.62827"/>
      <point x="917.84314" y="347.55813" type="curve"/>
      <point x="661.28736" y="347.55813" type="line"/>
      <point x="632.5286" y="278.0671"/>
      <point x="564.05319" y="229.14286"/>
    </contour>
  </outline>
</glyph>
<glyph name="d" format="2">
  <advance width="1070.2439393939396"/>
  <unicode hex="0064"/>
  <anchor x="476.8624545454545" y="948.0681818181819" name="above" identifier="above"/>
  <anchor x="551.5671212121213" y="-98.18181818181819" name="below" identifier="below"/>
  <anchor x="881.647575757576" y="1014.034090909091" name="stroke" identifier="stroke"/>
  <anchor x="1107.0621212121214" y="1178.1818181818182" name="caron" identifier="caron"/>
  <outline>
    <contour>
      <point x="529.36379" y="225.57212" type="curve" smooth="yes"/>
      <point x="419.3279" y="225.57212"/>
      <point x="329.99273" y="314.9073"/>
      <point x="329.99273" y="424.94318" type="curve"/>
      <point x="329.99273" y="534.97906"/>
      <point x="419.3279" y="624.31424"/>
      <point x="529.36379" y="624.31424" type="curve" smooth="yes"/>
      <point x="639.39967" y="624.31424"/>
      <point x="728.73485" y="534.97906"/>
      <point x="728.73485" y="424.94318" type="curve"/>
      <point x="728.73485" y="314.9073"/>
      <point x="639.39967" y="225.57212"/>
    </contour>
    <contour>
      <point x="754.4148483276367" y="0" type="line"/>
      <point x="1008.8803024291992" y="0" type="line"/>
      <point x="1008.8803024291992" y="1178.1818237304688" type="line"/>
      <point x="728.7348480224609" y="1178.1818237304688" type="line"/>
      <point x="728.7348480224609" y="777.3630142211914" type="line"/>
      <point x="664.3407596441863" y="835.5714780108897"/>
      <point x="579.2736360108" y="870.2197"/>
      <point x="476.8624500000001" y="870.2196999999999" type="curve" smooth="yes"/>
      <point x="231.10766" y="870.2197"/>
      <point x="32.72727" y="670.69798"/>
      <point x="32.72727" y="424.94318" type="curve"/>
      <point x="32.72727" y="179.18839"/>
      <point x="231.10766" y="-20.33333"/>
      <point x="476.86245" y="-20.33333" type="curve" smooth="yes"/>
      <point x="593.5291346944" y="-20.33333"/>
      <point x="687.6871537996425" y="24.632216423966934"/>
      <point x="754.4148483276367" y="98.17587280273438" type="curve"/>
    </contour>
  </outline>
</glyph>
<glyph name="e" format="2">
  <advance width="1032.5003522020204"/>
  <unicode hex="0065"/>
  <anchor x="516.2501761010101" y="948.0681818181819" name="above" identifier="above"/>
  <anchor x="516.2501761010101" y="-98.18181818181819" name="below" identifier="below"/>
  <anchor x="516.2501761010101" y="0" name="cedilla" identifier="cedilla"/>
  <anchor x="516.2501761010101" y="0" name="ogonek" identifier="ogonek"/>
  <outline>
    <contour>
      <point x="999.77308" y="424.94318" type="curve"/>
      <point x="999.77308" y="673.24265"/>
      <point x="783.22222" y="870.2197"/>
      <point x="516.25018" y="870.2197" type="curve"/>
      <point x="249.27813" y="870.2197"/>
      <point x="32.72727" y="673.24265"/>
      <point x="32.72727" y="424.94318" type="curve"/>
      <point x="32.72727" y="176.64371"/>
      <point x="249.27813" y="-20.33333"/>
      <point x="516.25018" y="-20.33333" type="curve"/>
      <point x="734.87572" y="-20.33333"/>
      <point x="919.6883" y="111.76151"/>
      <point x="979.45477" y="295.97344" type="curve"/>
      <point x="713.5304718017578" y="295.9734420776367" type="line"/>
      <point x="670.5206" y="237.98972999999998"/>
      <point x="598.17648" y="203.22386"/>
      <point x="516.25018" y="203.22386" type="curve"/>
      <point x="419.48212715036993" y="203.22386"/>
      <point x="337.10998944307477" y="265.35028871149433"/>
      <point x="306.8781967163086" y="351.87357330322266" type="curve"/>
      <point x="993.3906631469727" y="351.87357330322266" type="line"/>
      <point x="997.58952" y="375.59421"/>
      <point x="999.77308" y="400.00994"/>
    </contour>
    <contour>
      <point x="516.25018" y="629.6220300000001" type="curve"/>
      <point x="609.11921587294" y="629.62203"/>
      <point x="689.6753806166801" y="593.4123365726957"/>
      <point x="729.1478118896484" y="525.8972015380859" type="curve"/>
      <point x="320.8917465209961" y="525.8972015380859" type="line"/>
      <point x="358.3296177543741" y="590.4295525374384"/>
      <point x="431.80896989918995" y="629.62203"/>
    </contour>
  </outline>
</glyph>
<glyph name="f" format="2">
  <advance width="642.9993131868131"/>
  <unicode hex="0066"/>
  <anchor x="376.6888981554159" y="1253.5714285714284" name="above" identifier="above"/>
  <outline>
    <contour>
      <point x="146.9929428100586" y="0" type="line"/>
      <point x="395.1357879638672" y="0" type="line"/>
      <point x="395.1357879638672" y="593.1964263916016" type="line"/>
      <point x="611.285026550293" y="593.1964263916016" type="line"/>
      <point x="611.285026550293" y="841.3392868041992" type="line"/>
      <point x="395.1357879638672" y="841.3392868041992" type="line"/>
      <point x="395.1357879638672" y="858.7297791281989" type="line"/>
      <point x="395.1357879638672" y="902.4903202299266"/>
      <point x="435.4422697315608" y="902.5714299710685"/>
      <point x="442.7956888113118" y="902.5714298213818" type="curve"/>
      <point x="611.285026550293" y="902.5714263916016" type="line"/>
      <point x="611.285026550293" y="1150.7142868041992" type="line"/>
      <point x="454.02100372314453" y="1150.7142868041992" type="line"/>
      <point x="268.2774101412151" y="1150.7142868041992"/>
      <point x="146.99291963170737" y="1025.6646487487587"/>
      <point x="146.99294109066193" y="855.0127534020996" type="curve"/>
      <point x="146.9929428100586" y="841.3392868041992" type="line"/>
      <point x="27.428573608398438" y="841.3392868041992" type="line"/>
      <point x="27.428573608398438" y="593.1964263916016" type="line"/>
      <point x="146.9929428100586" y="593.1964263916016" type="line"/>
    </contour>
  </outline>
</glyph>
<glyph name="g" format="2">
  <advance width="1070.2439393939396"/>
  <unicode hex="0067"/>
  <anchor x="551.5671212121213" y="948.0681818181819" name="above" identifier="above"/>
  <outline>
    <contour>
      <point x="529.36379" y="225.57212" type="curve" smooth="yes"/>
      <point x="419.3279" y="225.57212"/>
      <point x="329.99273" y="314.9073"/>
      <point x="329.99273" y="424.94318" type="curve"/>
      <point x="329.99273" y="534.97906"/>
      <point x="419.3279" y="624.31424"/>
      <point x="529.36379" y="624.31424" type="curve" smooth="yes"/>
      <point x="639.39967" y="624.31424"/>
      <point x="728.73485" y="534.97906"/>
      <point x="728.73485" y="424.94318" type="curve"/>
      <point x="728.73485" y="314.9073"/>
      <point x="639.39967" y="225.57212"/>
    </contour>
    <contour>
      <point x="535.16561" y="-413.06061" type="curve"/>
      <point x="779.7525549528905" y="-413.06061"/>
      <point x="1008.8802989960101" y="-286.735757647999"/>
      <point x="1008.8803000604104" y="65.65409" type="curve"/>
      <point x="1008.8803024291992" y="849.886360168457" type="line"/>
      <point x="754.4148483276367" y="849.886360168457" type="line"/>
      <point x="754.4148483276367" y="751.7164611816406" type="line"/>
      <point x="687.6871537996426" y="825.2541535760331"/>
      <point x="593.5291346944001" y="870.2197000000001"/>
      <point x="476.8624500000001" y="870.2197000000001" type="curve" smooth="yes"/>
      <point x="231.10765999999992" y="870.2197"/>
      <point x="32.72727000000001" y="670.6979800000001"/>
      <point x="32.72727" y="424.94318" type="curve"/>
      <point x="32.72727000000001" y="179.81829999999988"/>
      <point x="231.7375799999999" y="-11.77332999999997"/>
      <point x="476.86245" y="-11.77333" type="curve" smooth="yes"/>
      <point x="578.34854516091" y="-11.77333"/>
      <point x="663.8033903819037" y="22.91867548442518"/>
      <point x="728.7348480224609" y="81.08561706542969" type="curve"/>
      <point x="728.7348480224609" y="60.86985397338867" type="line"/>
      <point x="728.7348480224609" y="-106.68602954859423"/>
      <point x="628.9506339285621" y="-167.15515"/>
      <point x="535.16561" y="-167.15515" type="curve"/>
      <point x="450.7435699999999" y="-167.15515"/>
      <point x="384.31091" y="-119.37535000000003"/>
      <point x="353.02387" y="-49.09091" type="curve"/>
      <point x="69.88758850097656" y="-49.090911865234375" type="line"/>
      <point x="110.57752000000002" y="-270.3605400000001"/>
      <point x="294.4946099999999" y="-413.06060999999994"/>
    </contour>
  </outline>
</glyph>
<glyph name="h" format="2">
  <advance width="945.0000000000001"/>
  <unicode hex="0068"/>
  <anchor x="478.6363636363637" y="1276.3636363636365" name="above" identifier="above"/>
  <anchor x="478.6363636363637" y="-98.18181818181819" name="below" identifier="below"/>
  <anchor x="202.33636363636364" y="1276.3636363636365" name="stem" identifier="stem"/>
  <anchor x="202.33636363636364" y="0" name="cedilla" identifier="cedilla"/>
  <anchor x="202.33636363636364" y="1014.034090909091" name="stroke" identifier="stroke"/>
  <outline>
    <contour>
      <point x="61.36363983154297" y="0" type="line"/>
      <point x="343.30908966064453" y="0" type="line"/>
      <point x="343.30908966064453" y="470.15770142632016" type="line"/>
      <point x="343.30908966064453" y="580.865261362718"/>
      <point x="415.10763180604647" y="622.73424"/>
      <point x="478.63636" y="622.73424" type="curve" smooth="yes"/>
      <point x="542.1650931939536" y="622.73424"/>
      <point x="613.963640324882" y="580.865262781175"/>
      <point x="613.9636399400378" y="470.1577010330152" type="curve"/>
      <point x="613.9636383056641" y="0" type="line"/>
      <point x="895.9090881347656" y="0" type="line"/>
      <point x="895.9090881347656" y="467.40696716308594" type="line"/>
      <point x="895.9090881347656" y="765.0112274728299"/>
      <point x="718.3838959196144" y="870.2197"/>
      <point x="551.2321" y="870.2197" type="curve" smooth="yes"/>
      <point x="459.7875373587999" y="870.2197"/>
      <point x="391.43197002504746" y="838.0871376824434"/>
      <point x="343.30908966064453" y="784.4982223510742" type="curve"/>
      <point x="343.30908966064453" y="1178.1818237304688" type="line"/>
      <point x="61.36363983154297" y="1178.1818237304688" type="line"/>
    </contour>
  </outline>
</glyph>
<glyph name="i" format="2">
  <advance width="406.2857142857143"/>
  <unicode hex="0069"/>
  <outline>
    <contour>
      <point x="362.57143" y="1058.48214" type="curve" smooth="yes"/>
      <point x="362.57143" y="1146.47317"/>
      <point x="291.13388" y="1217.91071"/>
      <point x="203.14286" y="1217.91071" type="curve" smooth="yes"/>
      <point x="115.15183" y="1217.91071"/>
      <point x="43.71429" y="1146.47317"/>
      <point x="43.71429" y="1058.48214" type="curve" smooth="yes"/>
      <point x="43.71429" y="970.49112"/>
      <point x="115.15183" y="899.05357"/>
      <point x="203.14286" y="899.05357" type="curve" smooth="yes"/>
      <point x="291.13388" y="899.05357"/>
      <point x="362.57143" y="970.49112"/>
    </contour>
    <contour>
      <point x="74.57143" y="0.0" type="line"/>
      <point x="331.71429" y="0.0" type="line"/>
      <point x="331.71429" y="841.33929" type="line"/>
      <point x="74.57143" y="841.33929" type="line"/>
    </contour>
  </outline>
</glyph>
<glyph name="j" format="2">
  <advance width="406.2857142857143"/>
  <unicode hex="006A"/>
  <outline>
    <contour>
      <point x="367.07143" y="1058.48214" type="curve" smooth="yes"/>
      <point x="367.07143" y="1146.47317"/>
      <point x="295.63388" y="1217.91071"/>
      <point x="207.64286" y="1217.91071" type="curve" smooth="yes"/>
      <point x="119.65183" y="1217.91071"/>
      <point x="48.21429" y="1146.47317"/>
      <point x="48.21429" y="1058.48214" type="curve" smooth="yes"/>
      <point x="48.21429" y="970.49112"/>
      <point x="119.65183" y="899.05357"/>
      <point x="207.64286" y="899.05357" type="curve" smooth="yes"/>
      <point x="295.63388" y="899.05357"/>
      <point x="367.07143" y="970.49112"/>
    </contour>
    <contour>
      <point x="-156.85713958740234" y="-364.82142639160156" type="line"/>
      <point x="-22.571426391601562" y="-364.82142639160156" type="line"/>
      <point x="152.88868558655622" y="-364.82142639160156"/>
      <point x="331.71429081747124" y="-253.55734871698962"/>
      <point x="331.7142899266913" y="-10.535710000000002" type="curve"/>
      <point x="331.7142868041992" y="841.3392868041992" type="line"/>
      <point x="83.57142639160156" y="841.3392868041992" type="line"/>
      <point x="83.57142639160156" y="-19.555654675240785" type="line"/>
      <point x="83.57142639160156" y="-40.32302166278708"/>
      <point x="82.92450109346058" y="-116.67856800044096"/>
      <point x="-22.571429999999996" y="-116.67857046775536" type="curve"/>
      <point x="-156.85713958740234" y="-116.67857360839844" type="line"/>
    </contour>
  </outline>
</glyph>
<glyph name="k" format="2">
  <advance width="900.8571428570948"/>
  <unicode hex="006B"/>
  <anchor x="388.0408163265306" y="1253.5714285714284" name="above" identifier="above"/>
  <anchor x="388.0408163265306" y="-102.85714285714285" name="below" identifier="below"/>
  <anchor x="198.64285714285714" y="1253.5714285714284" name="stem" identifier="stem"/>
  <anchor x="476.5" y="-102.85714285714285" name="macronbelow" identifier="macronbelow"/>
  <outline>
    <contour>
      <point x="74.57142639160156" y="0" type="line"/>
      <point x="322.7142868041992" y="0" type="line"/>
      <point x="322.7142868041992" y="307.4252395629883" type="line"/>
      <point x="575.9428176879883" y="0" type="line"/>
      <point x="897.4285736083984" y="0" type="line"/>
      <point x="549.8606948852539" y="421.95536041259766" type="line"/>
      <point x="895.3104705810547" y="841.3392868041992" type="line"/>
      <point x="573.8247222900391" y="841.3392868041992" type="line"/>
      <point x="322.7142868041992" y="536.4854736328125" type="line"/>
      <point x="322.7142868041992" y="1150.7142868041992" type="line"/>
      <point x="74.57142639160156" y="1150.7142868041992" type="line"/>
    </contour>
  </outline>
</glyph>
<glyph name="l" format="2">
  <advance width="426.8571428571428"/>
  <unicode hex="006C"/>
  <outline>
    <contour>
      <point x="84.85714" y="0.0" type="line"/>
      <point x="342.0" y="0.0" type="line"/>
      <point x="342.0" y="1131.42857" type="line"/>
      <point x="84.85714" y="1131.42857" type="line"/>
    </contour>
  </outline>
</glyph>
<glyph name="m" format="2">
  <advance width="1416.857142857143"/>
  <unicode hex="006D"/>
  <outline>
    <contour>
      <point x="84.85713958740234" y="0" type="line"/>
      <point x="342" y="0" type="line"/>
      <point x="342" y="458.57142639160156" type="line"/>
      <point x="342.0" y="525.98391"/>
      <point x="396.73038" y="580.71429"/>
      <point x="464.14286" y="580.71429" type="curve" smooth="yes"/>
      <point x="531.55533" y="580.71429"/>
      <point x="586.28571" y="525.98391"/>
      <point x="586.28571" y="458.57143" type="curve"/>
      <point x="586.2857131958008" y="0" type="line"/>
      <point x="843.4285736083984" y="0" type="line"/>
      <point x="843.4285736083984" y="458.57142639160156" type="line"/>
      <point x="843.42857" y="525.98391"/>
      <point x="898.15895" y="580.71429"/>
      <point x="965.57143" y="580.71429" type="curve" smooth="yes"/>
      <point x="1032.98391" y="580.71429"/>
      <point x="1087.71429" y="525.98391"/>
      <point x="1087.71429" y="458.57143" type="curve"/>
      <point x="1087.7142868041992" y="0" type="line"/>
      <point x="1344.8571395874023" y="0" type="line"/>
      <point x="1344.8571395874023" y="458.57142639160156" type="line"/>
      <point x="1344.85714" y="667.90491"/>
      <point x="1174.90491" y="837.85714"/>
      <point x="965.57143" y="837.85714" type="curve" smooth="yes"/>
      <point x="869.49803868748" y="837.85714"/>
      <point x="781.7196827509363" y="802.0593906128283"/>
      <point x="714.8588714599609" y="743.07470703125" type="curve"/>
      <point x="647.9976652921166" y="802.0581426114553"/>
      <point x="560.2179259803601" y="837.85714"/>
      <point x="464.14286" y="837.85714" type="curve" smooth="yes"/>
      <point x="421.41810402449" y="837.85714"/>
      <point x="380.33382963896963" y="830.777541620144"/>
      <point x="342" y="817.7255249023438" type="curve"/>
      <point x="342" y="822.8571395874023" type="line"/>
      <point x="84.85713958740234" y="822.8571395874023" type="line"/>
    </contour>
  </outline>
</glyph>
<glyph name="n" format="2">
  <advance width="945.0000000000001"/>
  <unicode hex="006E"/>
  <anchor x="478.6363636363637" y="948.0681818181819" name="above" identifier="above"/>
  <anchor x="478.6363636363637" y="-98.18181818181819" name="below" identifier="below"/>
  <anchor x="61.36363636363637" y="0" name="hookleft" identifier="hookleft"/>
  <anchor x="895.909090909091" y="0" name="hookright" identifier="hookright"/>
  <outline>
    <contour>
      <point x="61.36363983154297" y="0" type="line"/>
      <point x="343.30908966064453" y="0" type="line"/>
      <point x="343.30908966064453" y="470.15770142632016" type="line"/>
      <point x="343.30908966064453" y="580.865261362718"/>
      <point x="415.10763180604647" y="622.73424"/>
      <point x="478.63636" y="622.73424" type="curve" smooth="yes"/>
      <point x="542.1650931939536" y="622.73424"/>
      <point x="613.963640324882" y="580.865262781175"/>
      <point x="613.9636399400378" y="470.1577010330152" type="curve"/>
      <point x="613.9636383056641" y="0" type="line"/>
      <point x="895.9090881347656" y="0" type="line"/>
      <point x="895.9090881347656" y="467.40696716308594" type="line"/>
      <point x="895.9090881347656" y="765.0112274728299"/>
      <point x="718.3838959196144" y="870.2197"/>
      <point x="551.2321" y="870.2197" type="curve" smooth="yes"/>
      <point x="441.9711316462" y="870.2197"/>
      <point x="365.67260325025217" y="824.3464325849055"/>
      <point x="317.4640884399414" y="750.8077163696289" type="curve"/>
      <point x="317.4640884399414" y="849.886360168457" type="line"/>
      <point x="61.36363983154297" y="849.886360168457" type="line"/>
    </contour>
  </outline>
</glyph>
<glyph name="o" format="2">
  <advance width="1039.3293031649832"/>
  <unicode hex="006F"/>
  <anchor x="519.6646515824916" y="948.0681818181819" name="above" identifier="above"/>
  <anchor x="519.6646515824916" y="-98.18181818181819" name="below" identifier="below"/>
  <anchor x="519.6646515824916" y="0" name="ogonek" identifier="ogonek"/>
  <anchor x="519.6646515824916" y="424.94318181818187" name="stroke" identifier="stroke"/>
  <anchor x="519.6646515824916" y="870.2196969696969" name="horn" identifier="horn"/>
  <outline>
    <contour>
      <point x="519.66465" y="620.88574" type="curve"/>
      <point x="627.80829" y="620.88574"/>
      <point x="715.60721" y="533.08682"/>
      <point x="715.60721" y="424.94318" type="curve"/>
      <point x="715.60721" y="316.79954"/>
      <point x="627.80829" y="229.00062"/>
      <point x="519.66465" y="229.00062" type="curve"/>
      <point x="411.52101" y="229.00062"/>
      <point x="323.72209" y="316.79954"/>
      <point x="323.72209" y="424.94318" type="curve"/>
      <point x="323.72209" y="533.08682"/>
      <point x="411.52101" y="620.88574"/>
    </contour>
    <contour>
      <point x="519.66465" y="870.2197" type="curve"/>
      <point x="250.76447" y="870.2197"/>
      <point x="32.72727" y="673.46995"/>
      <point x="32.72727" y="424.94318" type="curve"/>
      <point x="32.72727" y="176.41642"/>
      <point x="250.76447" y="-20.33333"/>
      <point x="519.66465" y="-20.33333" type="curve"/>
      <point x="788.56483" y="-20.33333"/>
      <point x="1006.60203" y="176.41642"/>
      <point x="1006.60203" y="424.94318" type="curve"/>
      <point x="1006.60203" y="673.46995"/>
      <point x="788.56483" y="870.2197"/>
    </contour>
  </outline>
</glyph>
<glyph name="q" format="2">
  <advance width="1070.2439393939394"/>
  <unicode hex="0071"/>
  <outline>
    <contour>
      <point x="529.36379" y="225.57212" type="curve" smooth="yes"/>
      <point x="419.3279" y="225.57212"/>
      <point x="329.99273" y="314.9073"/>
      <point x="329.99273" y="424.94318" type="curve"/>
      <point x="329.99273" y="534.97906"/>
      <point x="419.3279" y="624.31424"/>
      <point x="529.36379" y="624.31424" type="curve" smooth="yes"/>
      <point x="639.39967" y="624.31424"/>
      <point x="728.73485" y="534.97906"/>
      <point x="728.73485" y="424.94318" type="curve"/>
      <point x="728.73485" y="314.9073"/>
      <point x="639.39967" y="225.57212"/>
    </contour>
    <contour>
      <point x="728.7348480224609" y="-374.31817626953125" type="line"/>
      <point x="1008.8803024291992" y="-374.31817626953125" type="line"/>
      <point x="1008.8803024291992" y="849.886360168457" type="line"/>
      <point x="754.4148483276367" y="849.886360168457" type="line"/>
      <point x="754.4148483276367" y="751.7164611816406" type="line"/>
      <point x="687.6871537996426" y="825.2541535760331"/>
      <point x="593.5291346944001" y="870.2197000000001"/>
      <point x="476.8624500000001" y="870.2197000000001" type="curve" smooth="yes"/>
      <point x="231.10766" y="870.2197"/>
      <point x="32.72727" y="670.69798"/>
      <point x="32.72727" y="424.94318" type="curve"/>
      <point x="32.72727" y="179.18839"/>
      <point x="231.10766" y="-20.33333"/>
      <point x="476.86245" y="-20.33333" type="curve" smooth="yes"/>
      <point x="579.2736360108" y="-20.33333"/>
      <point x="664.3407596441863" y="14.31489198911029"/>
      <point x="728.7348480224609" y="72.52699279785156" type="curve"/>
    </contour>
  </outline>
</glyph>
<glyph name="r" format="2">
  <advance width="649.5267857142857"/>
  <unicode hex="0072"/>
  <anchor x="345.33482142857144" y="944.1964285714286" name="above" identifier="above"/>
  <anchor x="281.4795918367347" y="-102.85714285714285" name="below" identifier="below"/>
  <anchor x="201.21428571428572" y="-102.85714285714285" name="stembelow" identifier="stembelow"/>
  <outline>
    <contour>
      <point x="77.14286041259766" y="0" type="line"/>
      <point x="325.2857131958008" y="0" type="line"/>
      <point x="325.2857131958008" y="349.24107360839844" type="line"/>
      <point x="325.2857131958008" y="505.65072434362884"/>
      <point x="420.8635228422981" y="593.1964372059139"/>
      <point x="569.24107" y="593.1964288773871" type="curve"/>
      <point x="613.5267868041992" y="593.1964263916016" type="line"/>
      <point x="613.5267868041992" y="841.3392868041992" type="line"/>
      <point x="569.2410736083984" y="841.3392868041992" type="line"/>
      <point x="491.23509157250794" y="841.3392868041992"/>
      <point x="410.83214953863364" y="831.097278019554"/>
      <point x="325.2857131958008" y="784.8567504882812" type="curve"/>
      <point x="325.2857131958008" y="841.3392868041992" type="line"/>
      <point x="77.14286041259766" y="841.3392868041992" type="line"/>
    </contour>
  </outline>
</glyph>
<glyph name="s" format="2">
  <advance width="840.3647200000001"/>
  <unicode hex="0073"/>
  <anchor x="415.56471999999997" y="948.0681818181819" name="above" identifier="above"/>
  <anchor x="415.56471999999997" y="-98.18181818181819" name="below" identifier="below"/>
  <anchor x="415.56471999999997" y="0" name="cedilla" identifier="cedilla"/>
  <outline>
    <contour>
      <point x="536.7127075195312" y="583.9038925170898" type="line"/>
      <point x="788.5839920043945" y="583.9038925170898" type="line"/>
      <point x="788.5839920043945" y="592.5402565002441" type="line"/>
      <point x="788.5839920043945" y="781.2668327134141"/>
      <point x="609.4287913727329" y="870.2197"/>
      <point x="415.56472" y="870.2197" type="curve" smooth="yes"/>
      <point x="204.29407999999992" y="870.2197"/>
      <point x="33.31017000000001" y="759.1571900000001"/>
      <point x="33.31017" y="596.17662" type="curve"/>
      <point x="294.41673278808594" y="596.1766204833984" type="line"/>
      <point x="294.41673" y="625.5684"/>
      <point x="348.42319999999995" y="649.65289"/>
      <point x="415.56472" y="649.65289" type="curve" smooth="yes"/>
      <point x="536.3874162117247" y="649.65289"/>
      <point x="536.712712241454" y="607.2667632372094"/>
      <point x="536.7127092650463" y="592.5402562585449" type="curve"/>
    </contour>
    <contour>
      <point x="30.272727966308594" y="260.45520401000977" type="line"/>
      <point x="30.272727966308604" y="68.23722589287246"/>
      <point x="214.38073823111228" y="-20.333329999999975"/>
      <point x="415.56472" y="-20.33333" type="curve" smooth="yes"/>
      <point x="633.7259500000001" y="-20.33333"/>
      <point x="810.09199" y="91.12632999999991"/>
      <point x="810.09199" y="256.81884" type="curve"/>
      <point x="810.09199" y="405.8115950851954"/>
      <point x="698.2299824915372" y="497.901826106005"/>
      <point x="500.8088257326471" y="528.2781188499723" type="curve"/>
      <point x="391.93615031105406" y="545.0298607337678" type="line"/>
      <point x="350.0777003127929" y="551.4704294743755"/>
      <point x="294.41673" y="561.0262717051191"/>
      <point x="294.41673" y="596.17661" type="curve"/>
      <point x="33.31017303466797" y="596.1766204833984" type="line"/>
      <point x="33.31016929047788" y="413.1300780707222"/>
      <point x="210.21417059101606" y="346.8701705878786"/>
      <point x="336.292069402757" y="327.4189290973479" type="curve"/>
      <point x="444.9338789309832" y="310.6577196148103" type="line"/>
      <point x="473.9943614169488" y="306.1742814548049"/>
      <point x="548.98544" y="295.2030321677624"/>
      <point x="548.98544" y="256.81884" type="curve"/>
      <point x="548.98544" y="219.82001199194076"/>
      <point x="479.3098277873813" y="200.23348"/>
      <point x="415.56472" y="200.23348" type="curve" smooth="yes"/>
      <point x="282.528177828105" y="200.23348000000001"/>
      <point x="282.1440028292004" y="244.45176694831557"/>
      <point x="282.1439991681134" y="260.4552039965821" type="curve"/>
      <point x="282.1439971923828" y="269.09156799316406" type="line"/>
      <point x="30.272727966308594" y="269.09156799316406" type="line"/>
    </contour>
  </outline>
</glyph>
<glyph name="t" format="2">
  <advance width="618.0267857142856"/>
  <unicode hex="0074"/>
  <anchor x="300.4419642857143" y="1084.2857142857142" name="above" identifier="above"/>
  <anchor x="368.5063775510204" y="-102.85714285714285" name="below" identifier="below"/>
  <anchor x="255.1033163265306" y="1084.2857142857142" name="stem" identifier="stem"/>
  <anchor x="286.829081632653" y="437.88520408163265" name="stroke" identifier="stroke"/>
  <anchor x="368.5063775510204" y="0" name="cedilla" identifier="cedilla"/>
  <anchor x="482.03188775510205" y="944.1964285714286" name="t_caron" identifier="t_caron"/>
  <outline>
    <contour>
      <point x="131.03189086914062" y="348.5459213256836" type="line"/>
      <point x="131.03189086914062" y="176.28202840587312"/>
      <point x="239.74293428525624" y="2.6922007688501714e-14"/>
      <point x="479.57781" y="-2.4492935982947065e-15" type="curve"/>
      <point x="586.3125" y="0" type="line"/>
      <point x="586.3125" y="248.14286041259766" type="line"/>
      <point x="469.8262587430756" y="248.14286041259766" type="line"/>
      <point x="379.75172680472383" y="248.14286041259766"/>
      <point x="379.17473998757356" y="327.645496885559"/>
      <point x="379.1747402582274" y="347.25720000376043" type="curve"/>
      <point x="379.17474365234375" y="593.1964263916016" type="line"/>
      <point x="586.3125" y="593.1964263916016" type="line"/>
      <point x="586.3125" y="841.3392868041992" type="line"/>
      <point x="379.17474365234375" y="841.3392868041992" type="line"/>
      <point x="379.17474365234375" y="1032.8571395874023" type="line"/>
      <point x="131.03189086914062" y="1032.8571395874023" type="line"/>
      <point x="131.03189086914062" y="841.3392868041992" type="line"/>
      <point x="14.571426391601562" y="841.3392868041992" type="line"/>
      <point x="14.571426391601562" y="593.1964263916016" type="line"/>
      <point x="131.03189086914062" y="593.1964263916016" type="line"/>
    </contour>
  </outline>
</glyph>
<glyph name="u" format="2">
  <advance width="945.0000000000001"/>
  <unicode hex="0075"/>
  <anchor x="466.3636363636364" y="948.0681818181819" name="above" identifier="above"/>
  <anchor x="466.3636363636364" y="-98.18181818181819" name="below" identifier="below"/>
  <anchor x="883.6363636363637" y="0" name="ogonek" identifier="ogonek"/>
  <anchor x="883.6363636363637" y="849.8863636363637" name="horn" identifier="horn"/>
  <outline>
    <contour>
      <point x="49.090911865234375" y="382.4793930053711" type="line"/>
      <point x="49.090911865234396" y="84.87513269562714"/>
      <point x="226.6161040803856" y="-20.33332999999998"/>
      <point x="393.7679" y="-20.33333" type="curve" smooth="yes"/>
      <point x="508.0440240875001" y="-20.33333"/>
      <point x="586.2622618581772" y="29.847814573019818"/>
      <point x="633.9971618652344" y="109.3603744506836" type="curve"/>
      <point x="633.9971618652344" y="0" type="line"/>
      <point x="883.636360168457" y="0" type="line"/>
      <point x="883.636360168457" y="849.886360168457" type="line"/>
      <point x="601.6909103393555" y="849.886360168457" type="line"/>
      <point x="601.6909103393555" y="379.72865881994625" type="line"/>
      <point x="601.6909103393555" y="269.02112763204764"/>
      <point x="529.8923967683951" y="227.15212"/>
      <point x="466.36364" y="227.15212" type="curve" smooth="yes"/>
      <point x="402.83490680604643" y="227.15212"/>
      <point x="331.03635967511804" y="269.0210972188249"/>
      <point x="331.0363600599623" y="379.72865896698477" type="curve"/>
      <point x="331.03636169433594" y="849.886360168457" type="line"/>
      <point x="49.090911865234375" y="849.886360168457" type="line"/>
    </contour>
  </outline>
</glyph>
<glyph name="v" format="2">
  <advance width="990.4821428570667"/>
  <unicode hex="0076"/>
  <anchor x="495.24107142857144" y="944.1964285714286" name="above" identifier="above"/>
  <anchor x="495.24107142857144" y="-102.85714285714285" name="below" identifier="below"/>
  <outline>
    <contour>
      <point x="361.5114288330078" y="0" type="line"/>
      <point x="628.9707107543945" y="0" type="line"/>
      <point x="967.3392868041992" y="841.3392868041992" type="line"/>
      <point x="699.880012512207" y="841.3392868041992" type="line"/>
      <point x="495.24107360839844" y="332.5131378173828" type="line"/>
      <point x="290.6021270751953" y="841.3392868041992" type="line"/>
      <point x="23.142860412597656" y="841.3392868041992" type="line"/>
    </contour>
  </outline>
</glyph>
<glyph name="w" format="2">
  <advance width="1403.9999999999227"/>
  <unicode hex="0077"/>
  <anchor x="702.0" y="925.7142857142857" name="above" identifier="above"/>
  <anchor x="702.0" y="-102.85714285714285" name="below" identifier="below"/>
  <outline>
    <contour>
      <point x="309.3514709472656" y="0" type="line"/>
      <point x="568.5170135498047" y="0" type="line"/>
      <point x="702" y="417.5284118652344" type="line"/>
      <point x="835.4829864501953" y="0" type="line"/>
      <point x="1094.6485290527344" y="0" type="line"/>
      <point x="1357.7142868041992" y="822.8571395874023" type="line"/>
      <point x="1098.5487518310547" y="822.8571395874023" type="line"/>
      <point x="965.0657577514648" y="405.32872009277344" type="line"/>
      <point x="831.5827713012695" y="822.8571395874023" type="line"/>
      <point x="572.4172286987305" y="822.8571395874023" type="line"/>
      <point x="438.93424224853516" y="405.32872009277344" type="line"/>
      <point x="305.4512481689453" y="822.8571395874023" type="line"/>
      <point x="46.28571319580078" y="822.8571395874023" type="line"/>
    </contour>
  </outline>
</glyph>
<glyph name="x" format="2">
  <advance width="966.8571428571686"/>
  <unicode hex="0078"/>
  <anchor x="483.4285714285714" y="925.7142857142857" name="above" identifier="above"/>
  <outline>
    <contour>
      <point x="46.28571319580078" y="0" type="line"/>
      <point x="347.16734313964844" y="0" type="line"/>
      <point x="483.42857360839844" y="195.54015350341797" type="line"/>
      <point x="619.6897964477539" y="0" type="line"/>
      <point x="920.5714263916016" y="0" type="line"/>
      <point x="633.869384765625" y="411.42857360839844" type="line"/>
      <point x="920.5714263916016" y="822.8571395874023" type="line"/>
      <point x="619.6897964477539" y="822.8571395874023" type="line"/>
      <point x="483.42857360839844" y="627.3169860839844" type="line"/>
      <point x="347.16734313964844" y="822.8571395874023" type="line"/>
      <point x="46.28571319580078" y="822.8571395874023" type="line"/>
      <point x="332.98775482177734" y="411.42857360839844" type="line"/>
    </contour>
  </outline>
</glyph>
<glyph name="y" format="2">
  <advance width="992.5714285714286"/>
  <unicode hex="0079"/>
  <anchor x="496.2857142857143" y="925.7142857142857" name="above" identifier="above"/>
  <anchor x="826.8979591836734" y="-102.85714285714285" name="below" identifier="below"/>
  <outline>
    <contour>
      <point x="188.0595474243164" y="-437.14286041259766" type="line"/>
      <point x="454.01497650146484" y="-437.14286041259766" type="line"/>
      <point x="959.1428604125977" y="822.8571395874023" type="line"/>
      <point x="693.1874313354492" y="822.8571395874023" type="line"/>
      <point x="496.2857131958008" y="331.70198822021484" type="line"/>
      <point x="299.3840026855469" y="822.8571395874023" type="line"/>
      <point x="33.42857360839844" y="822.8571395874023" type="line"/>
      <point x="363.30799865722656" y="0" type="line"/>
    </contour>
  </outline>
</glyph>
<glyph name="z" format="2">
  <advance width="812.5714285714284"/>
  <unicode hex="007A"/>
  <anchor x="406.2857142857143" y="944.1964285714286" name="above" identifier="above"/>
  <anchor x="406.2857142857143" y="-102.85714285714285" name="below" identifier="below"/>
  <anchor x="406.2857142857143" y="430.16964285714283" name="stroke" identifier="stroke"/>
  <outline>
    <contour>
      <point x="61.71428680419922" y="0" type="line"/>
      <point x="750.8571395874023" y="0" type="line"/>
      <point x="750.8571395874023" y="248.14286041259766" type="line"/>
      <point x="410.34139251708984" y="248.14286041259766" type="line"/>
      <point x="750.8571395874023" y="593.1964263916016" type="line"/>
      <point x="750.8571395874023" y="841.3392868041992" type="line"/>
      <point x="61.71428680419922" y="841.3392868041992" type="line"/>
      <point x="61.71428680419922" y="593.1964263916016" type="line"/>
      <point x="402.23004150390625" y="593.1964263916016" type="line"/>
      <point x="61.71428680419922" y="248.14286041259766" type="line"/>
    </contour>
  </outline>
</glyph>
<glyph name="braceleft" format="2">
  <advance width="636.8571428571428"/>
  <unicode hex="007B"/>
  <outline>
    <contour>
      <point x="204.85713958740234" y="51.42857360839844" type="line"/>
      <point x="204.85714" y="-118.87663"/>
      <point x="343.12337" y="-257.14286"/>
      <point x="513.42857" y="-257.14286" type="curve"/>
      <point x="616.2857131958008" y="-257.14286041259766" type="line"/>
      <point x="616.2857131958008" y="0" type="line"/>
      <point x="513.4285736083984" y="0" type="line"/>
      <point x="485.04437" y="0.0"/>
      <point x="462.0" y="23.04437"/>
      <point x="462.0" y="51.42857" type="curve"/>
      <point x="462" y="385.7142868041992" type="line"/>
      <point x="462.0" y="452.87039890560004"/>
      <point x="440.50035335656094" y="515.0446203421117"/>
      <point x="404.01441955566406" y="565.7216796875" type="curve"/>
      <point x="440.5003533565609" y="616.383953326274"/>
      <point x="461.99999999999994" y="678.5581771511199"/>
      <point x="462.0" y="745.7142899999999" type="curve"/>
      <point x="462" y="1080" type="line"/>
      <point x="462.0" y="1108.3842"/>
      <point x="485.04437" y="1131.42857"/>
      <point x="513.42857" y="1131.42857" type="curve"/>
      <point x="616.2857131958008" y="1131.4285736083984" type="line"/>
      <point x="616.2857131958008" y="1388.5714263916016" type="line"/>
      <point x="513.4285736083984" y="1388.5714263916016" type="line"/>
      <point x="343.12337" y="1388.57143"/>
      <point x="204.85714" y="1250.30521"/>
      <point x="204.85714" y="1080.0" type="curve"/>
      <point x="204.85713958740234" y="745.7142868041992" type="line"/>
      <point x="204.85714" y="717.33008"/>
      <point x="181.81277" y="694.28571"/>
      <point x="153.42857" y="694.28571" type="curve"/>
      <point x="50.57142639160156" y="694.2857131958008" type="line"/>
      <point x="50.57142639160156" y="437.14286041259766" type="line"/>
      <point x="153.42857360839844" y="437.14286041259766" type="line"/>
      <point x="181.81277" y="437.14286"/>
      <point x="204.85714" y="414.09849"/>
      <point x="204.85714" y="385.71429" type="curve"/>
    </contour>
  </outline>
</glyph>
<glyph name="bar" format="2">
  <advance width="512.5714285714286"/>
  <unicode hex="007C"/>
  <outline>
    <contour>
      <point x="127.71429" y="-128.57143" type="line"/>
      <point x="384.85714" y="-128.57143" type="line"/>
      <point x="384.85714" y="1260.0" type="line"/>
      <point x="127.71429" y="1260.0" type="line"/>
    </contour>
  </outline>
</glyph>
<glyph name="braceright" format="2">
  <advance width="636.8571428571428"/>
  <unicode hex="007D"/>
  <outline>
    <contour>
      <point x="103.42857360839844" y="-128.57142639160156" type="line"/>
      <point x="269.20652636697486" y="-128.57142639160156"/>
      <point x="432.0" y="-25.51201470347749"/>
      <point x="432.0" y="200.0" type="curve"/>
      <point x="432.0" y="379.1590279351633" type="line"/>
      <point x="432.0" y="436.98472789271034"/>
      <point x="484.984918591314" y="437.14286000624304"/>
      <point x="495.25029654444404" y="437.14286004742127" type="curve"/>
      <point x="586.2857131958008" y="437.14286041259766" type="line"/>
      <point x="586.2857131958008" y="694.2857131958008" type="line"/>
      <point x="489.9838357354093" y="694.2857131958008" type="line"/>
      <point x="432.15813577786224" y="694.2857131958008"/>
      <point x="432.0" y="747.2706397486211"/>
      <point x="432.0" y="757.5360177017511" type="curve"/>
      <point x="432.0" y="931.4285736083984" type="line"/>
      <point x="432.0" y="1097.206526366975"/>
      <point x="328.9405847034775" y="1260.0"/>
      <point x="103.42857" y="1260.0" type="curve"/>
      <point x="20.571426391601562" y="1260" type="line"/>
      <point x="20.571426391601562" y="1002.8571395874023" type="line"/>
      <point x="116.8733162581624" y="1002.8571395874023" type="line"/>
      <point x="174.69901621570946" y="1002.8571395874023"/>
      <point x="174.85713999687846" y="949.8722238479953"/>
      <point x="174.85713997628935" y="939.6068458948653" type="curve"/>
      <point x="174.857139627516" y="765.7142868041992" type="line"/>
      <point x="174.8571394908282" y="697.5640303054308"/>
      <point x="185.60811829957953" y="631.3132961063475"/>
      <point x="232.84272003173828" y="565.7068939208984" type="curve"/>
      <point x="185.60751748263496" y="500.1187991718836"/>
      <point x="174.85714009656604" y="433.86052788844734"/>
      <point x="174.8571399598863" y="365.7142899999999" type="curve"/>
      <point x="174.8571396005501" y="186.55525735023602" type="line"/>
      <point x="174.85713948457007" y="128.72955739268897"/>
      <point x="121.87222290255184" y="128.57142994540075"/>
      <point x="111.60684494942181" y="128.57142958527436" type="curve"/>
      <point x="20.571426391601562" y="128.57142639160156" type="line"/>
      <point x="20.571426391601562" y="-128.57142639160156" type="line"/>
    </contour>
  </outline>
</glyph>
<glyph name="tilde" format="2">
  <advance width="1053.2501453949653"/>
  <unicode hex="007E"/>
  <outline>
    <contour>
      <point x="456.6810031139901" y="389.0635837819511" type="line"/>
      <point x="529.2597142204226" y="347.16024917941127"/>
      <point x="581.8142702716002" y="328.92857"/>
      <point x="646.96443" y="328.92857" type="curve"/>
      <point x="824.3656900000001" y="328.92857"/>
      <point x="968.393" y="472.95588999999995"/>
      <point x="968.393" y="650.35714" type="curve"/>
      <point x="711.2501525878906" y="650.3571395874023" type="line"/>
      <point x="711.2501500000002" y="614.8768931958008"/>
      <point x="682.44468" y="586.07143"/>
      <point x="646.96443" y="586.07143" type="curve"/>
      <point x="629.893449222941" y="586.07143"/>
      <point x="617.0800270281496" y="593.3801592110058"/>
      <point x="600.8992368150181" y="602.722142909736" type="curve"/>
      <point x="596.5691098092454" y="605.2221429325118" type="line"/>
      <point x="523.9904005652867" y="647.1254807609507"/>
      <point x="471.43586972839984" y="665.35714"/>
      <point x="406.28571" y="665.35714" type="curve"/>
      <point x="228.88444999999993" y="665.35714"/>
      <point x="84.85714000000002" y="521.32983"/>
      <point x="84.85714" y="343.92857" type="curve"/>
      <point x="342" y="343.92857360839844" type="line"/>
      <point x="342.0" y="379.4088200000001"/>
      <point x="370.80546000000004" y="408.21429"/>
      <point x="406.28571" y="408.21429" type="curve"/>
      <point x="423.3566907770591" y="408.21429"/>
      <point x="436.17008536874647" y="400.9055665918104"/>
      <point x="452.3508759971002" y="391.56358361226614" type="curve"/>
    </contour>
  </outline>
</glyph>
<glyph name="inv_exclamation" format="2">
  <advance width="483.42857142857144"/>
  <unicode hex="00A1"/>
  <outline>
    <contour>
      <point x="82.28571" y="700.91071" type="curve" smooth="yes"/>
      <point x="82.28571" y="612.91969"/>
      <point x="153.72326" y="541.48214"/>
      <point x="241.71429" y="541.48214" type="curve" smooth="yes"/>
      <point x="329.70531" y="541.48214"/>
      <point x="401.14286" y="612.91969"/>
      <point x="401.14286" y="700.91071" type="curve" smooth="yes"/>
      <point x="401.14286" y="788.90174"/>
      <point x="329.70531" y="860.33929"/>
      <point x="241.71429" y="860.33929" type="curve" smooth="yes"/>
      <point x="153.72326" y="860.33929"/>
      <point x="82.28571" y="788.90174"/>
    </contour>
    <contour>
      <point x="370.28571" y="490.05357" type="line"/>
      <point x="113.14286" y="490.05357" type="line"/>
      <point x="113.14286" y="-248.30357" type="line"/>
      <point x="370.28571" y="-248.30357" type="line"/>
    </contour>
  </outline>
</glyph>
<glyph name="invertedexclam" format="2">
  <advance width="488.5714285714285"/>
  <unicode hex="00A1"/>
  <outline>
    <contour>
      <point x="84.85714" y="678.42857" type="curve" smooth="yes"/>
      <point x="84.85714" y="590.43755"/>
      <point x="156.29469" y="519.0"/>
      <point x="244.28571" y="519.0" type="curve" smooth="yes"/>
      <point x="332.27674" y="519.0"/>
      <point x="403.71429" y="590.43755"/>
      <point x="403.71429" y="678.42857" type="curve" smooth="yes"/>
      <point x="403.71429" y="766.41959"/>
      <point x="332.27674" y="837.85714"/>
      <point x="244.28571" y="837.85714" type="curve" smooth="yes"/>
      <point x="156.29469" y="837.85714"/>
      <point x="84.85714" y="766.41959"/>
    </contour>
    <contour>
      <point x="372.85714" y="467.57143" type="line"/>
      <point x="115.71429" y="467.57143" type="line"/>
      <point x="115.71429" y="-257.14286" type="line"/>
      <point x="372.85714" y="-257.14286" type="line"/>
    </contour>
  </outline>
</glyph>
<glyph name="cent" format="2">
  <advance width="951.4721178327287"/>
  <unicode hex="00A2"/>
  <anchor x="481.2857142857142" y="1028.5714285714284" name="above" identifier="above"/>
  <anchor x="481.2857142857142" y="0" name="below" identifier="below"/>
  <anchor x="481.2857142857142" y="102.85714285714285" name="cedilla" identifier="cedilla"/>
  <outline>
    <contour>
      <point x="394.5" y="0" type="line"/>
      <point x="568.0714263916016" y="0" type="line"/>
      <point x="568.0714263916016" y="96.71410369873047" type="line"/>
      <point x="738.9517454945549" y="132.09857046919365"/>
      <point x="872.55075177164" y="269.87369261824006"/>
      <point x="901.7578299999999" y="442.93283" type="curve"/>
      <point x="646.0930862426758" y="442.9328308105469" type="line"/>
      <point x="630.25370728875" y="406.4346908344"/>
      <point x="602.6460861044739" y="376.2150295616415"/>
      <point x="568.0714263916016" y="357.09356689453125" type="curve"/>
      <point x="568.0714263916016" y="671.4848327636719" type="line"/>
      <point x="602.6451546626563" y="652.3564088468586"/>
      <point x="630.2522533185601" y="622.13710827043"/>
      <point x="646.0918200000001" y="585.6386" type="curve"/>
      <point x="901.755500793457" y="585.6386032104492" type="line"/>
      <point x="872.54347223718" y="758.70331000945"/>
      <point x="738.9469987284127" y="896.4736379359391"/>
      <point x="568.0714263916016" y="931.857063293457" type="curve"/>
      <point x="568.0714263916016" y="1028.5714263916016" type="line"/>
      <point x="394.5" y="1028.5714263916016" type="line"/>
      <point x="394.5" y="931.8592224121094" type="line"/>
      <point x="200.7028233071322" y="891.7272062987877"/>
      <point x="54.857140000000044" y="719.9041060690801"/>
      <point x="54.8571400000001" y="514.28571" type="curve" smooth="yes"/>
      <point x="54.85714" y="308.66732266754"/>
      <point x="200.70282330713218" y="136.8442235415995"/>
      <point x="394.5" y="96.718017578125" type="curve"/>
    </contour>
    <contour>
      <point x="301.71429" y="514.28571" type="curve" smooth="yes"/>
      <point x="301.71429" y="581.9260449433"/>
      <point x="339.19348108792235" y="640.8817187790695"/>
      <point x="394.5" y="671.4830703735352" type="curve"/>
      <point x="394.5" y="357.0796661376953" type="line"/>
      <point x="339.19348108792235" y="387.68971021280447"/>
      <point x="301.71429" y="446.6453818816"/>
    </contour>
  </outline>
</glyph>
<glyph name="pound" format="2">
  <advance width="972.8181818181819"/>
  <unicode hex="00A3"/>
  <outline>
    <contour>
      <point x="54" y="0" type="line"/>
      <point x="903.5454483032227" y="0" type="line"/>
      <point x="903.5454483032227" y="267.54544830322266" type="line"/>
      <point x="458.7272720336914" y="267.54544830322266" type="line"/>
      <point x="458.7272720336914" y="424.3030319213867" type="line"/>
      <point x="771.2727279663086" y="424.3030319213867" type="line"/>
      <point x="771.2727279663086" y="610.8484802246094" type="line"/>
      <point x="458.7272720336914" y="610.8484802246094" type="line"/>
      <point x="458.7272720336914" y="749.6559148673335" type="line"/>
      <point x="458.7272720336914" y="813.3998508675852"/>
      <point x="502.0664429468298" y="836.06061"/>
      <point x="535.36364" y="836.06061" type="curve" smooth="yes"/>
      <point x="571.7052345477948" y="836.06061"/>
      <point x="612.0" y="809.080189135474"/>
      <point x="612.0" y="755.7878798876953" type="curve"/>
      <point x="612" y="747.1515197753906" type="line"/>
      <point x="906.5454483032227" y="747.1515197753906" type="line"/>
      <point x="906.5454483032227" y="755.7878799438477" type="line"/>
      <point x="906.5454483032227" y="972.7809984202194"/>
      <point x="732.5253387201797" y="1112.60606"/>
      <point x="535.36364" y="1112.60606" type="curve" smooth="yes"/>
      <point x="359.59057936844476" y="1112.60606"/>
      <point x="164.18181398781292" y="998.8754520136058"/>
      <point x="164.18182050216384" y="739.42424" type="curve"/>
      <point x="164.18182373046875" y="610.8484802246094" type="line"/>
      <point x="54" y="610.8484802246094" type="line"/>
      <point x="54" y="424.3030319213867" type="line"/>
      <point x="164.18182373046875" y="424.3030319213867" type="line"/>
      <point x="164.18182373046875" y="267.54544830322266" type="line"/>
      <point x="54" y="267.54544830322266" type="line"/>
    </contour>
  </outline>
</glyph>
<glyph name="currency" format="2">
  <advance width="926.4752644824459"/>
  <unicode hex="00A4"/>
  <outline>
    <contour>
      <point x="851.874" y="546.13636" type="curve" smooth="yes"/>
      <point x="851.874" y="612.94595651875"/>
      <point x="834.9793104313102" y="675.8407235305122"/>
      <point x="805.2326965332031" y="730.7680206298828" type="curve"/>
      <point x="909.2934494018555" y="834.8287811279297" type="line"/>
      <point x="751.9300537109375" y="992.1921768188477" type="line"/>
      <point x="647.8682098388672" y="888.1303329467773" type="line"/>
      <point x="592.9339164915591" y="917.8802099983264"/>
      <point x="530.0429366337501" y="934.77273"/>
      <point x="463.2376300000001" y="934.7727299999999" type="curve" smooth="yes"/>
      <point x="396.43189749232" y="934.77273"/>
      <point x="333.54054106217836" y="917.8799930478939"/>
      <point x="278.60597229003906" y="888.1314315795898" type="curve"/>
      <point x="174.54521942138672" y="992.1921768188477" type="line"/>
      <point x="17.18182373046875" y="834.8287811279297" type="line"/>
      <point x="121.24365997314453" y="730.7669372558594" type="line"/>
      <point x="91.49639349881066" y="675.842338934429"/>
      <point x="74.60126999999996" y="612.94681449575"/>
      <point x="74.60126999999997" y="546.13636" type="curve" smooth="yes"/>
      <point x="74.60127" y="479.32676659599997"/>
      <point x="91.49595956868983" y="416.43200172882104"/>
      <point x="121.2425765991211" y="361.50469970703125" type="curve"/>
      <point x="17.18182373046875" y="257.4439468383789" type="line"/>
      <point x="174.54521942138672" y="100.08055114746094" type="line"/>
      <point x="278.60706329345703" y="204.14238739013672" type="line"/>
      <point x="333.5413487674988" y="174.3925200016736"/>
      <point x="396.43232648079993" y="157.5"/>
      <point x="463.23763" y="157.5" type="curve" smooth="yes"/>
      <point x="530.04336562225" y="157.5"/>
      <point x="592.934724196907" y="174.3927369521061"/>
      <point x="647.8692932128906" y="204.14130401611328" type="curve"/>
      <point x="751.9300537109375" y="100.08055114746094" type="line"/>
      <point x="909.2934494018555" y="257.4439468383789" type="line"/>
      <point x="805.2316055297852" y="361.5057907104492" type="line"/>
      <point x="834.9788765011893" y="416.4303863249593"/>
      <point x="851.874" y="479.3259086190399"/>
    </contour>
    <contour>
      <point x="593.32854" y="546.13636" type="curve" smooth="yes"/>
      <point x="593.32854" y="474.33724"/>
      <point x="535.03676" y="416.04545"/>
      <point x="463.23763" y="416.04545" type="curve" smooth="yes"/>
      <point x="391.43851" y="416.04545"/>
      <point x="333.14672" y="474.33724"/>
      <point x="333.14672" y="546.13636" type="curve" smooth="yes"/>
      <point x="333.14672" y="617.93549"/>
      <point x="391.43851" y="676.22727"/>
      <point x="463.23763" y="676.22727" type="curve" smooth="yes"/>
      <point x="535.03676" y="676.22727"/>
      <point x="593.32854" y="617.93549"/>
    </contour>
  </outline>
</glyph>
<glyph name="yen" format="2">
  <advance width="1053.0000000000002"/>
  <unicode hex="00A5"/>
  <outline>
    <contour>
      <point x="109.2272720336914" y="155.92208099365234" type="line"/>
      <point x="386.4272689819336" y="155.92208099365234" type="line"/>
      <point x="386.4272689819336" y="0" type="line"/>
      <point x="666.5727310180664" y="0" type="line"/>
      <point x="666.5727310180664" y="155.92208099365234" type="line"/>
      <point x="943.7727279663086" y="155.92208099365234" type="line"/>
      <point x="943.7727279663086" y="342.467529296875" type="line"/>
      <point x="666.5727310180664" y="342.467529296875" type="line"/>
      <point x="666.5727310180664" y="391.5584411621094" type="line"/>
      <point x="943.7727279663086" y="391.5584411621094" type="line"/>
      <point x="943.7727279663086" y="578.1038970947266" type="line"/>
      <point x="776.8539123535156" y="578.1038970947266" type="line"/>
      <point x="1080.8181762695312" y="1092.2727279663086" type="line"/>
      <point x="761.203369140625" y="1092.2727279663086" type="line"/>
      <point x="526.5" y="691.9528274536133" type="line"/>
      <point x="291.796630859375" y="1092.2727279663086" type="line"/>
      <point x="-27.81817626953125" y="1092.2727279663086" type="line"/>
      <point x="276.1460876464844" y="578.1038970947266" type="line"/>
      <point x="109.2272720336914" y="578.1038970947266" type="line"/>
      <point x="109.2272720336914" y="391.5584411621094" type="line"/>
      <point x="386.4272689819336" y="391.5584411621094" type="line"/>
      <point x="386.4272689819336" y="342.467529296875" type="line"/>
      <point x="109.2272720336914" y="342.467529296875" type="line"/>
    </contour>
  </outline>
</glyph>
<glyph name="brokenbar" format="2">
  <advance width="508.90909090909093"/>
  <unicode hex="00A6"/>
  <outline>
    <contour>
      <point x="107.18182" y="662.72727" type="line"/>
      <point x="401.72727" y="662.72727" type="line"/>
      <point x="401.72727" y="1325.45455" type="line"/>
      <point x="107.18182" y="1325.45455" type="line"/>
    </contour>
    <contour>
      <point x="107.18182" y="-147.27273" type="line"/>
      <point x="401.72727" y="-147.27273" type="line"/>
      <point x="401.72727" y="515.45455" type="line"/>
      <point x="107.18182" y="515.45455" type="line"/>
    </contour>
  </outline>
</glyph>
<glyph name="section" format="2">
  <advance width="802.2857142857144"/>
  <unicode hex="00A7"/>
  <outline>
    <contour>
      <point x="401.14286" y="444.94286" type="curve" smooth="yes"/>
      <point x="387.61553616581" y="444.94286"/>
      <point x="374.97646981308054" y="447.0565844402894"/>
      <point x="364.1810073852539" y="450.76068115234375" type="curve"/>
      <point x="358.8045349121094" y="452.78221130371094" type="line"/>
      <point x="358.22090911865234" y="453.01134490966797" type="line"/>
      <point x="354.38879587987174" y="454.6195493504094"/>
      <point x="350.8506454228032" y="456.4439562096436"/>
      <point x="347.6593246459961" y="458.45848846435547" type="curve"/>
      <point x="346.68890380859375" y="459.1172866821289" type="line"/>
      <point x="343.2920455932617" y="461.4988708496094" type="line"/>
      <point x="341.9207458496094" y="462.62103271484375" type="line"/>
      <point x="339.43719482421875" y="464.7790298461914" type="line"/>
      <point x="338.09490966796875" y="466.1223602294922" type="line"/>
      <point x="336.1307907104492" y="468.2852325439453" type="line"/>
      <point x="334.9590377807617" y="469.75640869140625" type="line"/>
      <point x="333.40909576416016" y="472.0106658935547" type="line"/>
      <point x="332.4780807495117" y="473.54219818115234" type="line"/>
      <point x="331.30770111083984" y="475.97127532958984" type="line"/>
      <point x="330.6629180908203" y="477.4740905761719" type="line"/>
      <point x="329.8582000732422" y="480.2942428588867" type="line"/>
      <point x="329.53907012939453" y="481.5387268066406" type="line"/>
      <point x="329.14286041259766" y="485.74285888671875" type="line"/>
      <point x="329.14286" y="508.19452"/>
      <point x="361.28757" y="526.54286"/>
      <point x="401.14286" y="526.54286" type="curve" smooth="yes"/>
      <point x="414.80194542293" y="526.54286"/>
      <point x="427.5553851184874" y="524.3877567878708"/>
      <point x="438.41963958740234" y="520.6240005493164" type="curve"/>
      <point x="442.46641690496" y="519.2508635084799"/>
      <point x="446.38480977895154" y="517.5825665017613"/>
      <point x="449.96602630615234" y="515.7072830200195" type="curve"/>
      <point x="450.4771957397461" y="515.4174880981445" type="line"/>
      <point x="454.7972640991211" y="512.9112319946289" type="line"/>
      <point x="456.2388458251953" y="511.9325637817383" type="line"/>
      <point x="459.1540069580078" y="509.8556365966797" type="line"/>
      <point x="460.6823959350586" y="508.6049270629883" type="line"/>
      <point x="463.00016021728516" y="506.55493927001953" type="line"/>
      <point x="464.40262603759766" y="505.15138244628906" type="line"/>
      <point x="466.2998962402344" y="503.0184783935547" type="line"/>
      <point x="467.4830551147461" y="501.5329818725586" type="line"/>
      <point x="469.0198211669922" y="499.23949432373047" type="line"/>
      <point x="469.9250717163086" y="497.75035095214844" type="line"/>
      <point x="471.13800048828125" y="495.14156341552734" type="line"/>
      <point x="471.7069396972656" y="493.81553649902344" type="line"/>
      <point x="472.74951934814453" y="489.93580627441406" type="line"/>
      <point x="472.7985382080078" y="489.7446594238281" type="line"/>
      <point x="473.14286041259766" y="485.74285888671875" type="line"/>
      <point x="473.14286" y="463.29119"/>
      <point x="440.99815" y="444.94286"/>
    </contour>
    <contour>
      <point x="78.85713958740234" y="147" type="line"/>
      <point x="78.85714" y="-2.16245"/>
      <point x="223.22287" y="-123.51429"/>
      <point x="401.14286" y="-123.51429" type="curve" smooth="yes"/>
      <point x="579.06285" y="-123.51429"/>
      <point x="723.42857" y="-2.16245"/>
      <point x="723.42857" y="147.0" type="curve"/>
      <point x="723.42857" y="205.91094766728"/>
      <point x="700.91835831833" y="260.5082681910474"/>
      <point x="662.7117767333984" y="304.97425842285156" type="curve"/>
      <point x="705.0998447993352" y="355.12026181257045"/>
      <point x="730.2857099999999" y="417.80327213462004"/>
      <point x="730.2857099999999" y="485.74286" type="curve"/>
      <point x="730.28571" y="487.53627131552"/>
      <point x="730.2681602526046" y="489.32601979725194"/>
      <point x="730.2332077026367" y="491.08829498291016" type="curve"/>
      <point x="730.28571" y="488.28166834956"/>
      <point x="730.2505475235552" y="490.8131595787219"/>
      <point x="730.1806335449219" y="492.90392303466797" type="curve"/>
      <point x="730.152003079061" y="494.3697419603013"/>
      <point x="730.1175423267281" y="495.40197274813005"/>
      <point x="730.0772857666016" y="496.4097595214844" type="curve"/>
      <point x="730.0454158114088" y="497.2501992192471"/>
      <point x="730.0099042367606" y="498.06570692081226"/>
      <point x="729.9707641601562" y="498.6162872314453" type="curve"/>
      <point x="729.9250838923297" y="499.829823316518"/>
      <point x="729.8744561686237" y="500.7797424765518"/>
      <point x="729.8189239501953" y="501.7059020996094" type="curve"/>
      <point x="729.7689250104702" y="502.58443499410333"/>
      <point x="729.7149441890508" y="503.43767051666083"/>
      <point x="729.6569900512695" y="504.10105895996094" type="curve"/>
      <point x="729.5954890151882" y="505.1922128188958"/>
      <point x="729.5295112211032" y="506.09567878184305"/>
      <point x="729.4590682983398" y="506.9764709472656" type="curve"/>
      <point x="729.3904009739896" y="507.8808408067178"/>
      <point x="729.317516778063" y="508.75959136992856"/>
      <point x="729.2404251098633" y="509.4904479980469" type="curve"/>
      <point x="729.1639938648696" y="510.50424402198473"/>
      <point x="729.0834195335643" y="511.3732785399316"/>
      <point x="728.9987182617188" y="512.2201995849609" type="curve"/>
      <point x="728.9107991338082" y="513.1459002046739"/>
      <point x="728.8184357848851" y="514.0459534712044"/>
      <point x="728.7216415405273" y="514.8251495361328" type="curve"/>
      <point x="728.6312485846754" y="515.7805123286813"/>
      <point x="728.5369926281902" y="516.6189664445903"/>
      <point x="728.4388961791992" y="517.4360198974609" type="curve"/>
      <point x="728.3309779921077" y="518.3820543538626"/>
      <point x="728.2183925900151" y="519.3023899962637"/>
      <point x="728.1011657714844" y="520.1204605102539" type="curve"/>
      <point x="727.9979288227782" y="521.026246593248"/>
      <point x="727.891085690784" y="521.8347390939747"/>
      <point x="727.7806701660156" y="522.6225509643555" type="curve"/>
      <point x="727.6519130491355" y="523.589048570542"/>
      <point x="727.5182841894427" y="524.5295216269665"/>
      <point x="727.3798217773438" y="525.3811874389648" type="curve"/>
      <point x="727.2649031710562" y="526.2422815207971"/>
      <point x="727.146642517038" y="527.0206424799164"/>
      <point x="727.0250396728516" y="527.7792129516602" type="curve"/>
      <point x="726.8746549451652" y="528.7658704710947"/>
      <point x="726.7192016385712" y="529.7260717682295"/>
      <point x="726.5587005615234" y="530.6078109741211" type="curve"/>
      <point x="726.4332412084187" y="531.4275297367408"/>
      <point x="726.3047103752582" y="532.1757640252818"/>
      <point x="726.1730728149414" y="532.9050140380859" type="curve"/>
      <point x="726.0001639089114" y="533.912137179569"/>
      <point x="725.8219120796833" y="534.8927614334392"/>
      <point x="725.6384048461914" y="535.8029403686523" type="curve"/>
      <point x="725.5037630147186" y="536.5823228400482"/>
      <point x="725.366252453126" y="537.2996660728046"/>
      <point x="725.2258987426758" y="537.9986801147461" type="curve"/>
      <point x="725.0294140784403" y="539.0272116702586"/>
      <point x="724.8273894387984" y="540.02867638472"/>
      <point x="724.6198348999023" y="540.9664459228516" type="curve"/>
      <point x="724.4773033626517" y="541.7065019674397"/>
      <point x="724.3322072676347" y="542.3919064751005"/>
      <point x="724.1845626831055" y="543.0595245361328" type="curve"/>
      <point x="723.9635575336837" y="544.10959792177"/>
      <point x="723.7367536316804" y="545.1322942633095"/>
      <point x="723.5041580200195" y="546.0966949462891" type="curve"/>
      <point x="723.3552219203839" y="546.7974174049424"/>
      <point x="723.203886410792" y="547.4503363080078"/>
      <point x="723.0501480102539" y="548.0866851806641" type="curve"/>
      <point x="722.803393501742" y="549.1595274066146"/>
      <point x="722.550528613749" y="550.2047911571248"/>
      <point x="722.2916488647461" y="551.1960144042969" type="curve"/>
      <point x="722.1379318899291" y="551.8567741816817"/>
      <point x="721.9820366860839" y="552.4754559992925"/>
      <point x="721.8240203857422" y="553.0782318115234" type="curve"/>
      <point x="721.550052169774" y="554.1756343446863"/>
      <point x="721.2697273670163" y="555.2448755344727"/>
      <point x="720.9830627441406" y="556.2639312744141" type="curve"/>
      <point x="720.8263679485467" y="556.8836179573434"/>
      <point x="720.6677310514838" y="557.4662106325935"/>
      <point x="720.5072631835938" y="558.0335693359375" type="curve"/>
      <point x="720.2049059983742" y="559.1558475529021"/>
      <point x="719.8958065401378" y="560.2498259320206"/>
      <point x="719.5800476074219" y="561.2967910766602" type="curve"/>
      <point x="719.4219653951286" y="561.8753288855997"/>
      <point x="719.2622433560698" y="562.420949253479"/>
      <point x="719.1008911132812" y="562.9523468017578" type="curve"/>
      <point x="718.7687058453993" y="564.1005246263535"/>
      <point x="718.429455976146" y="565.2199575268227"/>
      <point x="718.0831832885742" y="566.2951889038086" type="curve"/>
      <point x="717.9256790042753" y="566.8312973184583"/>
      <point x="717.7666719898209" y="567.3388007866334"/>
      <point x="717.6062240600586" y="567.8330917358398" type="curve"/>
      <point x="717.2426554890566" y="569.0083361562856"/>
      <point x="716.8716720754356" y="570.1543736415144"/>
      <point x="716.4932861328125" y="571.2585906982422" type="curve"/>
      <point x="716.338250259089" y="571.7515102794451"/>
      <point x="716.1820221147099" y="572.2192007219081"/>
      <point x="716.0245590209961" y="572.6746444702148" type="curve"/>
      <point x="715.6281172035513" y="573.8776175536808"/>
      <point x="715.2238230051845" y="575.051122527963"/>
      <point x="714.8116912841797" y="576.1849517822266" type="curve"/>
      <point x="714.6611554314821" y="576.6337058238511"/>
      <point x="714.5096039402459" y="577.060693062333"/>
      <point x="714.3569564819336" y="577.4766006469727" type="curve"/>
      <point x="713.925757524165" y="578.7088417595434"/>
      <point x="713.4863332649473" y="579.9110923081442"/>
      <point x="713.0387496948242" y="581.0751266479492" type="curve"/>
      <point x="712.8949790398125" y="581.4783225920847"/>
      <point x="712.7504415891395" y="581.8627307220211"/>
      <point x="712.6050491333008" y="582.2369689941406" type="curve"/>
      <point x="712.1373538089933" y="583.4993146070907"/>
      <point x="711.6609906825017" y="584.7312988270886"/>
      <point x="711.1760177612305" y="585.9265670776367" type="curve"/>
      <point x="711.0412063837027" y="586.2832776429027"/>
      <point x="710.9057801737468" y="586.6241819027849"/>
      <point x="710.7696914672852" y="586.955924987793" type="curve"/>
      <point x="710.2637045225076" y="588.249171352385"/>
      <point x="709.7484690529636" y="589.5119326565459"/>
      <point x="709.2241058349609" y="590.7393493652344" type="curve"/>
      <point x="709.1008075837598" y="591.0479829295898"/>
      <point x="708.9769507129799" y="591.3437862034689"/>
      <point x="708.8526611328125" y="591.6313858032227" type="curve"/>
      <point x="708.306227584276" y="592.9569266490448"/>
      <point x="707.7500135370386" y="594.2516757029854"/>
      <point x="707.1840896606445" y="595.5123291015625" type="curve"/>
      <point x="707.0748668514907" y="595.7715607546779"/>
      <point x="706.9651953330884" y="596.0205946250389"/>
      <point x="706.8551406860352" y="596.2628402709961" type="curve"/>
      <point x="706.2661376530531" y="597.6216910661867"/>
      <point x="705.666854609533" y="598.9493431859715"/>
      <point x="705.0573425292969" y="600.2437438964844" type="curve"/>
      <point x="704.9645425260097" y="600.452998375686"/>
      <point x="704.8715077054285" y="600.6542439651023"/>
      <point x="704.7783203125" y="600.8497009277344" type="curve"/>
      <point x="704.1445051346786" y="602.2429262794667"/>
      <point x="703.4997748723558" y="603.604779201172"/>
      <point x="702.8442535400391" y="604.9340667724609" type="curve"/>
      <point x="702.7710090312372" y="605.0912950500133"/>
      <point x="702.6976774938062" y="605.2426665518681"/>
      <point x="702.6241912841797" y="605.3897857666016" type="curve"/>
      <point x="701.9430974940454" y="606.8186455325709"/>
      <point x="701.2504534734333" y="608.2159213111482"/>
      <point x="700.54638671875" y="609.5812301635742" type="curve"/>
      <point x="700.4955305538065" y="609.6853235959576"/>
      <point x="700.4446664923914" y="609.7856743045301"/>
      <point x="700.3937759399414" y="609.8830642700195" type="curve"/>
      <point x="699.6630318067986" y="611.3483493535371"/>
      <point x="698.9200292902655" y="612.7819686603165"/>
      <point x="698.1648864746094" y="614.1841583251953" type="curve"/>
      <point x="698.13954416523" y="614.2336969721745"/>
      <point x="698.1141351018706" y="614.2816788164142"/>
      <point x="698.0886154174805" y="614.3284454345703" type="curve"/>
      <point x="664.0712786028489" y="678.5594255087368"/>
      <point x="605.3881940202385" y="730.0697048818333"/>
      <point x="533.1476745605469" y="758.7187881469727" type="curve"/>
      <point x="532.9200492476268" y="758.813344793476"/>
      <point x="532.6921042582499" y="758.9036047596846"/>
      <point x="532.4639511108398" y="758.9920959472656" type="curve"/>
      <point x="531.1824678175207" y="759.5051218110988"/>
      <point x="529.8968916187758" y="760.0031230817475"/>
      <point x="528.6072387695312" y="760.4820251464844" type="curve"/>
      <point x="528.1234668048468" y="760.6738244063715"/>
      <point x="527.639124319203" y="760.8571186536618"/>
      <point x="527.1540374755859" y="761.0360794067383" type="curve"/>
      <point x="526.099844495866" y="761.4387948291452"/>
      <point x="525.0428575994433" y="761.8297024777652"/>
      <point x="523.9830932617188" y="762.2041473388672" type="curve"/>
      <point x="523.2483287676191" y="762.4818001133368"/>
      <point x="522.5121803596852" y="762.7475408528844"/>
      <point x="521.7748794555664" y="763.0057601928711" type="curve"/>
      <point x="520.9452205262581" y="763.3076657681853"/>
      <point x="520.113923202173" y="763.600595374729"/>
      <point x="519.2809677124023" y="763.8801651000977" type="curve"/>
      <point x="518.2982478493108" y="764.2335905177371"/>
      <point x="517.3132535925663" y="764.5720536935814"/>
      <point x="516.3260116577148" y="764.8995513916016" type="curve"/>
      <point x="515.7180733165892" y="765.109860883869"/>
      <point x="515.1094537280476" y="765.3137471741791"/>
      <point x="514.4999084472656" y="765.5077667236328" type="curve"/>
      <point x="513.2781047513946" y="765.9252972595965"/>
      <point x="512.052982142598" y="766.3251163937804"/>
      <point x="510.8246536254883" y="766.7102584838867" type="curve"/>
      <point x="510.4359588623047" y="766.8374328613281" type="line"/>
      <point x="353.8488082885742" y="816.6929397583008" type="line"/>
      <point x="346.92905" y="818.89611"/>
      <point x="342.85714" y="821.58117"/>
      <point x="342.85714" y="824.48571" type="curve"/>
      <point x="342.85714" y="831.81597"/>
      <point x="368.75719" y="837.85714"/>
      <point x="401.14286" y="837.85714" type="curve" smooth="yes"/>
      <point x="433.52852" y="837.85714"/>
      <point x="459.42857" y="831.81597"/>
      <point x="459.42857" y="824.48571" type="curve"/>
      <point x="716.5714263916016" y="824.485710144043" type="line"/>
      <point x="716.57143" y="973.6647"/>
      <point x="575.37481" y="1095.0"/>
      <point x="401.14286" y="1095.0" type="curve" smooth="yes"/>
      <point x="226.9109" y="1095.0"/>
      <point x="85.71429" y="973.6647"/>
      <point x="85.71429" y="824.48571" type="curve"/>
      <point x="85.71429" y="767.01294648166"/>
      <point x="106.6639173904863" y="713.6507293229776"/>
      <point x="142.3897705078125" y="669.7981033325195" type="curve"/>
      <point x="98.30357871338703" y="619.1145120375548"/>
      <point x="71.99999999999996" y="555.1736154667101"/>
      <point x="71.99999999999994" y="485.7428600000002" type="curve"/>
      <point x="72.0" y="483.95010609332"/>
      <point x="72.01753688336987" y="482.1610123343684"/>
      <point x="72.05245971679688" y="480.3988494873047" type="curve"/>
      <point x="72.0" y="483.20217427"/>
      <point x="72.03521465508031" y="480.6688161460771"/>
      <point x="72.105224609375" y="478.57667541503906" type="curve"/>
      <point x="72.13379054826542" y="477.1136952477103"/>
      <point x="72.16815050467589" y="476.0845653969047"/>
      <point x="72.20828247070312" y="475.07896423339844" type="curve"/>
      <point x="72.24019189535476" y="474.23789379643796"/>
      <point x="72.2757484502267" y="473.42123247256205"/>
      <point x="72.31494140625" y="472.86944580078125" type="curve"/>
      <point x="72.36055579048497" y="471.65736033717843"/>
      <point x="72.41109801246763" y="470.7089013264061"/>
      <point x="72.4665298461914" y="469.7834701538086" type="curve"/>
      <point x="72.51648618481983" y="468.90619448760805"/>
      <point x="72.57040798559869" y="468.05363327080386"/>
      <point x="72.62828826904297" y="467.3909606933594" type="curve"/>
      <point x="72.6897929860041" y="466.29949142886585"/>
      <point x="72.75577524106384" y="465.3956974108394"/>
      <point x="72.82620239257812" y="464.5142364501953" type="curve"/>
      <point x="72.8949459648681" y="463.6093312806069"/>
      <point x="72.96792239179608" y="462.72932050241377"/>
      <point x="73.04511260986328" y="461.99725341796875" type="curve"/>
      <point x="73.12138452492295" y="460.9851795661558"/>
      <point x="73.20178023929884" y="460.11791129318556"/>
      <point x="73.28627014160156" y="459.27227783203125" type="curve"/>
      <point x="73.37438203974453" y="458.3450222249556"/>
      <point x="73.466975954913" y="457.44259234335743"/>
      <point x="73.56403350830078" y="456.66097259521484" type="curve"/>
      <point x="73.65413197774555" y="455.7082527884295"/>
      <point x="73.74808675357973" y="454.87235682530473"/>
      <point x="73.84584045410156" y="454.0574951171875" type="curve"/>
      <point x="73.95399463187212" y="453.10976300310887"/>
      <point x="74.0668326391952" y="452.1872223210007"/>
      <point x="74.1843032836914" y="451.36719512939453" type="curve"/>
      <point x="74.2872059912758" y="450.4639368959176"/>
      <point x="74.39369543093039" y="449.65798819600747"/>
      <point x="74.5037612915039" y="448.8720169067383" type="curve"/>
      <point x="74.6327435522006" y="447.90417987560653"/>
      <point x="74.76662071299543" y="446.96179560979283"/>
      <point x="74.90538024902344" y="446.10803985595703" type="curve"/>
      <point x="75.01997864942459" y="445.24898734781397"/>
      <point x="75.13788338191398" y="444.4728389925575"/>
      <point x="75.25907135009766" y="443.71620178222656" type="curve"/>
      <point x="75.40970866729084" y="442.7282713019576"/>
      <point x="75.56541691036867" y="441.76632444168405"/>
      <point x="75.72618865966797" y="440.8828811645508" type="curve"/>
      <point x="75.85126592050092" y="440.06528446933675"/>
      <point x="75.97944995747739" y="439.3189343281539"/>
      <point x="76.1107177734375" y="438.5910873413086" type="curve"/>
      <point x="76.28389058198067" y="437.5827997051979"/>
      <point x="76.46242274498525" y="436.60045908955055"/>
      <point x="76.6462631225586" y="435.6884002685547" type="curve"/>
      <point x="76.78049112153862" y="434.9110779344165"/>
      <point x="76.9175883968019" y="434.195764237037"/>
      <point x="77.05748748779297" y="433.4984130859375" type="curve"/>
      <point x="77.25441796637533" y="432.46790356196476"/>
      <point x="77.45695345977884" y="431.4637501020481"/>
      <point x="77.66505432128906" y="430.5232696533203" type="curve"/>
      <point x="77.80687434974953" y="429.7865428204617"/>
      <point x="77.95128871202951" y="429.10424596509506"/>
      <point x="78.09828186035156" y="428.43897247314453" type="curve"/>
      <point x="78.32011934992725" y="427.38534380186405"/>
      <point x="78.54778706952312" y="426.3586204116128"/>
      <point x="78.78124237060547" y="425.3904342651367" type="curve"/>
      <point x="78.92917803349911" y="424.6940352326052"/>
      <point x="79.0794899817261" y="424.0454443058585"/>
      <point x="79.23214721679688" y="423.4130401611328" type="curve"/>
      <point x="79.47989778067371" y="422.3362407478572"/>
      <point x="79.73378995517392" y="421.28659370064435"/>
      <point x="79.99380493164062" y="420.29077911376953" type="curve"/>
      <point x="80.1463615205297" y="419.63464275873145"/>
      <point x="80.30103672259965" y="419.0207232223654"/>
      <point x="80.45783233642578" y="418.42212677001953" type="curve"/>
      <point x="80.73284913554518" y="417.3208462193036"/>
      <point x="81.01431837331855" y="416.2470977679532"/>
      <point x="81.3021469116211" y="415.2236785888672" type="curve"/>
      <point x="81.45761122315398" y="414.6085263247245"/>
      <point x="81.61498089326915" y="414.0305119649094"/>
      <point x="81.7741928100586" y="413.46712493896484" type="curve"/>
      <point x="82.07790701823119" y="412.340151238009"/>
      <point x="82.38841892275232" y="411.2410492670313"/>
      <point x="82.70561981201172" y="410.1890869140625" type="curve"/>
      <point x="82.8620286565809" y="409.6163174496328"/>
      <point x="83.02013331121245" y="409.076156015674"/>
      <point x="83.17991638183594" y="408.5495071411133" type="curve"/>
      <point x="83.51373783665296" y="407.3959828281798"/>
      <point x="83.85472746176802" y="406.27068590494247"/>
      <point x="84.20281219482422" y="405.18961334228516" type="curve"/>
      <point x="84.35844129192671" y="404.6595543638365"/>
      <point x="84.51554338934089" y="404.1580760523636"/>
      <point x="84.67407989501953" y="403.6692810058594" type="curve"/>
      <point x="85.03946871134183" y="402.4884589223082"/>
      <point x="85.41239676608681" y="401.33629120610993"/>
      <point x="85.79279327392578" y="400.2259826660156" type="curve"/>
      <point x="85.94572493337198" y="399.73945466428313"/>
      <point x="86.09988822608976" y="399.27789664708496"/>
      <point x="86.25530242919922" y="398.8279800415039" type="curve"/>
      <point x="86.65382521005311" y="397.61901804025166"/>
      <point x="87.06032682293375" y="396.4389903307991"/>
      <point x="87.4747543334961" y="395.2986373901367" type="curve"/>
      <point x="87.62303892183473" y="394.85632884305824"/>
      <point x="87.77225730703049" y="394.4358760539594"/>
      <point x="87.92247772216797" y="394.0262451171875" type="curve"/>
      <point x="88.3558710514579" y="392.7880132721759"/>
      <point x="88.79765496878296" y="391.57918993669085"/>
      <point x="89.24778747558594" y="390.40830993652344" type="curve"/>
      <point x="89.38913521234126" y="390.011679317011"/>
      <point x="89.53122143179768" y="389.6337570763125"/>
      <point x="89.67408752441406" y="389.26570892333984" type="curve"/>
      <point x="90.14442662672872" y="387.99650621393397"/>
      <point x="90.62354332647224" y="386.75730406144515"/>
      <point x="91.11139678955078" y="385.55474853515625" type="curve"/>
      <point x="91.24329428907559" y="385.205520019138"/>
      <point x="91.37574625503852" y="384.8720770887492"/>
      <point x="91.50877380371094" y="384.5475158691406" type="curve"/>
      <point x="92.0178715729291" y="383.246592280416"/>
      <point x="92.53632849236385" y="381.975845651097"/>
      <point x="93.0639877319336" y="380.7405242919922" type="curve"/>
      <point x="93.18400055531296" y="380.4399184532547"/>
      <point x="93.30456725570359" y="380.15195380466696"/>
      <point x="93.42552185058594" y="379.871826171875" type="curve"/>
      <point x="93.97522852321362" y="378.5385903341626"/>
      <point x="94.53482084459603" y="377.23589044293703"/>
      <point x="95.104248046875" y="375.9672622680664" type="curve"/>
      <point x="95.21015357719575" y="375.7157458615444"/>
      <point x="95.31645821096886" y="375.4743434583139"/>
      <point x="95.423095703125" y="375.23941802978516" type="curve"/>
      <point x="96.01559453258014" y="373.8727081233106"/>
      <point x="96.61852767698583" y="372.5368992248353"/>
      <point x="97.23182678222656" y="371.2343063354492" type="curve"/>
      <point x="97.32084392279737" y="371.03343726266786"/>
      <point x="97.41017756129821" y="370.84018840572935"/>
      <point x="97.49964141845703" y="370.6523666381836" type="curve"/>
      <point x="98.13725386753053" y="369.2509793292745"/>
      <point x="98.78597473005979" y="367.88063524025745"/>
      <point x="99.44572448730469" y="366.54261779785156" type="curve"/>
      <point x="99.51504867772223" y="366.3937174914267"/>
      <point x="99.58439960150015" y="366.2505579213896"/>
      <point x="99.65387725830078" y="366.11133575439453" type="curve"/>
      <point x="100.33906574004557" y="364.6740391607562"/>
      <point x="101.0359558254176" y="363.2681527509344"/>
      <point x="101.7444076538086" y="361.89422607421875" type="curve"/>
      <point x="101.79110724098926" y="361.79857146133764"/>
      <point x="101.8377732829902" y="361.70650101774356"/>
      <point x="101.88457489013672" y="361.6168518066406" type="curve"/>
      <point x="102.61960661421237" y="360.14307344289745"/>
      <point x="103.3671837509031" y="358.70060066848583"/>
      <point x="104.12703704833984" y="357.28956604003906" type="curve"/>
      <point x="104.14800841834136" y="357.24854475160197"/>
      <point x="104.16907206422408" y="357.20876844615043"/>
      <point x="104.19007873535156" y="357.1702575683594" type="curve"/>
      <point x="138.99074517335652" y="291.45224399697145"/>
      <point x="199.6120115674024" y="239.0479640638848"/>
      <point x="274.15635681152344" y="210.81906127929688" type="curve"/>
      <point x="274.4065653954841" y="210.71962734340468"/>
      <point x="274.6568406731997" y="210.62502564601803"/>
      <point x="274.9073715209961" y="210.53225708007812" type="curve"/>
      <point x="276.16316367428635" y="210.052587278464"/>
      <point x="277.42278395721104" y="209.5870726217649"/>
      <point x="278.686279296875" y="209.1402359008789" type="curve"/>
      <point x="279.21180853860295" y="208.94123559905253"/>
      <point x="279.7379138133411" y="208.7514443098869"/>
      <point x="280.2645568847656" y="208.5663070678711" type="curve"/>
      <point x="281.2758160330218" y="208.19836116025934"/>
      <point x="282.2896023341711" y="207.84120910949693"/>
      <point x="283.3059616088867" y="207.49993133544922" type="curve"/>
      <point x="284.0993267248972" y="207.21409145271303"/>
      <point x="284.8942080003803" y="206.94100058593565"/>
      <point x="285.6907043457031" y="206.67575073242188" type="curve"/>
      <point x="286.4611944263361" y="206.40921378280842"/>
      <point x="287.2329266429999" y="206.1506131136101"/>
      <point x="288.00611877441406" y="205.9045639038086" type="curve"/>
      <point x="289.0634738421566" y="205.54270168314193"/>
      <point x="290.12344415969727" y="205.1966865726812"/>
      <point x="291.18590545654297" y="204.86231994628906" type="curve"/>
      <point x="292.10992891831194" y="204.56204613520782"/>
      <point x="293.03601387995445" y="204.2693947323418"/>
      <point x="293.96411895751953" y="203.98524475097656" type="curve"/>
      <point x="294.661456858252" y="203.75844114136947"/>
      <point x="295.35972915193094" y="203.54298012053482"/>
      <point x="296.0588150024414" y="203.33419036865234" type="curve"/>
      <point x="455.31993865966797" y="154.41818237304688" type="line"/>
      <point x="462.25427" y="152.28834"/>
      <point x="466.28571" y="149.73491"/>
      <point x="466.28571" y="147.0" type="curve"/>
      <point x="466.28571" y="139.6724"/>
      <point x="437.35155" y="133.62857"/>
      <point x="401.14286" y="133.62857" type="curve" smooth="yes"/>
      <point x="364.93416" y="133.62857"/>
      <point x="336.0" y="139.6724"/>
      <point x="336.0" y="147.0" type="curve"/>
    </contour>
  </outline>
</glyph>
<glyph name="diaeresis" format="2">
  <advance width="831.0857142857143"/>
  <unicode hex="00A8"/>
  <outline>
    <contour>
      <point x="403.71429" y="1297.14286" type="curve" smooth="yes"/>
      <point x="403.71429" y="1385.13388"/>
      <point x="332.27674" y="1456.57143"/>
      <point x="244.28571" y="1456.57143" type="curve" smooth="yes"/>
      <point x="156.29469" y="1456.57143"/>
      <point x="84.85714" y="1385.13388"/>
      <point x="84.85714" y="1297.14286" type="curve" smooth="yes"/>
      <point x="84.85714" y="1209.15183"/>
      <point x="156.29469" y="1137.71429"/>
      <point x="244.28571" y="1137.71429" type="curve" smooth="yes"/>
      <point x="332.27674" y="1137.71429"/>
      <point x="403.71429" y="1209.15183"/>
    </contour>
    <contour>
      <point x="746.22857" y="1297.14286" type="curve" smooth="yes"/>
      <point x="746.22857" y="1385.13388"/>
      <point x="674.79102" y="1456.57143"/>
      <point x="586.8" y="1456.57143" type="curve" smooth="yes"/>
      <point x="498.80898" y="1456.57143"/>
      <point x="427.37143" y="1385.13388"/>
      <point x="427.37143" y="1297.14286" type="curve" smooth="yes"/>
      <point x="427.37143" y="1209.15183"/>
      <point x="498.80898" y="1137.71429"/>
      <point x="586.8" y="1137.71429" type="curve" smooth="yes"/>
      <point x="674.79102" y="1137.71429"/>
      <point x="746.22857" y="1209.15183"/>
    </contour>
  </outline>
</glyph>
<glyph name="copyright" format="2">
  <advance width="1202.7857142857144"/>
  <unicode hex="00A9"/>
  <anchor x="601.392857142857" y="877.1986607142858" name="above" identifier="above"/>
  <anchor x="601.392857142857" y="212.4441964285715" name="below" identifier="below"/>
  <anchor x="601.392857142857" y="263.87276785714295" name="cedilla" identifier="cedilla"/>
  <outline>
    <contour>
      <point x="1146.21429" y="544.82143" type="curve" smooth="yes"/>
      <point x="1146.21429" y="845.51656"/>
      <point x="902.08799" y="1089.64286"/>
      <point x="601.39286" y="1089.64286" type="curve" smooth="yes"/>
      <point x="300.69773" y="1089.64286"/>
      <point x="56.57143" y="845.51656"/>
      <point x="56.57143" y="544.82143" type="curve" smooth="yes"/>
      <point x="56.57143" y="244.1263"/>
      <point x="300.69773" y="0.0"/>
      <point x="601.39286" y="0.0" type="curve" smooth="yes"/>
      <point x="902.08799" y="0.0"/>
      <point x="1146.21429" y="244.1263"/>
    </contour>
    <contour>
      <point x="1030.5" y="544.82143" type="curve" smooth="yes"/>
      <point x="1030.5" y="307.99075"/>
      <point x="838.22353" y="115.71429"/>
      <point x="601.39286" y="115.71429" type="curve" smooth="yes"/>
      <point x="364.56218" y="115.71429"/>
      <point x="172.28571" y="307.99075"/>
      <point x="172.28571" y="544.82143" type="curve" smooth="yes"/>
      <point x="172.28571" y="781.65211"/>
      <point x="364.56218" y="973.92857"/>
      <point x="601.39286" y="973.92857" type="curve" smooth="yes"/>
      <point x="838.22353" y="973.92857"/>
      <point x="1030.5" y="781.65211"/>
    </contour>
    <contour>
      <point x="601.39286" y="398.30382" type="curve" smooth="yes"/>
      <point x="520.52759" y="398.30382"/>
      <point x="454.87525" y="463.95616"/>
      <point x="454.87525" y="544.82143" type="curve" smooth="yes"/>
      <point x="454.87525" y="625.6867"/>
      <point x="520.52759" y="691.33904"/>
      <point x="601.39286" y="691.33904" type="curve" smooth="yes"/>
      <point x="661.29833" y="691.33904"/>
      <point x="712.85505" y="655.30946"/>
      <point x="735.55686" y="603.75595" type="curve"/>
      <point x="886.57288" y="603.75595" type="line"/>
      <point x="859.29027" y="736.24326"/>
      <point x="741.89726" y="835.98189"/>
      <point x="601.39286" y="835.98189" type="curve" smooth="yes"/>
      <point x="440.69702" y="835.98189"/>
      <point x="310.23239" y="705.51726"/>
      <point x="310.23239" y="544.82143" type="curve" smooth="yes"/>
      <point x="310.23239" y="384.12559"/>
      <point x="440.69702" y="253.66096"/>
      <point x="601.39286" y="253.66096" type="curve" smooth="yes"/>
      <point x="741.89871" y="253.66096"/>
      <point x="859.29269" y="353.40165"/>
      <point x="886.57375" y="485.88691" type="curve"/>
      <point x="735.55366" y="485.88691" type="line"/>
      <point x="712.85018" y="434.32999"/>
      <point x="661.2955" y="398.30382"/>
    </contour>
  </outline>
</glyph>
<glyph name="ordinal_a" format="2">
  <advance width="699.5281469231288"/>
  <unicode hex="00AA"/>
  <outline>
    <contour>
      <point x="348.02468" y="753.83189" type="curve" smooth="yes"/>
      <point x="291.70705" y="753.83189"/>
      <point x="245.98427" y="799.55467"/>
      <point x="245.98427" y="855.87231" type="curve"/>
      <point x="245.98427" y="912.18994"/>
      <point x="291.70705" y="957.91272"/>
      <point x="348.02468" y="957.91272" type="curve" smooth="yes"/>
      <point x="404.34232" y="957.91272"/>
      <point x="450.0651" y="912.18994"/>
      <point x="450.0651" y="855.87231" type="curve"/>
      <point x="450.0651" y="799.55467"/>
      <point x="404.34232" y="753.83189"/>
    </contour>
    <contour>
      <point x="48.54545" y="357.11258" type="line"/>
      <point x="633.25542" y="357.11258" type="line"/>
      <point x="633.25542" y="550.5931" type="line"/>
      <point x="48.54545" y="550.5931" type="line"/>
    </contour>
    <contour>
      <point x="471.43782806396484" y="611.7957382202148" type="line"/>
      <point x="633.2554168701172" y="611.7957382202148" type="line"/>
      <point x="633.2554168701172" y="1099.9488677978516" type="line"/>
      <point x="471.43782806396484" y="1099.9488677978516" type="line"/>
      <point x="471.43782806396484" y="1043.0582885742188" type="line"/>
      <point x="433.11620377114144" y="1086.188574327198"/>
      <point x="378.64335819368" y="1112.60606"/>
      <point x="310.7418799999999" y="1112.60606" type="curve" smooth="yes"/>
      <point x="166.03172999999995" y="1112.60606"/>
      <point x="48.54545000000001" y="1000.5824500000001"/>
      <point x="48.54545" y="855.87231" type="curve"/>
      <point x="48.54545000000001" y="711.1621599999999"/>
      <point x="166.03172999999995" y="599.13855"/>
      <point x="310.74188" y="599.13855" type="curve" smooth="yes"/>
      <point x="378.64335819368" y="599.13855"/>
      <point x="433.11620377114144" y="625.556035672802"/>
      <point x="471.43782806396484" y="668.6862716674805" type="curve"/>
    </contour>
  </outline>
</glyph>
<glyph name="angleleft_dbl" format="2">
  <advance width="1068.818181818182"/>
  <unicode hex="00AB"/>
  <outline>
    <contour>
      <point x="477.54544830322266" y="499.0909118652344" type="line"/>
      <point x="714.7685775756836" y="162.61363983154297" type="line"/>
      <point x="1002.5454483032227" y="162.61363983154297" type="line"/>
      <point x="765.3223266601562" y="499.0909118652344" type="line"/>
      <point x="1002.5454483032227" y="835.5681762695312" type="line"/>
      <point x="714.7685775756836" y="835.5681762695312" type="line"/>
    </contour>
    <contour>
      <point x="66.2727279663086" y="499.0909118652344" type="line"/>
      <point x="299.75415802001953" y="166.70455169677734" type="line"/>
      <point x="587.1818237304688" y="166.70455169677734" type="line"/>
      <point x="353.7003936767578" y="499.0909118652344" type="line"/>
      <point x="587.1818237304688" y="831.4772720336914" type="line"/>
      <point x="299.75415802001953" y="831.4772720336914" type="line"/>
    </contour>
  </outline>
</glyph>
<glyph name="logicalnot" format="2">
  <advance width="967.0909090909091"/>
  <unicode hex="00AC"/>
  <outline>
    <contour>
      <point x="66.2727279663086" y="351.81817626953125" type="line"/>
      <point x="606.2727279663086" y="351.81817626953125" type="line"/>
      <point x="606.2727279663086" y="0" type="line"/>
      <point x="900.8181762695312" y="0" type="line"/>
      <point x="900.8181762695312" y="646.363639831543" type="line"/>
      <point x="66.2727279663086" y="646.363639831543" type="line"/>
    </contour>
  </outline>
</glyph>
<glyph name="registered" format="2">
  <advance width="1224.818181818182"/>
  <unicode hex="00AE"/>
  <outline>
    <contour>
      <point x="1183.09091" y="546.13636" type="curve" smooth="yes"/>
      <point x="1183.09091" y="861.10423"/>
      <point x="927.37696" y="1116.81818"/>
      <point x="612.40909" y="1116.81818" type="curve" smooth="yes"/>
      <point x="297.44122" y="1116.81818"/>
      <point x="41.72727" y="861.10423"/>
      <point x="41.72727" y="546.13636" type="curve" smooth="yes"/>
      <point x="41.72727" y="231.1685"/>
      <point x="297.44122" y="-24.54545"/>
      <point x="612.40909" y="-24.54545" type="curve" smooth="yes"/>
      <point x="927.37696" y="-24.54545"/>
      <point x="1183.09091" y="231.1685"/>
    </contour>
    <contour>
      <point x="382.44837951660156" y="280.79830169677734" type="line"/>
      <point x="559.9938430786133" y="280.79830169677734" type="line"/>
      <point x="559.9938430786133" y="425.8348388671875" type="line"/>
      <point x="597.3862457275391" y="425.8348388671875" type="line"/>
      <point x="688.7304306030273" y="280.79830169677734" type="line"/>
      <point x="890.0691223144531" y="280.79830169677734" type="line"/>
      <point x="820.109275486012" y="207.60932996652662"/>
      <point x="721.54346988817" y="162.0"/>
      <point x="612.4090900000001" y="161.99999999999997" type="curve" smooth="yes"/>
      <point x="400.39846" y="162.0"/>
      <point x="228.27273" y="334.12573"/>
      <point x="228.27273" y="546.13636" type="curve" smooth="yes"/>
      <point x="228.27273" y="758.14699"/>
      <point x="400.39846" y="930.27273"/>
      <point x="612.40909" y="930.27273" type="curve" smooth="yes"/>
      <point x="824.41972" y="930.27273"/>
      <point x="996.54545" y="758.14699"/>
      <point x="996.54545" y="546.13636" type="curve" smooth="yes"/>
      <point x="996.54545" y="443.34046191693994"/>
      <point x="956.0802126330053" y="349.921151203234"/>
      <point x="890.2234268188477" y="280.9583740234375" type="curve"/>
      <point x="777.428825378418" y="455.72633361816406" type="line"/>
      <point x="834.8841283017908" y="486.90348134045144"/>
      <point x="872.46584" y="541.81485137202"/>
      <point x="872.46584" y="617.29125" type="curve" smooth="yes"/>
      <point x="872.46584" y="723.4462523892348"/>
      <point x="800.7611365209405" y="811.4744321132438"/>
      <point x="629.48798" y="811.4744297206056" type="curve"/>
      <point x="382.44837951660156" y="811.4744262695312" type="line"/>
    </contour>
    <contour>
      <point x="559.9938430786133" y="649.1988906860352" type="line"/>
      <point x="644.8648261499991" y="649.1988906860352" type="line"/>
      <point x="673.9727959725351" y="649.1988906860352"/>
      <point x="685.75844" y="629.7003338207342"/>
      <point x="685.75844" y="612.92842" type="curve" smooth="yes"/>
      <point x="685.75844" y="596.1564915736142"/>
      <point x="673.9727754114982" y="576.6579602778659"/>
      <point x="644.8648270718966" y="576.6579599475341" type="curve"/>
      <point x="559.9938430786133" y="576.657958984375" type="line"/>
    </contour>
  </outline>
</glyph>
<glyph name="macron" format="2">
  <advance width="748.2272727272727"/>
  <unicode hex="00AF"/>
  <anchor x="374.1136363636364" y="1521.1844155844155" name="above" identifier="above"/>
  <outline>
    <contour>
      <point x="66.27273" y="1207.25714" type="line"/>
      <point x="681.95455" y="1207.25714" type="line"/>
      <point x="681.95455" y="1423.0026" type="line"/>
      <point x="66.27273" y="1423.0026" type="line"/>
    </contour>
  </outline>
</glyph>
<glyph name="degree" format="2">
  <advance width="709.7142857142857"/>
  <unicode hex="00B0"/>
  <outline>
    <contour>
      <point x="650.57143" y="799.28571" type="curve" smooth="yes"/>
      <point x="650.57143" y="962.49487"/>
      <point x="518.0663" y="1095.0"/>
      <point x="354.85714" y="1095.0" type="curve" smooth="yes"/>
      <point x="191.64799" y="1095.0"/>
      <point x="59.14286" y="962.49487"/>
      <point x="59.14286" y="799.28571" type="curve" smooth="yes"/>
      <point x="59.14286" y="636.07656"/>
      <point x="191.64799" y="503.57143"/>
      <point x="354.85714" y="503.57143" type="curve" smooth="yes"/>
      <point x="518.0663" y="503.57143"/>
      <point x="650.57143" y="636.07656"/>
    </contour>
    <contour>
      <point x="419.14286" y="799.28571" type="curve" smooth="yes"/>
      <point x="419.14286" y="763.80546"/>
      <point x="390.33739" y="735.0"/>
      <point x="354.85714" y="735.0" type="curve" smooth="yes"/>
      <point x="319.37689" y="735.0"/>
      <point x="290.57143" y="763.80546"/>
      <point x="290.57143" y="799.28571" type="curve" smooth="yes"/>
      <point x="290.57143" y="834.76597"/>
      <point x="319.37689" y="863.57143"/>
      <point x="354.85714" y="863.57143" type="curve" smooth="yes"/>
      <point x="390.33739" y="863.57143"/>
      <point x="419.14286" y="834.76597"/>
    </contour>
  </outline>
</glyph>
<glyph name="plusminus" format="2">
  <advance width="893.4545454545455"/>
  <unicode hex="00B1"/>
  <outline>
    <contour>
      <point x="66.2727279663086" y="-15.054550170898438" type="line"/>
      <point x="827.1818237304688" y="-15.054550170898438" type="line"/>
      <point x="827.1818237304688" y="268.69091033935547" type="line"/>
      <point x="588.5999984741211" y="268.69091033935547" type="line"/>
      <point x="588.5999984741211" y="490.9090881347656" type="line"/>
      <point x="827.1818237304688" y="490.9090881347656" type="line"/>
      <point x="827.1818237304688" y="774.6545486450195" type="line"/>
      <point x="588.5999984741211" y="774.6545486450195" type="line"/>
      <point x="588.5999984741211" y="1013.2363586425781" type="line"/>
      <point x="304.85455322265625" y="1013.2363586425781" type="line"/>
      <point x="304.85455322265625" y="774.6545486450195" type="line"/>
      <point x="66.2727279663086" y="774.6545486450195" type="line"/>
      <point x="66.2727279663086" y="490.9090881347656" type="line"/>
      <point x="304.85455322265625" y="490.9090881347656" type="line"/>
      <point x="304.85455322265625" y="268.69091033935547" type="line"/>
      <point x="66.2727279663086" y="268.69091033935547" type="line"/>
    </contour>
  </outline>
</glyph>
<glyph name="sup_two" format="2">
  <advance width="670.2551020408162"/>
  <unicode hex="00B2"/>
  <outline>
    <contour>
      <point x="99.21939086914062" y="355.683349609375" type="line"/>
      <point x="593.5816268920898" y="355.683349609375" type="line"/>
      <point x="593.5816268920898" y="541.4690704345703" type="line"/>
      <point x="381.3559036254883" y="541.4690704345703" type="line"/>
      <point x="490.74594287224005" y="637.1831030375417" type="line"/>
      <point x="520.7484339564544" y="663.4346651503154"/>
      <point x="593.58163" y="730.329912965584"/>
      <point x="593.58163" y="843.8056" type="curve"/>
      <point x="593.58163" y="985.6759200000001"/>
      <point x="478.4009300000001" y="1100.85662"/>
      <point x="336.53061" y="1100.85662" type="curve" smooth="yes"/>
      <point x="194.66029" y="1100.85662"/>
      <point x="79.47959" y="985.67592"/>
      <point x="79.47959" y="843.8056" type="curve"/>
      <point x="265.2653121948242" y="843.8056030273438" type="line"/>
      <point x="265.26531" y="883.138"/>
      <point x="297.19822" y="915.07091"/>
      <point x="336.53061" y="915.07091" type="curve" smooth="yes"/>
      <point x="375.86301" y="915.07091"/>
      <point x="407.79592" y="883.138"/>
      <point x="407.79592" y="843.8056" type="curve"/>
      <point x="407.79592" y="811.835554128919"/>
      <point x="386.97252243742383" y="793.2471297059955"/>
      <point x="376.740966551455" y="784.294729187341" type="curve"/>
      <point x="99.21939086914062" y="541.4690704345703" type="line"/>
    </contour>
  </outline>
</glyph>
<glyph name="sup_three" format="2">
  <advance width="663.2551020408164"/>
  <unicode hex="00B3"/>
  <outline>
    <contour>
      <point x="76.89795684814453" y="600.2479019165039" type="line"/>
      <point x="76.89796" y="473.06683"/>
      <point x="187.60682" y="370.73767"/>
      <point x="332.95408" y="370.73767" type="curve" smooth="yes"/>
      <point x="478.30134" y="370.73767"/>
      <point x="589.0102" y="473.06683"/>
      <point x="589.0102" y="600.2479" type="curve"/>
      <point x="589.0102" y="653.10104598418"/>
      <point x="569.8905861955064" y="701.66222363354"/>
      <point x="537.1109390258789" y="740.368278503418" type="curve"/>
      <point x="563.3780056611286" y="775.7402880744652"/>
      <point x="578.39796" y="818.5126183815602"/>
      <point x="578.3979600000001" y="864.5969700000002" type="curve"/>
      <point x="578.39796" y="986.49582"/>
      <point x="473.30807" y="1085.22151"/>
      <point x="332.95408" y="1085.22151" type="curve" smooth="yes"/>
      <point x="192.60009" y="1085.22151"/>
      <point x="87.5102" y="986.49582"/>
      <point x="87.5102" y="864.59697" type="curve"/>
      <point x="273.2959213256836" y="864.5969696044922" type="line"/>
      <point x="273.29592" y="883.77113"/>
      <point x="299.93544" y="899.4358"/>
      <point x="332.95408" y="899.4358" type="curve" smooth="yes"/>
      <point x="358.6149362497723" y="899.4358"/>
      <point x="392.61224" y="889.974622771528"/>
      <point x="392.61224" y="864.59697" type="curve"/>
      <point x="392.61224" y="829.9780668673086"/>
      <point x="331.6056364737265" y="829.7581300425986"/>
      <point x="306.85480881882603" y="829.7581308244999" type="curve"/>
      <point x="240.06121826171875" y="829.7581329345703" type="line"/>
      <point x="240.06121826171875" y="643.9724197387695" type="line"/>
      <point x="304.1093984592988" y="643.9724197387695" type="line"/>
      <point x="322.412816124739" y="643.9724197387695"/>
      <point x="403.22449" y="643.9522629204441"/>
      <point x="403.22449" y="600.2479" type="curve"/>
      <point x="403.22449" y="571.8719551996819"/>
      <point x="367.3118701424258" y="556.52338"/>
      <point x="332.95408" y="556.52338" type="curve" smooth="yes"/>
      <point x="294.07429" y="556.52338"/>
      <point x="262.68367" y="576.17568"/>
      <point x="262.68367" y="600.2479" type="curve"/>
    </contour>
  </outline>
</glyph>
<glyph name="acute" format="2">
  <advance width="610.4338796703126"/>
  <unicode hex="00B4"/>
  <anchor x="198.95024276647274" y="1550.4545454545455" name="above" identifier="above"/>
  <outline>
    <contour>
      <point x="66.27273" y="1190.45455" type="line"/>
      <point x="307.30355" y="1190.45455" type="line"/>
      <point x="544.16115" y="1517.72727" type="line"/>
      <point x="254.48191" y="1517.72727" type="line"/>
    </contour>
  </outline>
</glyph>
<glyph name="micron" format="2">
  <advance width="930.2727272727273"/>
  <unicode hex="00B5"/>
  <outline>
    <contour>
      <point x="66.2727279663086" y="-374.31817626953125" type="line"/>
      <point x="348.21817779541016" y="-374.31817626953125" type="line"/>
      <point x="348.21817779541016" y="20.167648315429688" type="line"/>
      <point x="379.45571251181167" y="-5.721353890686647"/>
      <point x="420.7072408848" y="-20.333329999999968"/>
      <point x="474.82824" y="-20.33332999999996" type="curve" smooth="yes"/>
      <point x="545.38823446554" y="-20.33333"/>
      <point x="591.2104933347041" y="5.254374649750673"/>
      <point x="620.8220520019531" y="48.68656921386719" type="curve"/>
      <point x="620.8220520019531" y="0" type="line"/>
      <point x="864" y="0" type="line"/>
      <point x="864" y="849.886360168457" type="line"/>
      <point x="582.0545501708984" y="849.886360168457" type="line"/>
      <point x="582.0545501708984" y="358.9730797520086" type="line"/>
      <point x="582.0545501708984" y="263.38677888933137"/>
      <point x="520.0758500611511" y="227.15212"/>
      <point x="465.13636" y="227.15212" type="curve" smooth="yes"/>
      <point x="410.19686793798655" y="227.15212"/>
      <point x="348.2181803516576" y="263.38678216502814"/>
      <point x="348.2181799350465" y="358.9730825988804" type="curve"/>
      <point x="348.21817779541016" y="849.886360168457" type="line"/>
      <point x="66.2727279663086" y="849.886360168457" type="line"/>
    </contour>
  </outline>
</glyph>
<glyph name="pilcrow" format="2">
  <advance width="961.5330000000001"/>
  <unicode hex="00B6"/>
  <outline>
    <contour>
      <point x="401.7272720336914" y="-204.28571319580078" type="line"/>
      <point x="628.9093627929688" y="-204.28571319580078" type="line"/>
      <point x="628.9093627929688" y="849.5272674560547" type="line"/>
      <point x="678.0002670288086" y="849.5272674560547" type="line"/>
      <point x="678.0002670288086" y="-204.28571319580078" type="line"/>
      <point x="907.5329971313477" y="-204.28571319580078" type="line"/>
      <point x="907.5329971313477" y="1092.2727279663086" type="line"/>
      <point x="421.7272720336914" y="1092.2727279663086" type="line"/>
      <point x="174.75814749191701" y="1092.2727279663086"/>
      <point x="49.909090000000006" y="909.4882288411228"/>
      <point x="49.90909" y="740.45455" type="curve" smooth="yes"/>
      <point x="49.90909000000001" y="546.28081"/>
      <point x="207.5535299999999" y="388.63636"/>
      <point x="401.72727" y="388.63636" type="curve"/>
    </contour>
  </outline>
</glyph>
<glyph name="interpunct" format="2">
  <advance width="462.85714285714283"/>
  <unicode hex="00B7"/>
  <outline>
    <contour>
      <point x="390.85714" y="489.64286" type="curve" smooth="yes"/>
      <point x="390.85714" y="577.63388"/>
      <point x="319.41959" y="649.07143"/>
      <point x="231.42857" y="649.07143" type="curve" smooth="yes"/>
      <point x="143.43755" y="649.07143"/>
      <point x="72.0" y="577.63388"/>
      <point x="72.0" y="489.64286" type="curve" smooth="yes"/>
      <point x="72.0" y="401.65183"/>
      <point x="143.43755" y="330.21429"/>
      <point x="231.42857" y="330.21429" type="curve" smooth="yes"/>
      <point x="319.41959" y="330.21429"/>
      <point x="390.85714" y="401.65183"/>
    </contour>
  </outline>
</glyph>
<glyph name="cedilla" format="2">
  <advance width="505.5238720538721"/>
  <unicode hex="00B8"/>
  <outline>
    <contour>
      <point x="130.50301361083984" y="-151.49703979492188" type="line"/>
      <point x="208.61441319839403" y="-151.49703979492188" type="line"/>
      <point x="237.46651397244926" y="-151.49703979492188"/>
      <point x="249.17569" y="-170.8212278666869"/>
      <point x="249.17569" y="-187.47273" type="curve" smooth="yes"/>
      <point x="249.17569" y="-204.12424126783512"/>
      <point x="237.46650287150962" y="-223.448420385884"/>
      <point x="208.61442094201237" y="-223.4484199270805" type="curve"/>
      <point x="66.2727279663086" y="-223.44841766357422" type="line"/>
      <point x="66.2727279663086" y="-399.64054107666016" type="line"/>
      <point x="193.1999969482422" y="-399.64054107666016" type="line"/>
      <point x="370.19815763525446" y="-399.64054107666016"/>
      <point x="439.25114" y="-304.6545798085011"/>
      <point x="439.25114" y="-201.04754" type="curve" smooth="yes"/>
      <point x="439.25114" y="-105.46824733901995"/>
      <point x="379.80319536585796" y="-39.77960650682387"/>
      <point x="295.89698791503906" y="-14.291168212890625" type="curve"/>
      <point x="295.89698791503906" y="147.2727279663086" type="line"/>
      <point x="130.50301361083984" y="147.2727279663086" type="line"/>
    </contour>
  </outline>
</glyph>
<glyph name="sup_one" format="2">
  <advance width="603.1989795918367"/>
  <unicode hex="00B9"/>
  <outline>
    <contour>
      <point x="262.16837310791016" y="355.683349609375" type="line"/>
      <point x="447.9540786743164" y="355.683349609375" type="line"/>
      <point x="447.9540786743164" y="1087.6470031738281" type="line"/>
      <point x="262.16837310791016" y="1087.6470031738281" type="line"/>
      <point x="101.92857360839844" y="995.1325073242188" type="line"/>
      <point x="101.92857360839844" y="780.6056518554688" type="line"/>
      <point x="262.16837310791016" y="873.1201400756836" type="line"/>
    </contour>
  </outline>
</glyph>
<glyph name="ordinal_o" format="2">
  <advance width="680.35280212454"/>
  <unicode hex="00BA"/>
  <outline>
    <contour>
      <point x="340.1764" y="954.74247" type="curve"/>
      <point x="394.74433" y="954.74247"/>
      <point x="439.04656" y="910.44023"/>
      <point x="439.04656" y="855.87231" type="curve"/>
      <point x="439.04656" y="801.30438"/>
      <point x="394.74433" y="757.00214"/>
      <point x="340.1764" y="757.00214" type="curve"/>
      <point x="285.60847" y="757.00214"/>
      <point x="241.30624" y="801.30438"/>
      <point x="241.30624" y="855.87231" type="curve"/>
      <point x="241.30624" y="910.44023"/>
      <point x="285.60847" y="954.74247"/>
    </contour>
    <contour>
      <point x="48.54545" y="357.11258" type="line"/>
      <point x="631.80735" y="357.11258" type="line"/>
      <point x="631.80735" y="550.5931" type="line"/>
      <point x="48.54545" y="550.5931" type="line"/>
    </contour>
    <contour>
      <point x="340.1764" y="1112.60606" type="curve"/>
      <point x="179.16085" y="1112.60606"/>
      <point x="48.54545" y="999.89126"/>
      <point x="48.54545" y="855.87231" type="curve"/>
      <point x="48.54545" y="711.85336"/>
      <point x="179.16085" y="599.13855"/>
      <point x="340.1764" y="599.13855" type="curve"/>
      <point x="501.19195" y="599.13855"/>
      <point x="631.80735" y="711.85336"/>
      <point x="631.80735" y="855.87231" type="curve"/>
      <point x="631.80735" y="999.89126"/>
      <point x="501.19195" y="1112.60606"/>
    </contour>
  </outline>
</glyph>
<glyph name="angleright_dbl" format="2">
  <advance width="1064.727272727273"/>
  <unicode hex="00BB"/>
  <outline>
    <contour>
      <point x="591.2727279663086" y="499.0909118652344" type="line"/>
      <point x="354.04959869384766" y="835.5681762695312" type="line"/>
      <point x="66.2727279663086" y="835.5681762695312" type="line"/>
      <point x="303.49585723876953" y="499.0909118652344" type="line"/>
      <point x="66.2727279663086" y="162.61363983154297" type="line"/>
      <point x="354.04959869384766" y="162.61363983154297" type="line"/>
    </contour>
    <contour>
      <point x="998.4545516967773" y="499.0909118652344" type="line"/>
      <point x="764.9731063842773" y="831.4772720336914" type="line"/>
      <point x="477.54544830322266" y="831.4772720336914" type="line"/>
      <point x="711.0268936157227" y="499.0909118652344" type="line"/>
      <point x="477.54544830322266" y="166.70455169677734" type="line"/>
      <point x="764.9731063842773" y="166.70455169677734" type="line"/>
    </contour>
  </outline>
</glyph>
<glyph name="one_over_four" format="2">
  <advance width="1472.4387113613286"/>
  <unicode hex="00BC"/>
  <outline>
    <contour>
      <point x="217.11735" y="0.0" type="line"/>
      <point x="472.20528" y="0.0" type="line"/>
      <point x="1271.16448" y="1089.64286" type="line"/>
      <point x="1016.07655" y="1089.64286" type="line"/>
    </contour>
    <contour>
      <point x="262.16837310791016" y="355.683349609375" type="line"/>
      <point x="447.9540786743164" y="355.683349609375" type="line"/>
      <point x="447.9540786743164" y="1087.6470031738281" type="line"/>
      <point x="262.16837310791016" y="1087.6470031738281" type="line"/>
      <point x="101.92857360839844" y="995.1325073242188" type="line"/>
      <point x="101.92857360839844" y="780.6056518554688" type="line"/>
      <point x="262.16837310791016" y="873.1201400756836" type="line"/>
    </contour>
    <contour>
      <point x="1060.1045837402344" y="317.3498306274414" type="line"/>
      <point x="1139.6467971801758" y="423.0276107788086" type="line"/>
      <point x="1139.6467971801758" y="317.3498306274414" type="line"/>
    </contour>
    <contour>
      <point x="827.572639465332" y="131.5641098022461" type="line"/>
      <point x="1139.6467971801758" y="131.5641098022461" type="line"/>
      <point x="1139.6467971801758" y="0" type="line"/>
      <point x="1325.432518005371" y="0" type="line"/>
      <point x="1325.432518005371" y="131.5641098022461" type="line"/>
      <point x="1418.2142181396484" y="131.5641098022461" type="line"/>
      <point x="1418.2142181396484" y="317.3498306274414" type="line"/>
      <point x="1325.432518005371" y="317.3498306274414" type="line"/>
      <point x="1325.432518005371" y="731.9636535644531" type="line"/>
      <point x="1139.6467971801758" y="731.9636535644531" type="line"/>
      <point x="827.572639465332" y="317.3498306274414" type="line"/>
    </contour>
  </outline>
</glyph>
